<mxfile host="Electron" modified="2023-09-03T10:33:37.125Z" agent="Mozilla/5.0 (Windows NT 10.0; Win64; x64) AppleWebKit/537.36 (KHTML, like Gecko) draw.io/21.6.8 Chrome/114.0.5735.289 Electron/25.5.0 Safari/537.36" etag="7_bNxbdRsfQ6lFTqYYXU" version="21.6.8" type="device">
  <diagram id="R2lEEEUBdFMjLlhIrx00" name="Page-1">
    <mxGraphModel dx="7460" dy="4607" grid="1" gridSize="10" guides="1" tooltips="1" connect="1" arrows="1" fold="1" page="1" pageScale="1" pageWidth="850" pageHeight="1100" math="0" shadow="0" extFonts="Permanent Marker^https://fonts.googleapis.com/css?family=Permanent+Marker">
      <root>
        <mxCell id="0" />
        <mxCell id="1" parent="0" />
        <mxCell id="1MnCZ6X67kEB5upLMirH-1" value="&lt;h2&gt;&lt;b&gt;Employee&lt;/b&gt;&lt;/h2&gt;" style="whiteSpace=wrap;html=1;align=center;fillColor=#dae8fc;strokeColor=#6c8ebf;" parent="1" vertex="1">
          <mxGeometry x="-460" y="-57.5" width="135" height="40" as="geometry" />
        </mxCell>
        <mxCell id="1MnCZ6X67kEB5upLMirH-2" value="&lt;u&gt;&lt;b&gt;SSN&lt;/b&gt;&lt;/u&gt;" style="ellipse;whiteSpace=wrap;html=1;align=center;fillColor=#fff2cc;strokeColor=#d6b656;" parent="1" vertex="1">
          <mxGeometry x="-630" y="-116.69" width="60" height="30" as="geometry" />
        </mxCell>
        <mxCell id="1MnCZ6X67kEB5upLMirH-3" value="&lt;u&gt;&lt;b&gt;ID&lt;/b&gt;&lt;/u&gt;" style="ellipse;whiteSpace=wrap;html=1;align=center;fillColor=#fff2cc;strokeColor=#d6b656;" parent="1" vertex="1">
          <mxGeometry x="-590" y="-151.69" width="70" height="30" as="geometry" />
        </mxCell>
        <mxCell id="1MnCZ6X67kEB5upLMirH-9" value="&lt;h1&gt;-&amp;gt; Design Steps&lt;/h1&gt;&lt;h1&gt;1- Describe Entities You need in the system (خليها كلمة واحدة مفرد)&lt;/h1&gt;&lt;h1&gt;2- Define Attributes for every Entity&lt;/h1&gt;&lt;h1&gt;3- define Unique Identitfiers Attribute/s&lt;/h1&gt;&lt;h1&gt;4-Define Realtionships between Entities(خليها فعل)&lt;/h1&gt;" style="text;html=1;align=center;verticalAlign=middle;resizable=0;points=[];autosize=1;strokeColor=#666666;fillColor=#f5f5f5;fontColor=#333333;" parent="1" vertex="1">
          <mxGeometry x="-850" y="-620" width="720" height="250" as="geometry" />
        </mxCell>
        <mxCell id="1MnCZ6X67kEB5upLMirH-10" value="&lt;b&gt;Name&lt;/b&gt;" style="ellipse;whiteSpace=wrap;html=1;align=center;fillColor=#fff2cc;strokeColor=#d6b656;" parent="1" vertex="1">
          <mxGeometry x="-520" y="-166.69" width="60" height="30" as="geometry" />
        </mxCell>
        <mxCell id="1MnCZ6X67kEB5upLMirH-11" value="&lt;b&gt;Salary&lt;/b&gt;" style="ellipse;whiteSpace=wrap;html=1;align=center;fillColor=#fff2cc;strokeColor=#d6b656;" parent="1" vertex="1">
          <mxGeometry x="-450" y="-176.69" width="70" height="30" as="geometry" />
        </mxCell>
        <mxCell id="1MnCZ6X67kEB5upLMirH-13" value="" style="endArrow=none;html=1;rounded=0;" parent="1" source="1MnCZ6X67kEB5upLMirH-2" target="1MnCZ6X67kEB5upLMirH-1" edge="1">
          <mxGeometry relative="1" as="geometry">
            <mxPoint x="-625" y="-67.5" as="sourcePoint" />
            <mxPoint x="-465" y="-67.5" as="targetPoint" />
          </mxGeometry>
        </mxCell>
        <mxCell id="IEiortbo1h3j8OMEW61c-232" style="edgeStyle=orthogonalEdgeStyle;rounded=0;orthogonalLoop=1;jettySize=auto;html=1;exitX=0;exitY=0.5;exitDx=0;exitDy=0;entryX=0.003;entryY=0.845;entryDx=0;entryDy=0;entryPerimeter=0;" parent="1" source="IEiortbo1h3j8OMEW61c-110" target="IEiortbo1h3j8OMEW61c-17" edge="1">
          <mxGeometry relative="1" as="geometry">
            <Array as="points">
              <mxPoint x="-410" y="2245" />
              <mxPoint x="-410" y="2041" />
            </Array>
          </mxGeometry>
        </mxCell>
        <mxCell id="1MnCZ6X67kEB5upLMirH-15" value="" style="endArrow=none;html=1;rounded=0;" parent="1" source="1MnCZ6X67kEB5upLMirH-3" target="1MnCZ6X67kEB5upLMirH-1" edge="1">
          <mxGeometry relative="1" as="geometry">
            <mxPoint x="-495" y="-117.5" as="sourcePoint" />
            <mxPoint x="-383" y="-86.5" as="targetPoint" />
          </mxGeometry>
        </mxCell>
        <mxCell id="1MnCZ6X67kEB5upLMirH-16" value="" style="endArrow=none;html=1;rounded=0;" parent="1" source="1MnCZ6X67kEB5upLMirH-10" target="1MnCZ6X67kEB5upLMirH-1" edge="1">
          <mxGeometry relative="1" as="geometry">
            <mxPoint x="-403" y="-122.5" as="sourcePoint" />
            <mxPoint x="-345" y="-75.5" as="targetPoint" />
          </mxGeometry>
        </mxCell>
        <mxCell id="1MnCZ6X67kEB5upLMirH-17" value="" style="endArrow=none;html=1;rounded=0;" parent="1" source="1MnCZ6X67kEB5upLMirH-11" target="1MnCZ6X67kEB5upLMirH-1" edge="1">
          <mxGeometry relative="1" as="geometry">
            <mxPoint x="-355" y="-127.5" as="sourcePoint" />
            <mxPoint x="-340" y="-77.5" as="targetPoint" />
          </mxGeometry>
        </mxCell>
        <mxCell id="1MnCZ6X67kEB5upLMirH-22" value="&lt;b&gt;Phone&lt;/b&gt;" style="ellipse;shape=doubleEllipse;margin=3;whiteSpace=wrap;html=1;align=center;fillColor=#d5e8d4;strokeColor=#82b366;" parent="1" vertex="1">
          <mxGeometry x="-375" y="-220" width="90" height="40" as="geometry" />
        </mxCell>
        <mxCell id="1MnCZ6X67kEB5upLMirH-23" value="" style="endArrow=none;html=1;rounded=0;" parent="1" source="1MnCZ6X67kEB5upLMirH-22" target="1MnCZ6X67kEB5upLMirH-1" edge="1">
          <mxGeometry relative="1" as="geometry">
            <mxPoint x="-255" y="-152.5" as="sourcePoint" />
            <mxPoint x="-265" y="-92.5" as="targetPoint" />
          </mxGeometry>
        </mxCell>
        <mxCell id="1MnCZ6X67kEB5upLMirH-24" value="&lt;b&gt;Adress&lt;/b&gt;" style="ellipse;whiteSpace=wrap;html=1;align=center;fillColor=#f5f5f5;fontColor=#333333;strokeColor=#666666;" parent="1" vertex="1">
          <mxGeometry x="-325" y="-162.5" width="90" height="30" as="geometry" />
        </mxCell>
        <mxCell id="1MnCZ6X67kEB5upLMirH-25" value="&lt;b&gt;Street&lt;/b&gt;" style="ellipse;whiteSpace=wrap;html=1;align=center;fillColor=#fff2cc;strokeColor=#d6b656;" parent="1" vertex="1">
          <mxGeometry x="-265" y="-206.69" width="70" height="30" as="geometry" />
        </mxCell>
        <mxCell id="1MnCZ6X67kEB5upLMirH-26" value="&lt;b&gt;City&lt;/b&gt;" style="ellipse;whiteSpace=wrap;html=1;align=center;fillColor=#fff2cc;strokeColor=#d6b656;" parent="1" vertex="1">
          <mxGeometry x="-210" y="-164.19" width="70" height="25" as="geometry" />
        </mxCell>
        <mxCell id="1MnCZ6X67kEB5upLMirH-27" value="" style="endArrow=none;html=1;rounded=0;" parent="1" source="1MnCZ6X67kEB5upLMirH-25" target="1MnCZ6X67kEB5upLMirH-24" edge="1">
          <mxGeometry relative="1" as="geometry">
            <mxPoint x="-211.35135135135715" y="-187.50081081080333" as="sourcePoint" />
            <mxPoint x="-285" y="-86.69" as="targetPoint" />
          </mxGeometry>
        </mxCell>
        <mxCell id="1MnCZ6X67kEB5upLMirH-29" value="" style="endArrow=none;html=1;rounded=0;" parent="1" source="1MnCZ6X67kEB5upLMirH-26" target="1MnCZ6X67kEB5upLMirH-24" edge="1">
          <mxGeometry relative="1" as="geometry">
            <mxPoint x="-201" y="-177.69" as="sourcePoint" />
            <mxPoint x="-218" y="-155.69" as="targetPoint" />
          </mxGeometry>
        </mxCell>
        <mxCell id="1MnCZ6X67kEB5upLMirH-30" value="" style="endArrow=none;html=1;rounded=0;" parent="1" source="1MnCZ6X67kEB5upLMirH-24" target="1MnCZ6X67kEB5upLMirH-1" edge="1">
          <mxGeometry relative="1" as="geometry">
            <mxPoint x="-123" y="-150.5" as="sourcePoint" />
            <mxPoint x="-148" y="-147.5" as="targetPoint" />
          </mxGeometry>
        </mxCell>
        <mxCell id="1MnCZ6X67kEB5upLMirH-32" value="" style="endArrow=none;html=1;rounded=0;" parent="1" source="1MnCZ6X67kEB5upLMirH-71" target="1MnCZ6X67kEB5upLMirH-1" edge="1">
          <mxGeometry relative="1" as="geometry">
            <mxPoint x="-233.57982331465473" y="-92.4525434437437" as="sourcePoint" />
            <mxPoint x="-335" y="-47.5" as="targetPoint" />
          </mxGeometry>
        </mxCell>
        <mxCell id="1MnCZ6X67kEB5upLMirH-52" value="&lt;h2&gt;&lt;b&gt;Dept&lt;/b&gt;&lt;/h2&gt;" style="whiteSpace=wrap;html=1;align=center;fillColor=#dae8fc;strokeColor=#6c8ebf;" parent="1" vertex="1">
          <mxGeometry x="155" y="-97.5" width="100" height="40" as="geometry" />
        </mxCell>
        <mxCell id="1MnCZ6X67kEB5upLMirH-54" value="&lt;u&gt;&lt;b&gt;DNO&lt;/b&gt;&lt;/u&gt;" style="ellipse;whiteSpace=wrap;html=1;align=center;fillColor=#fff2cc;strokeColor=#d6b656;" parent="1" vertex="1">
          <mxGeometry x="70" y="-192.5" width="70" height="30" as="geometry" />
        </mxCell>
        <mxCell id="1MnCZ6X67kEB5upLMirH-55" value="&lt;b&gt;DName&lt;/b&gt;" style="ellipse;whiteSpace=wrap;html=1;align=center;fillColor=#fff2cc;strokeColor=#d6b656;" parent="1" vertex="1">
          <mxGeometry x="170" y="-206.69" width="60" height="30" as="geometry" />
        </mxCell>
        <mxCell id="1MnCZ6X67kEB5upLMirH-56" value="&lt;b&gt;DLOC&lt;/b&gt;" style="ellipse;whiteSpace=wrap;html=1;align=center;fillColor=#fff2cc;strokeColor=#d6b656;" parent="1" vertex="1">
          <mxGeometry x="255" y="-192.5" width="70" height="30" as="geometry" />
        </mxCell>
        <mxCell id="1MnCZ6X67kEB5upLMirH-58" value="" style="endArrow=none;html=1;rounded=0;" parent="1" source="1MnCZ6X67kEB5upLMirH-54" target="1MnCZ6X67kEB5upLMirH-52" edge="1">
          <mxGeometry relative="1" as="geometry">
            <mxPoint x="105" y="-137.5" as="sourcePoint" />
            <mxPoint x="197" y="-126.5" as="targetPoint" />
          </mxGeometry>
        </mxCell>
        <mxCell id="1MnCZ6X67kEB5upLMirH-59" value="" style="endArrow=none;html=1;rounded=0;" parent="1" source="1MnCZ6X67kEB5upLMirH-55" target="1MnCZ6X67kEB5upLMirH-52" edge="1">
          <mxGeometry relative="1" as="geometry">
            <mxPoint x="177" y="-162.5" as="sourcePoint" />
            <mxPoint x="235" y="-115.5" as="targetPoint" />
          </mxGeometry>
        </mxCell>
        <mxCell id="1MnCZ6X67kEB5upLMirH-60" value="" style="endArrow=none;html=1;rounded=0;" parent="1" source="1MnCZ6X67kEB5upLMirH-56" target="1MnCZ6X67kEB5upLMirH-52" edge="1">
          <mxGeometry relative="1" as="geometry">
            <mxPoint x="225" y="-167.5" as="sourcePoint" />
            <mxPoint x="240" y="-117.5" as="targetPoint" />
          </mxGeometry>
        </mxCell>
        <mxCell id="1MnCZ6X67kEB5upLMirH-71" value="&lt;b&gt;Age&lt;/b&gt;" style="ellipse;whiteSpace=wrap;html=1;align=center;dashed=1;fillColor=#f8cecc;strokeColor=#b85450;" parent="1" vertex="1">
          <mxGeometry x="-290" y="-116.69" width="80" height="30" as="geometry" />
        </mxCell>
        <mxCell id="1MnCZ6X67kEB5upLMirH-75" value="&lt;h2&gt;&lt;b&gt;Contract&lt;/b&gt;&lt;/h2&gt;" style="whiteSpace=wrap;html=1;align=center;fillColor=#dae8fc;strokeColor=#6c8ebf;" parent="1" vertex="1">
          <mxGeometry x="-1005" y="-23.310000000000002" width="100" height="40" as="geometry" />
        </mxCell>
        <mxCell id="1MnCZ6X67kEB5upLMirH-76" value="&lt;u&gt;&lt;b&gt;Contract_ID&lt;/b&gt;&lt;/u&gt;" style="ellipse;whiteSpace=wrap;html=1;align=center;fillColor=#fff2cc;strokeColor=#d6b656;" parent="1" vertex="1">
          <mxGeometry x="-1090" y="-118.31" width="70" height="30" as="geometry" />
        </mxCell>
        <mxCell id="1MnCZ6X67kEB5upLMirH-77" value="&lt;b&gt;Type&lt;/b&gt;" style="ellipse;whiteSpace=wrap;html=1;align=center;fillColor=#fff2cc;strokeColor=#d6b656;" parent="1" vertex="1">
          <mxGeometry x="-990" y="-132.5" width="60" height="30" as="geometry" />
        </mxCell>
        <mxCell id="1MnCZ6X67kEB5upLMirH-78" value="&lt;b&gt;ST_Date&lt;/b&gt;" style="ellipse;whiteSpace=wrap;html=1;align=center;fillColor=#fff2cc;strokeColor=#d6b656;" parent="1" vertex="1">
          <mxGeometry x="-905" y="-118.31" width="70" height="30" as="geometry" />
        </mxCell>
        <mxCell id="1MnCZ6X67kEB5upLMirH-79" value="" style="endArrow=none;html=1;rounded=0;" parent="1" source="1MnCZ6X67kEB5upLMirH-76" target="1MnCZ6X67kEB5upLMirH-75" edge="1">
          <mxGeometry relative="1" as="geometry">
            <mxPoint x="-1075" y="-83.31" as="sourcePoint" />
            <mxPoint x="-963" y="-52.31" as="targetPoint" />
          </mxGeometry>
        </mxCell>
        <mxCell id="1MnCZ6X67kEB5upLMirH-80" value="" style="endArrow=none;html=1;rounded=0;" parent="1" source="1MnCZ6X67kEB5upLMirH-77" target="1MnCZ6X67kEB5upLMirH-75" edge="1">
          <mxGeometry relative="1" as="geometry">
            <mxPoint x="-983" y="-88.31" as="sourcePoint" />
            <mxPoint x="-925" y="-41.31" as="targetPoint" />
          </mxGeometry>
        </mxCell>
        <mxCell id="1MnCZ6X67kEB5upLMirH-81" value="" style="endArrow=none;html=1;rounded=0;" parent="1" source="1MnCZ6X67kEB5upLMirH-78" target="1MnCZ6X67kEB5upLMirH-75" edge="1">
          <mxGeometry relative="1" as="geometry">
            <mxPoint x="-935" y="-93.31" as="sourcePoint" />
            <mxPoint x="-920" y="-43.31" as="targetPoint" />
          </mxGeometry>
        </mxCell>
        <mxCell id="1MnCZ6X67kEB5upLMirH-82" value="&lt;h2&gt;&lt;b&gt;Project&lt;/b&gt;&lt;/h2&gt;" style="whiteSpace=wrap;html=1;align=center;fillColor=#dae8fc;strokeColor=#6c8ebf;" parent="1" vertex="1">
          <mxGeometry x="155" y="202.5" width="100" height="40" as="geometry" />
        </mxCell>
        <mxCell id="1MnCZ6X67kEB5upLMirH-83" value="&lt;u&gt;&lt;b&gt;PNO&lt;/b&gt;&lt;/u&gt;" style="ellipse;whiteSpace=wrap;html=1;align=center;fillColor=#fff2cc;strokeColor=#d6b656;" parent="1" vertex="1">
          <mxGeometry x="120" y="332.5" width="60" height="30" as="geometry" />
        </mxCell>
        <mxCell id="1MnCZ6X67kEB5upLMirH-84" value="&lt;b&gt;PName&lt;/b&gt;" style="ellipse;whiteSpace=wrap;html=1;align=center;fillColor=#fff2cc;strokeColor=#d6b656;" parent="1" vertex="1">
          <mxGeometry x="230" y="332.5" width="70" height="30" as="geometry" />
        </mxCell>
        <mxCell id="1MnCZ6X67kEB5upLMirH-86" value="" style="endArrow=none;html=1;rounded=0;" parent="1" source="1MnCZ6X67kEB5upLMirH-83" target="1MnCZ6X67kEB5upLMirH-82" edge="1">
          <mxGeometry relative="1" as="geometry">
            <mxPoint x="177" y="137.5" as="sourcePoint" />
            <mxPoint x="235" y="184.5" as="targetPoint" />
          </mxGeometry>
        </mxCell>
        <mxCell id="1MnCZ6X67kEB5upLMirH-87" value="" style="endArrow=none;html=1;rounded=0;" parent="1" source="1MnCZ6X67kEB5upLMirH-84" target="1MnCZ6X67kEB5upLMirH-82" edge="1">
          <mxGeometry relative="1" as="geometry">
            <mxPoint x="225" y="132.5" as="sourcePoint" />
            <mxPoint x="240" y="182.5" as="targetPoint" />
          </mxGeometry>
        </mxCell>
        <mxCell id="1MnCZ6X67kEB5upLMirH-91" value="&lt;h2&gt;&lt;b&gt;Skill&lt;/b&gt;&lt;/h2&gt;" style="whiteSpace=wrap;html=1;align=center;fillColor=#dae8fc;strokeColor=#6c8ebf;" parent="1" vertex="1">
          <mxGeometry x="-325" y="457.5" width="100" height="40" as="geometry" />
        </mxCell>
        <mxCell id="1MnCZ6X67kEB5upLMirH-92" value="&lt;u&gt;&lt;b&gt;SID&lt;/b&gt;&lt;/u&gt;" style="ellipse;whiteSpace=wrap;html=1;align=center;fillColor=#fff2cc;strokeColor=#d6b656;" parent="1" vertex="1">
          <mxGeometry x="-360" y="587.5" width="60" height="30" as="geometry" />
        </mxCell>
        <mxCell id="1MnCZ6X67kEB5upLMirH-93" value="&lt;b&gt;SName&lt;/b&gt;" style="ellipse;whiteSpace=wrap;html=1;align=center;fillColor=#fff2cc;strokeColor=#d6b656;" parent="1" vertex="1">
          <mxGeometry x="-250" y="587.5" width="70" height="30" as="geometry" />
        </mxCell>
        <mxCell id="1MnCZ6X67kEB5upLMirH-94" value="" style="endArrow=none;html=1;rounded=0;" parent="1" source="1MnCZ6X67kEB5upLMirH-92" target="1MnCZ6X67kEB5upLMirH-91" edge="1">
          <mxGeometry relative="1" as="geometry">
            <mxPoint x="-303" y="392.5" as="sourcePoint" />
            <mxPoint x="-245" y="439.5" as="targetPoint" />
          </mxGeometry>
        </mxCell>
        <mxCell id="1MnCZ6X67kEB5upLMirH-95" value="" style="endArrow=none;html=1;rounded=0;" parent="1" source="1MnCZ6X67kEB5upLMirH-93" target="1MnCZ6X67kEB5upLMirH-91" edge="1">
          <mxGeometry relative="1" as="geometry">
            <mxPoint x="-255" y="387.5" as="sourcePoint" />
            <mxPoint x="-240" y="437.5" as="targetPoint" />
          </mxGeometry>
        </mxCell>
        <mxCell id="1MnCZ6X67kEB5upLMirH-97" value="&lt;b&gt;Name&lt;/b&gt;" style="ellipse;whiteSpace=wrap;html=1;align=center;fillColor=#fff2cc;strokeColor=#d6b656;" parent="1" vertex="1">
          <mxGeometry x="-780" y="462.5" width="60" height="30" as="geometry" />
        </mxCell>
        <mxCell id="1MnCZ6X67kEB5upLMirH-98" value="&lt;b&gt;Relation&lt;/b&gt;" style="ellipse;whiteSpace=wrap;html=1;align=center;fillColor=#fff2cc;strokeColor=#d6b656;" parent="1" vertex="1">
          <mxGeometry x="-670" y="462.5" width="70" height="30" as="geometry" />
        </mxCell>
        <mxCell id="1MnCZ6X67kEB5upLMirH-99" value="" style="endArrow=none;html=1;rounded=0;" parent="1" source="1MnCZ6X67kEB5upLMirH-97" target="1MnCZ6X67kEB5upLMirH-108" edge="1">
          <mxGeometry relative="1" as="geometry">
            <mxPoint x="-723" y="267.5" as="sourcePoint" />
            <mxPoint x="-703.7999999999997" y="372.5" as="targetPoint" />
          </mxGeometry>
        </mxCell>
        <mxCell id="1MnCZ6X67kEB5upLMirH-100" value="" style="endArrow=none;html=1;rounded=0;" parent="1" source="1MnCZ6X67kEB5upLMirH-98" target="1MnCZ6X67kEB5upLMirH-108" edge="1">
          <mxGeometry relative="1" as="geometry">
            <mxPoint x="-675" y="262.5" as="sourcePoint" />
            <mxPoint x="-685.3999999999996" y="372.5" as="targetPoint" />
          </mxGeometry>
        </mxCell>
        <mxCell id="1MnCZ6X67kEB5upLMirH-101" value="&lt;h2&gt;&lt;b&gt;Car&lt;/b&gt;&lt;/h2&gt;" style="whiteSpace=wrap;html=1;align=center;fillColor=#dae8fc;strokeColor=#6c8ebf;" parent="1" vertex="1">
          <mxGeometry x="-1110" y="282.5" width="100" height="40" as="geometry" />
        </mxCell>
        <mxCell id="1MnCZ6X67kEB5upLMirH-102" value="&lt;b&gt;MOD&lt;/b&gt;" style="ellipse;whiteSpace=wrap;html=1;align=center;fillColor=#fff2cc;strokeColor=#d6b656;" parent="1" vertex="1">
          <mxGeometry x="-1090" y="412.5" width="60" height="30" as="geometry" />
        </mxCell>
        <mxCell id="1MnCZ6X67kEB5upLMirH-103" value="&lt;b&gt;Color&lt;/b&gt;" style="ellipse;whiteSpace=wrap;html=1;align=center;fillColor=#fff2cc;strokeColor=#d6b656;" parent="1" vertex="1">
          <mxGeometry x="-1020" y="402.5" width="70" height="30" as="geometry" />
        </mxCell>
        <mxCell id="1MnCZ6X67kEB5upLMirH-104" value="" style="endArrow=none;html=1;rounded=0;" parent="1" source="1MnCZ6X67kEB5upLMirH-102" target="1MnCZ6X67kEB5upLMirH-101" edge="1">
          <mxGeometry relative="1" as="geometry">
            <mxPoint x="-1088" y="217.5" as="sourcePoint" />
            <mxPoint x="-1030" y="264.5" as="targetPoint" />
          </mxGeometry>
        </mxCell>
        <mxCell id="1MnCZ6X67kEB5upLMirH-105" value="" style="endArrow=none;html=1;rounded=0;" parent="1" source="1MnCZ6X67kEB5upLMirH-103" target="1MnCZ6X67kEB5upLMirH-101" edge="1">
          <mxGeometry relative="1" as="geometry">
            <mxPoint x="-1040" y="212.5" as="sourcePoint" />
            <mxPoint x="-1025" y="262.5" as="targetPoint" />
          </mxGeometry>
        </mxCell>
        <mxCell id="1MnCZ6X67kEB5upLMirH-106" value="&lt;u&gt;&lt;b&gt;PlateNO&lt;/b&gt;&lt;/u&gt;" style="ellipse;whiteSpace=wrap;html=1;align=center;fillColor=#fff2cc;strokeColor=#d6b656;" parent="1" vertex="1">
          <mxGeometry x="-1170" y="402.5" width="60" height="30" as="geometry" />
        </mxCell>
        <mxCell id="1MnCZ6X67kEB5upLMirH-107" value="" style="endArrow=none;html=1;rounded=0;" parent="1" source="1MnCZ6X67kEB5upLMirH-106" target="1MnCZ6X67kEB5upLMirH-101" edge="1">
          <mxGeometry relative="1" as="geometry">
            <mxPoint x="-1050" y="422.5" as="sourcePoint" />
            <mxPoint x="-1050" y="332.5" as="targetPoint" />
          </mxGeometry>
        </mxCell>
        <mxCell id="1MnCZ6X67kEB5upLMirH-108" value="&lt;h2&gt;&lt;b style=&quot;border-color: var(--border-color);&quot;&gt;Dependent&lt;/b&gt;&lt;/h2&gt;" style="shape=ext;margin=3;double=1;whiteSpace=wrap;html=1;align=center;fillColor=#dae8fc;strokeColor=#6c8ebf;" parent="1" vertex="1">
          <mxGeometry x="-750" y="332.5" width="120" height="40" as="geometry" />
        </mxCell>
        <mxCell id="SBSLWxS_4tt8wM4v_syr-1" value="&lt;h2&gt;Work&lt;/h2&gt;" style="shape=rhombus;perimeter=rhombusPerimeter;whiteSpace=wrap;html=1;align=center;fillColor=#d80073;fontColor=#ffffff;strokeColor=#A50040;" parent="1" vertex="1">
          <mxGeometry x="-100" y="-116.69" width="100" height="80.81" as="geometry" />
        </mxCell>
        <mxCell id="SBSLWxS_4tt8wM4v_syr-4" value="&lt;h2&gt;Manage&lt;/h2&gt;" style="shape=rhombus;perimeter=rhombusPerimeter;whiteSpace=wrap;html=1;align=center;fillColor=#d80073;fontColor=#ffffff;strokeColor=#A50040;direction=west;" parent="1" vertex="1">
          <mxGeometry x="-60" y="2.5" width="90" height="80" as="geometry" />
        </mxCell>
        <mxCell id="SBSLWxS_4tt8wM4v_syr-9" value="&lt;h2&gt;Work on&lt;/h2&gt;" style="shape=rhombus;perimeter=rhombusPerimeter;whiteSpace=wrap;html=1;align=center;fillColor=#d80073;fontColor=#ffffff;strokeColor=#A50040;direction=west;" parent="1" vertex="1">
          <mxGeometry x="-210" y="67.5" width="105" height="80" as="geometry" />
        </mxCell>
        <mxCell id="SBSLWxS_4tt8wM4v_syr-12" value="&lt;h2 style=&quot;line-height: 50%;&quot;&gt;&lt;font style=&quot;font-size: 18px;&quot;&gt;Skilled&lt;/font&gt;&lt;/h2&gt;&lt;h2 style=&quot;line-height: 50%;&quot;&gt;&lt;font style=&quot;font-size: 18px;&quot;&gt;Use&lt;/font&gt;&lt;/h2&gt;" style="shape=rhombus;perimeter=rhombusPerimeter;whiteSpace=wrap;html=1;align=center;fillColor=#d80073;fontColor=#ffffff;strokeColor=#A50040;direction=west;" parent="1" vertex="1">
          <mxGeometry x="-340" y="282.5" width="120" height="100" as="geometry" />
        </mxCell>
        <mxCell id="SBSLWxS_4tt8wM4v_syr-16" value="&lt;h2&gt;Sup&lt;/h2&gt;" style="shape=rhombus;perimeter=rhombusPerimeter;whiteSpace=wrap;html=1;align=center;fillColor=#d80073;fontColor=#ffffff;strokeColor=#A50040;direction=west;" parent="1" vertex="1">
          <mxGeometry x="-450" y="72.5" width="77.5" height="70" as="geometry" />
        </mxCell>
        <mxCell id="SBSLWxS_4tt8wM4v_syr-22" value="&lt;h2&gt;Has&lt;/h2&gt;" style="shape=rhombus;perimeter=rhombusPerimeter;whiteSpace=wrap;html=1;align=center;fillColor=#d80073;fontColor=#ffffff;strokeColor=#A50040;direction=west;" parent="1" vertex="1">
          <mxGeometry x="-767.5" y="-53.31" width="77.5" height="70" as="geometry" />
        </mxCell>
        <mxCell id="SBSLWxS_4tt8wM4v_syr-25" value="&lt;h2&gt;Own&lt;/h2&gt;" style="shape=rhombus;perimeter=rhombusPerimeter;whiteSpace=wrap;html=1;align=center;fillColor=#d80073;fontColor=#ffffff;strokeColor=#A50040;direction=west;" parent="1" vertex="1">
          <mxGeometry x="-950" y="112.5" width="77.5" height="70" as="geometry" />
        </mxCell>
        <mxCell id="SBSLWxS_4tt8wM4v_syr-32" value="" style="endArrow=none;html=1;rounded=0;exitX=1;exitY=0.5;exitDx=0;exitDy=0;fillColor=#e51400;strokeColor=#B20000;" parent="1" source="SBSLWxS_4tt8wM4v_syr-1" target="1MnCZ6X67kEB5upLMirH-52" edge="1">
          <mxGeometry relative="1" as="geometry">
            <mxPoint x="-10" y="12.5" as="sourcePoint" />
            <mxPoint x="150" y="12.5" as="targetPoint" />
          </mxGeometry>
        </mxCell>
        <mxCell id="SBSLWxS_4tt8wM4v_syr-33" value="&lt;h2&gt;1&lt;/h2&gt;" style="resizable=0;html=1;whiteSpace=wrap;align=right;verticalAlign=bottom;" parent="SBSLWxS_4tt8wM4v_syr-32" connectable="0" vertex="1">
          <mxGeometry x="1" relative="1" as="geometry">
            <mxPoint x="-5" y="10" as="offset" />
          </mxGeometry>
        </mxCell>
        <mxCell id="SBSLWxS_4tt8wM4v_syr-83" value="&lt;h2&gt;1&lt;/h2&gt;" style="resizable=0;html=1;whiteSpace=wrap;align=right;verticalAlign=bottom;" parent="SBSLWxS_4tt8wM4v_syr-32" connectable="0" vertex="1">
          <mxGeometry x="1" relative="1" as="geometry">
            <mxPoint x="-5" y="60" as="offset" />
          </mxGeometry>
        </mxCell>
        <mxCell id="SBSLWxS_4tt8wM4v_syr-36" value="" style="endArrow=none;html=1;rounded=0;exitX=1;exitY=0.5;exitDx=0;exitDy=0;entryX=1;entryY=1;entryDx=0;entryDy=0;fillColor=#e51400;strokeColor=#B20000;" parent="1" source="SBSLWxS_4tt8wM4v_syr-4" target="1MnCZ6X67kEB5upLMirH-1" edge="1">
          <mxGeometry relative="1" as="geometry">
            <mxPoint x="40" y="52.5" as="sourcePoint" />
            <mxPoint x="207" y="-43.5" as="targetPoint" />
          </mxGeometry>
        </mxCell>
        <mxCell id="SBSLWxS_4tt8wM4v_syr-37" value="&lt;h2&gt;1&lt;/h2&gt;" style="resizable=0;html=1;whiteSpace=wrap;align=right;verticalAlign=bottom;" parent="SBSLWxS_4tt8wM4v_syr-36" connectable="0" vertex="1">
          <mxGeometry x="1" relative="1" as="geometry">
            <mxPoint x="35" y="20" as="offset" />
          </mxGeometry>
        </mxCell>
        <mxCell id="SBSLWxS_4tt8wM4v_syr-41" value="" style="endArrow=none;html=1;rounded=0;exitX=0;exitY=0.5;exitDx=0;exitDy=0;entryX=0;entryY=0.25;entryDx=0;entryDy=0;fillColor=#e51400;strokeColor=#B20000;" parent="1" source="SBSLWxS_4tt8wM4v_syr-9" edge="1">
          <mxGeometry relative="1" as="geometry">
            <mxPoint x="-74.98000000000002" y="132.5" as="sourcePoint" />
            <mxPoint x="155.01999999999998" y="212.5" as="targetPoint" />
          </mxGeometry>
        </mxCell>
        <mxCell id="SBSLWxS_4tt8wM4v_syr-42" value="&lt;h2&gt;N&lt;/h2&gt;" style="resizable=0;html=1;whiteSpace=wrap;align=right;verticalAlign=bottom;" parent="SBSLWxS_4tt8wM4v_syr-41" connectable="0" vertex="1">
          <mxGeometry x="1" relative="1" as="geometry">
            <mxPoint x="-5" y="10" as="offset" />
          </mxGeometry>
        </mxCell>
        <mxCell id="SBSLWxS_4tt8wM4v_syr-44" value="" style="endArrow=none;html=1;rounded=0;exitX=1;exitY=0.5;exitDx=0;exitDy=0;fillColor=#e51400;strokeColor=#B20000;" parent="1" source="SBSLWxS_4tt8wM4v_syr-9" target="1MnCZ6X67kEB5upLMirH-1" edge="1">
          <mxGeometry relative="1" as="geometry">
            <mxPoint x="-64.98000000000002" y="142.5" as="sourcePoint" />
            <mxPoint x="165.01999999999998" y="222.5" as="targetPoint" />
          </mxGeometry>
        </mxCell>
        <mxCell id="SBSLWxS_4tt8wM4v_syr-45" value="&lt;h2&gt;M&lt;/h2&gt;" style="resizable=0;html=1;whiteSpace=wrap;align=right;verticalAlign=bottom;" parent="SBSLWxS_4tt8wM4v_syr-44" connectable="0" vertex="1">
          <mxGeometry x="1" relative="1" as="geometry">
            <mxPoint x="57" y="50" as="offset" />
          </mxGeometry>
        </mxCell>
        <mxCell id="SBSLWxS_4tt8wM4v_syr-69" value="&lt;h2&gt;M&lt;/h2&gt;" style="resizable=0;html=1;whiteSpace=wrap;align=right;verticalAlign=bottom;" parent="SBSLWxS_4tt8wM4v_syr-44" connectable="0" vertex="1">
          <mxGeometry x="1" relative="1" as="geometry">
            <mxPoint x="167" y="360" as="offset" />
          </mxGeometry>
        </mxCell>
        <mxCell id="SBSLWxS_4tt8wM4v_syr-70" value="&lt;h2&gt;N&lt;/h2&gt;" style="resizable=0;html=1;whiteSpace=wrap;align=right;verticalAlign=bottom;" parent="SBSLWxS_4tt8wM4v_syr-44" connectable="0" vertex="1">
          <mxGeometry x="1" relative="1" as="geometry">
            <mxPoint x="107" y="310" as="offset" />
          </mxGeometry>
        </mxCell>
        <mxCell id="SBSLWxS_4tt8wM4v_syr-72" value="&lt;h2&gt;M&lt;/h2&gt;" style="resizable=0;html=1;whiteSpace=wrap;align=right;verticalAlign=bottom;" parent="SBSLWxS_4tt8wM4v_syr-44" connectable="0" vertex="1">
          <mxGeometry x="1" relative="1" as="geometry">
            <mxPoint x="77" y="440" as="offset" />
          </mxGeometry>
        </mxCell>
        <mxCell id="SBSLWxS_4tt8wM4v_syr-73" value="&lt;h2&gt;M&lt;/h2&gt;" style="resizable=0;html=1;whiteSpace=wrap;align=right;verticalAlign=bottom;" parent="SBSLWxS_4tt8wM4v_syr-44" connectable="0" vertex="1">
          <mxGeometry x="1" relative="1" as="geometry">
            <mxPoint x="67" y="320" as="offset" />
          </mxGeometry>
        </mxCell>
        <mxCell id="SBSLWxS_4tt8wM4v_syr-74" value="&lt;h2&gt;N&lt;/h2&gt;" style="resizable=0;html=1;whiteSpace=wrap;align=right;verticalAlign=bottom;" parent="SBSLWxS_4tt8wM4v_syr-44" connectable="0" vertex="1">
          <mxGeometry x="1" relative="1" as="geometry">
            <mxPoint x="117" y="440" as="offset" />
          </mxGeometry>
        </mxCell>
        <mxCell id="SBSLWxS_4tt8wM4v_syr-75" value="&lt;h2&gt;N&lt;/h2&gt;" style="resizable=0;html=1;whiteSpace=wrap;align=right;verticalAlign=bottom;" parent="SBSLWxS_4tt8wM4v_syr-44" connectable="0" vertex="1">
          <mxGeometry x="1" relative="1" as="geometry">
            <mxPoint x="167" y="400" as="offset" />
          </mxGeometry>
        </mxCell>
        <mxCell id="SBSLWxS_4tt8wM4v_syr-80" value="&lt;h2&gt;M&lt;/h2&gt;" style="resizable=0;html=1;whiteSpace=wrap;align=right;verticalAlign=bottom;" parent="SBSLWxS_4tt8wM4v_syr-44" connectable="0" vertex="1">
          <mxGeometry x="1" relative="1" as="geometry">
            <mxPoint x="77" y="-10" as="offset" />
          </mxGeometry>
        </mxCell>
        <mxCell id="SBSLWxS_4tt8wM4v_syr-46" value="" style="endArrow=none;html=1;rounded=0;exitX=1;exitY=0.5;exitDx=0;exitDy=0;entryX=0.37;entryY=1;entryDx=0;entryDy=0;entryPerimeter=0;fillColor=#e51400;strokeColor=#B20000;" parent="1" source="SBSLWxS_4tt8wM4v_syr-16" target="1MnCZ6X67kEB5upLMirH-1" edge="1">
          <mxGeometry relative="1" as="geometry">
            <mxPoint x="-170" y="142.5" as="sourcePoint" />
            <mxPoint x="-357" y="-7.5" as="targetPoint" />
          </mxGeometry>
        </mxCell>
        <mxCell id="SBSLWxS_4tt8wM4v_syr-47" value="&lt;h2&gt;M&lt;/h2&gt;" style="resizable=0;html=1;whiteSpace=wrap;align=right;verticalAlign=bottom;" parent="SBSLWxS_4tt8wM4v_syr-46" connectable="0" vertex="1">
          <mxGeometry x="1" relative="1" as="geometry">
            <mxPoint x="-5" y="110" as="offset" />
          </mxGeometry>
        </mxCell>
        <mxCell id="SBSLWxS_4tt8wM4v_syr-50" value="" style="endArrow=none;html=1;rounded=0;exitX=0;exitY=0.5;exitDx=0;exitDy=0;fillColor=#e51400;strokeColor=#B20000;" parent="1" source="SBSLWxS_4tt8wM4v_syr-16" target="1MnCZ6X67kEB5upLMirH-1" edge="1">
          <mxGeometry relative="1" as="geometry">
            <mxPoint x="-440" y="117.5" as="sourcePoint" />
            <mxPoint x="-400" y="-7.5" as="targetPoint" />
          </mxGeometry>
        </mxCell>
        <mxCell id="SBSLWxS_4tt8wM4v_syr-51" value="&lt;h2&gt;1&lt;/h2&gt;" style="resizable=0;html=1;whiteSpace=wrap;align=right;verticalAlign=bottom;" parent="SBSLWxS_4tt8wM4v_syr-50" connectable="0" vertex="1">
          <mxGeometry x="1" relative="1" as="geometry">
            <mxPoint x="10" y="110" as="offset" />
          </mxGeometry>
        </mxCell>
        <mxCell id="SBSLWxS_4tt8wM4v_syr-54" value="" style="endArrow=none;html=1;rounded=0;exitX=0.5;exitY=0;exitDx=0;exitDy=0;fillColor=#e51400;strokeColor=#B20000;" parent="1" source="SBSLWxS_4tt8wM4v_syr-98" target="1MnCZ6X67kEB5upLMirH-1" edge="1">
          <mxGeometry relative="1" as="geometry">
            <mxPoint x="-651.25" y="112.5" as="sourcePoint" />
            <mxPoint x="-380" y="-7.5" as="targetPoint" />
          </mxGeometry>
        </mxCell>
        <mxCell id="SBSLWxS_4tt8wM4v_syr-55" value="&lt;h2&gt;1&lt;/h2&gt;" style="resizable=0;html=1;whiteSpace=wrap;align=right;verticalAlign=bottom;" parent="SBSLWxS_4tt8wM4v_syr-54" connectable="0" vertex="1">
          <mxGeometry x="1" relative="1" as="geometry">
            <mxPoint x="-63" y="60" as="offset" />
          </mxGeometry>
        </mxCell>
        <mxCell id="SBSLWxS_4tt8wM4v_syr-62" value="" style="endArrow=none;html=1;rounded=0;entryX=0.5;entryY=0;entryDx=0;entryDy=0;fillColor=#e51400;strokeColor=#B20000;" parent="1" source="1MnCZ6X67kEB5upLMirH-101" target="SBSLWxS_4tt8wM4v_syr-25" edge="1">
          <mxGeometry relative="1" as="geometry">
            <mxPoint x="-895" y="2.5" as="sourcePoint" />
            <mxPoint x="-757" y="-8.5" as="targetPoint" />
          </mxGeometry>
        </mxCell>
        <mxCell id="SBSLWxS_4tt8wM4v_syr-63" value="&lt;h2&gt;1&lt;/h2&gt;" style="resizable=0;html=1;whiteSpace=wrap;align=right;verticalAlign=bottom;" parent="SBSLWxS_4tt8wM4v_syr-62" connectable="0" vertex="1">
          <mxGeometry x="1" relative="1" as="geometry">
            <mxPoint x="-109" y="95" as="offset" />
          </mxGeometry>
        </mxCell>
        <mxCell id="SBSLWxS_4tt8wM4v_syr-64" value="" style="endArrow=none;html=1;rounded=0;entryX=0;entryY=0.75;entryDx=0;entryDy=0;exitX=0.5;exitY=1;exitDx=0;exitDy=0;fillColor=#e51400;strokeColor=#B20000;" parent="1" source="SBSLWxS_4tt8wM4v_syr-25" target="1MnCZ6X67kEB5upLMirH-1" edge="1">
          <mxGeometry relative="1" as="geometry">
            <mxPoint x="-1025" y="292.5" as="sourcePoint" />
            <mxPoint x="-901" y="192.5" as="targetPoint" />
          </mxGeometry>
        </mxCell>
        <mxCell id="SBSLWxS_4tt8wM4v_syr-65" value="&lt;h2&gt;1&lt;/h2&gt;" style="resizable=0;html=1;whiteSpace=wrap;align=right;verticalAlign=bottom;" parent="SBSLWxS_4tt8wM4v_syr-64" connectable="0" vertex="1">
          <mxGeometry x="1" relative="1" as="geometry">
            <mxPoint x="-80" y="44" as="offset" />
          </mxGeometry>
        </mxCell>
        <mxCell id="SBSLWxS_4tt8wM4v_syr-78" value="" style="shape=link;html=1;rounded=0;exitX=0;exitY=0.5;exitDx=0;exitDy=0;entryX=1;entryY=0.5;entryDx=0;entryDy=0;fillColor=#e51400;strokeColor=#B20000;" parent="1" source="SBSLWxS_4tt8wM4v_syr-1" target="1MnCZ6X67kEB5upLMirH-1" edge="1">
          <mxGeometry relative="1" as="geometry">
            <mxPoint x="-150" y="-180" as="sourcePoint" />
            <mxPoint x="10" y="-180" as="targetPoint" />
          </mxGeometry>
        </mxCell>
        <mxCell id="SBSLWxS_4tt8wM4v_syr-81" value="" style="shape=link;html=1;rounded=0;exitX=0;exitY=0.5;exitDx=0;exitDy=0;entryX=0.336;entryY=1.05;entryDx=0;entryDy=0;entryPerimeter=0;fillColor=#e51400;strokeColor=#B20000;" parent="1" source="SBSLWxS_4tt8wM4v_syr-4" target="1MnCZ6X67kEB5upLMirH-52" edge="1">
          <mxGeometry relative="1" as="geometry">
            <mxPoint x="-90" y="-66.5" as="sourcePoint" />
            <mxPoint x="-315" y="-27.5" as="targetPoint" />
          </mxGeometry>
        </mxCell>
        <mxCell id="SBSLWxS_4tt8wM4v_syr-86" value="" style="shape=link;html=1;rounded=0;fillColor=#d80073;strokeColor=#A50040;exitX=0.487;exitY=0.94;exitDx=0;exitDy=0;exitPerimeter=0;" parent="1" source="SBSLWxS_4tt8wM4v_syr-98" target="1MnCZ6X67kEB5upLMirH-108" edge="1">
          <mxGeometry relative="1" as="geometry">
            <mxPoint x="-651.25" y="182.5" as="sourcePoint" />
            <mxPoint x="-235" y="221.67000000000007" as="targetPoint" />
          </mxGeometry>
        </mxCell>
        <mxCell id="SBSLWxS_4tt8wM4v_syr-87" value="&lt;h2&gt;M&lt;/h2&gt;" style="resizable=0;html=1;whiteSpace=wrap;align=right;verticalAlign=bottom;" parent="SBSLWxS_4tt8wM4v_syr-86" connectable="0" vertex="1">
          <mxGeometry x="1" relative="1" as="geometry">
            <mxPoint y="10" as="offset" />
          </mxGeometry>
        </mxCell>
        <mxCell id="SBSLWxS_4tt8wM4v_syr-88" value="" style="shape=link;html=1;rounded=0;fillColor=#d80073;strokeColor=#A50040;exitX=0.5;exitY=0;exitDx=0;exitDy=0;" parent="1" source="SBSLWxS_4tt8wM4v_syr-12" target="1MnCZ6X67kEB5upLMirH-91" edge="1">
          <mxGeometry relative="1" as="geometry">
            <mxPoint x="30" y="192.13" as="sourcePoint" />
            <mxPoint x="190" y="192.13" as="targetPoint" />
          </mxGeometry>
        </mxCell>
        <mxCell id="SBSLWxS_4tt8wM4v_syr-90" value="" style="shape=link;html=1;rounded=0;fillColor=#d80073;strokeColor=#A50040;entryX=1;entryY=0.5;entryDx=0;entryDy=0;exitX=0.995;exitY=0.352;exitDx=0;exitDy=0;exitPerimeter=0;" parent="1" source="1MnCZ6X67kEB5upLMirH-75" target="SBSLWxS_4tt8wM4v_syr-22" edge="1">
          <mxGeometry relative="1" as="geometry">
            <mxPoint x="-905" y="-3.6100000000000136" as="sourcePoint" />
            <mxPoint x="-745" y="-3.6100000000000136" as="targetPoint" />
          </mxGeometry>
        </mxCell>
        <mxCell id="SBSLWxS_4tt8wM4v_syr-91" value="&lt;h2&gt;1&lt;/h2&gt;" style="resizable=0;html=1;whiteSpace=wrap;align=right;verticalAlign=bottom;" parent="SBSLWxS_4tt8wM4v_syr-90" connectable="0" vertex="1">
          <mxGeometry x="1" relative="1" as="geometry">
            <mxPoint x="-122" y="21" as="offset" />
          </mxGeometry>
        </mxCell>
        <mxCell id="SBSLWxS_4tt8wM4v_syr-92" value="" style="shape=link;html=1;rounded=0;fillColor=#d80073;strokeColor=#A50040;entryX=0;entryY=0.5;entryDx=0;entryDy=0;exitX=0;exitY=0.5;exitDx=0;exitDy=0;" parent="1" source="1MnCZ6X67kEB5upLMirH-1" target="SBSLWxS_4tt8wM4v_syr-22" edge="1">
          <mxGeometry relative="1" as="geometry">
            <mxPoint x="-895" y="0.5" as="sourcePoint" />
            <mxPoint x="-757" y="-8.5" as="targetPoint" />
          </mxGeometry>
        </mxCell>
        <mxCell id="SBSLWxS_4tt8wM4v_syr-93" value="&lt;h2&gt;1&lt;/h2&gt;" style="resizable=0;html=1;whiteSpace=wrap;align=right;verticalAlign=bottom;" parent="SBSLWxS_4tt8wM4v_syr-92" connectable="0" vertex="1">
          <mxGeometry x="1" relative="1" as="geometry">
            <mxPoint x="210" as="offset" />
          </mxGeometry>
        </mxCell>
        <mxCell id="SBSLWxS_4tt8wM4v_syr-94" value="" style="shape=link;html=1;rounded=0;fillColor=#d80073;strokeColor=#A50040;exitX=0;exitY=0.5;exitDx=0;exitDy=0;" parent="1" source="SBSLWxS_4tt8wM4v_syr-12" target="1MnCZ6X67kEB5upLMirH-82" edge="1">
          <mxGeometry relative="1" as="geometry">
            <mxPoint x="-170" y="272.5" as="sourcePoint" />
            <mxPoint x="30" y="262.5" as="targetPoint" />
          </mxGeometry>
        </mxCell>
        <mxCell id="SBSLWxS_4tt8wM4v_syr-97" value="" style="shape=link;html=1;rounded=0;fillColor=#d80073;strokeColor=#A50040;exitX=0.5;exitY=1;exitDx=0;exitDy=0;" parent="1" source="SBSLWxS_4tt8wM4v_syr-12" target="1MnCZ6X67kEB5upLMirH-1" edge="1">
          <mxGeometry relative="1" as="geometry">
            <mxPoint x="90" y="142.13" as="sourcePoint" />
            <mxPoint x="250" y="142.13" as="targetPoint" />
          </mxGeometry>
        </mxCell>
        <mxCell id="SBSLWxS_4tt8wM4v_syr-98" value="&lt;h2 style=&quot;border-color: var(--border-color); color: rgb(255, 255, 255);&quot;&gt;Has&lt;/h2&gt;" style="shape=rhombus;double=1;perimeter=rhombusPerimeter;whiteSpace=wrap;html=1;align=center;fillColor=#d80073;fontColor=#ffffff;strokeColor=#A50040;" parent="1" vertex="1">
          <mxGeometry x="-710" y="117.5" width="100" height="75" as="geometry" />
        </mxCell>
        <mxCell id="SBSLWxS_4tt8wM4v_syr-101" value="ST_Date" style="ellipse;whiteSpace=wrap;html=1;align=center;fillColor=#fff2cc;strokeColor=#d6b656;fontStyle=1" parent="1" vertex="1">
          <mxGeometry x="20" y="102.5" width="70" height="30" as="geometry" />
        </mxCell>
        <mxCell id="SBSLWxS_4tt8wM4v_syr-102" value="" style="endArrow=none;html=1;rounded=0;" parent="1" source="SBSLWxS_4tt8wM4v_syr-4" target="SBSLWxS_4tt8wM4v_syr-101" edge="1">
          <mxGeometry relative="1" as="geometry">
            <mxPoint x="40" y="82.5" as="sourcePoint" />
            <mxPoint x="40" y="268.5" as="targetPoint" />
          </mxGeometry>
        </mxCell>
        <mxCell id="SBSLWxS_4tt8wM4v_syr-103" value="Hours" style="ellipse;whiteSpace=wrap;html=1;align=center;fillColor=#fff2cc;strokeColor=#d6b656;fontStyle=1" parent="1" vertex="1">
          <mxGeometry x="-192.5" y="182.5" width="70" height="30" as="geometry" />
        </mxCell>
        <mxCell id="SBSLWxS_4tt8wM4v_syr-104" value="" style="endArrow=none;html=1;rounded=0;" parent="1" source="SBSLWxS_4tt8wM4v_syr-9" target="SBSLWxS_4tt8wM4v_syr-103" edge="1">
          <mxGeometry relative="1" as="geometry">
            <mxPoint x="-150" y="153.5" as="sourcePoint" />
            <mxPoint x="-113" y="192.5" as="targetPoint" />
          </mxGeometry>
        </mxCell>
        <mxCell id="YqyBSHSETuYgRKstNMbz-3" value="" style="shape=image;imageAspect=0;aspect=fixed;verticalLabelPosition=bottom;verticalAlign=top;image=data:image/png,iVBORw0KGgoAAAANSUhEUgAAAsMAAAH2CAYAAACV04HBAAAAAXNSR0IArs4c6QAAAARnQU1BAACxjwv8YQUAAAAJcEhZcwAADsMAAA7DAcdvqGQAANfdSURBVHhe7N0HfFPV38fxT9K96KLsAmXYslHZe8gq4y+iIkNUEAURBRRUEERFQIYCIhtEEWhBQZZsyt6j7LKhlE7aUrpHcp+bUToYMoqPmt/bVyX33OSOc0e+9+TkRqOoEEIIIYQQwgJpzf8KIYQQQghhcSQMCyGEEEIIiyVhWAghhBBCWCwJw0IIIYQQwmJJGBZCCCGEEBZLwrAQQgghhLBYEoaFEEIIIYTFkjAshBBCCCEsloRhIYQQQghhsSQMCyGEEEIIiyVhWAghhBBCWCwJw0IIIYQQwmJJGBZCCCGEEBZLwrAQQgghhLBYEoaFEEIIIYTFkjAshBBCCCEsloRhIYQQQghhsSQMCyGEEEIIiyVhWAghhBBCWCwJw0IIIYQQwmJJGBZCCCGEEBZLwrAQQgghhLBYEoaFEEIIIYTFkjAshBBCCCEsloRhIYQQQghhsSQMCyGEEEIIiyVhWAghhBBCWCwJw0IIIYQQwmJJGBZCCCGEEBZLwrAQQgghhLBYEoaFEEIIIYTFkjAshBBCCCEsloRhIYQQQghhsSQMCyGEEEIIiyVhWAghhBBCWCwJw0IIIYQQwmJJGBZCCCGEEBZLwrAQQgghhLBYEoaFEEIIIYTFkjAshBBCCCEsloRhIYQQQghhsSQMCyGEEEIIiyVhWAghhBBCWCwJw0IIIYQQwmJJGBZCCCGEEBZLwrAQQgghhLBYEoaFEEIIIYTFkjAshBBCCCEsloRhIYQQQghhsSQMCyGEEEIIiyVhWAghhBBCWCwJw0IIIYQQwmJJGBZCCCGEEBZLwrAQQgghhLBYEoaFEEIIIYTF0igq8+P/JN2FLYTuu8F9V1KjxaH2SxT3czIXPJhy+xQRq4+QpjcX3IO2bDPKNCmDxjz836Ej7fASLizcwK14Gxyf70LFdztS6OGqTgghhBDiH+c/H4YNlMwk0s5u4fL0n7kZozOX5rCq2Z9aI9th/5ft5GoYXDuKQ/NPclcWtilF0Xc+xKdhBewcrMyF/zG3d3Dm/e+ISczeZaxw+N9Yar1ZST5iEEIIIcS/kkVkGI2NMw7VO1Kmxb1ba3WnthAVdndIvosujKjtZ9Fr756Kxs8fnxa+/90grFISY0hLyX3tpCMj5ub9W92FEEIIIf7hLKhBT4O1sxPY2t690lmXiNp67u7W3nz057cSdbUQblW97wrVGicXrP/jtakpVo9iNVzNQyqbkhRpVkNahYUQQgjxr2VROUaj0aApUZ/CPtbmkmx6UndtJi7ZPHhPqcRv3UVayeYUq2RrLsuh0VpAVVqVosSn31Hjg7co2+MdKn87kYq1C/0H+0YLIYQQwlJYXqOeVXGKtXsO6/wJ7tZ+IvfH3/8j/9sHiTqYjOsLL+BsyU2hNl64Ne9MmZc74OXjLEFYCCGEEP9qFhjrNNg0aI+XV75VV5KJ37qd1Ht2HdaTtmcrcZrnKNakmLlMCCGEEEL821nE3SRM9KSvG8XBoCo8++2raFYM48iSC3lbgq1K4z32e8o9Y2MuMNOFETpiEBE+I6n1blXSlg3lyNKLeV5r1WAo9Yc25t5fn9ORcWkfUTsPEn/6HMlR8WSmZqFx8sSx4nMUffFVSlb1zNPKmhWykesHI+9qqdYUq433Cz6kH1jJtVU7uHUtBp21J05VG1Hy1Zcp6pP3PmcFM51MErcFEBOWv1e1FrtnO1Kimptx2ZUbewkNuoAu39M0JepS+oVn0F/aRuiydcScuU5Ghh32FetRsteblHjG5T4tzGmkHt3Ejc17iT9/jbTbaSi2TtgWLo3LM+VwcMm7nTQl6qnz8b3PNhBCCCGEuJvVaJX58X+cgu5CEDeuFqF4q+o4lbQmaetBUjPMow2URNK1fhSvXSJPk7lycSUXVqRQ5N3X8XBXo+HpzUScijOPNdF6N8S7YZm7m9ozwoia/SWn5m4jo3wnyr/zNmXb18Ux6QyxZ2+QHnGR+J27SXKuQeGK7ndCoda9JA42lwj/ZRnRJ85wO+Ss6S+1CI4Rizk9fwdJN5PQZ+lRMpLV2Zzl5o4jZJaug0dJxwKejhW2xUthFbaZK8u2En/WPI2Qc2QWb0nxKq7G52mci6jzuqzOK5Do47nmlV4WD9ZzakIgcaHx6DJ06vVBBlkxl4nbfxHrWk0p5Jqv5jKvEzlzNKd/DiIhLIYstwZUGDEKvy41UY6vI3zfiZzpZ/9lVqBkk4pY3TtZCyGEEELcxQK7SZho3BtRsnFR81A2Pen7NnMzIXfTZjq3gnaTXrk1xco8YpujPoHYeV9zbvMlshR3XBvUx8XDHiu3chR9qwsejubn6WKJ/XkG16/l6qNh5YB91bZ4Vcg7T+XKKi7uLETpkbNpsGg2VV/0zQl/aVcJn/4DEZEFPx2NvSeurZvgevd3B3No7bDzewEvn3zzuraCM4tjKTJ0Dg1mf07xUrnGJ53i+uoj5Omdor9N7PxvOL/1GjpDk7bGFa+e71LiGU+sPatSukcrHLP3XK0Hnu/NpMnK1TT5oh22FrtHCyGEEOJxWHB0sMOtXWsK5esRQeIRInfH5HQrSDpM5P4MPFs1eYgf5chLidhCaFCEaVr6G4Qv/IOk7NRn7YFt7m/iZVzi1qlb+boz2GPtkO/OF+luFB34EaWfLY6Nc3E8u79NiZK5ppMYTOjK43nDZUFNRw3WVnZ/0eyqVZ9jn+85iRrc3/6YMs8Xw6bI8xSrWzJXtwg9mRfPk5JrRsr1P7m6NTynLqzKUMgv+8pBzcZlfXFxNk9BH0fsol+IvvVXN8YTQgghhLibBYdhNVSVbEmJ513MQ9nSSdi2hWRjONOTvn8bcY6NKV7L2Tj2USjRkXl+tll/5RjxsdkFVmjyNKAqZCXeNj/ORZM3WGrKq8tcOVd/XptyeNTM3cKtLvPBncSnmgezFch08oXce7r7OZrybfGubepXbGDt4GB+ZKIkJpB5p57U+Z48SXKWedDA1hVbp1y7qsYN20K55pN0iriQ3C8QQgghhHg4Fh2G0bpTuH3Tu1p8las7iDibAbpIooPO4NC89YO7B9yHtmJdPIvltMhqS1XB1T13qDP/a6bPeohAZ/jRkDyvs8GpdIm8k7odQsLVTPPAfRTUdB6GgzM2uSZ81z2ZszLQ32kGVtCn5+7IrbK2yZvltepw7nvjKenqa6RlWAghhBCPzrLDsMqqkj/Fn8mXdPVRxGw6RMa1IKKvV6Z4i1L3aO98CM61qDhuApV796BMr0FUH9WNQjaZpJ/dxKUJPxAZmTvAqWlQUfJ1k3g4Vm7uee+brL9JamS+QPkQCmo6j0xNwjnrbYVdyeJ5lyNPWFbp1fCbkatAWwSH4nn7KQshhBBCPAyLD8NYlaBYu9p5Wi4NwTTz8HqurNxJZu02eHk8fjVpClXAq2NXynZuimPsdi59/T4HP59HnG1lCrkVUPXb2+a7g4IeXUraowfrgprOI8s7B6uarSiSO9ymx5B2M1en4owo0uJzLiS0FZpTpHz+zt9CCCGEEH9NwrBaBbb1OqjhK19VpJ4gcp81RVo/S/4fb35USuIFwmcM49CnUwkLTqZQ19HUHNQSR3vzE56UlfVdLdcam7vL/lJBTedJ2Vej7MBuuGXfbk13mRjD/YuNA5mk7tzBrTTjABqPOpQf8CLO0jAshBBCiMcgYdjA1o8Srfzuqgyt7wsUr/BkLY760E2c/eQzLmy+QKbOGse2Q6j8cmUKtB0zK5M8PWY1Tti65/2S2kMpqOkUAGu/V6k2YSQ+TZ/B1iaTpJVfc2z8D5ybNJzgBUfJ0rrg1KAHVcZ9QonS0ioshBBCiMcjYdjICscW7fF0zdUGqnHGo1Vz7J+kxTH5GJe+nUVMhLnfbaF6lHntOWwKutZTUk33481mVRrnso/Rnl1Q0ykgWs+yuJQtiUOFepR85X94lfXAtmQtvN8dzrNzfqLW0K54FpEgLIQQQojHJ2E4mxpUSzYtYR5QFW5I8Xo5twP7S3f9qrWe9J0riQzPuUOExtuXQnl/LbkA6MmMjcsTYjXln8Xjkfs5F9R0Ckj6FW6M/4iTSyLxHPgJFV57Vb2Q6IFPt66UeqEehTwe4/YeQgghhBD5WFQYVnQ6yMy6zxfCbCjUti2udobHVjg1a4v7ffr03usWaHpd/jIdqWERebodKJHXSDLet1cNyke3Ehedp1MCSsZD3MbMcE/eXN8lgwwSL4XmrJPGBc82LXD4qxbtx5qODiXvIpvqNA/Dc/LVsF4tMz80uOs1enWieV6SSeKKqVw6HIeidcTa4W/vtSyEEEIIC2E5YTgzjJhDl9FHBhN7KcVcmJemeAtK1nED+yoUf6HsvVuF9XFqaMz1C3VmStglEvP8QIUWuyKF804jdhvnv5jA+R+/4/J5HzzL5+6CoCd131Iu/rKcmBv3D8XKzSAuL9xPmjlPKtE7iTycYBpQ52nzfC98mnj8ZYv240xHiYskLTX3mquhPjIi76/U6WJIj89bO0pczJ35GL8AF62GXPOQUXosabl/AjvzAtG7r5qek36My2MmcuHXxVxdupgrixdx5Vf1b2kAoWs2EHXoLKmmX0gRQgghhHhkVqNV5sf/SboLm7j62x+E/vwLEYYQrIsjYddO4i9dIzlCj4Ofd64+vHY4uN8mIa02Pi3LktMoqifj1HqurdtCxO+/cONE/p9NViVe5OaBc6RGXCUpyR3XMu5YlyyMLng/t29ltxorKFpXXNu8QfmOz+Nsd4OYg9dyuiakp6Cp2BbvRt7m++zqSN67kpvXc3W1eOZVnnn+PJd/2kzChWOEB64iLlYdb+WGS4veVB7QBqe7ehA86XQyub1xJufn/klCQs40DPRhZ7gVmoi1T1UcE3ZxaepMwkNu562fxKskXEzDrnIRkgPGc2FLKLo8TeaxJJ64TJbbM7h7O6sTDSXmj50kGYO3gj7+OolnT5NwWv07c4aEs+rf6ZPcOnaIm7u2cOPPXSRblcPd1yvfreGEEEIIIR5Mo6jMj8XTkBpG3C41EMdpsC1TFc9avtjd+c6Xjozze4gOvk6WlQdONerhWcE9V3N9OtETe3F2b06Ts6bq29T5shN2ydeIOxhMUkwqWo8SOFephXtJR/Oz8iuo6fxdEomZMpAzO+LMww9B647XoClUauz+l63iQgghhBDZJAz/o90/xOb/CekHK6jp/H2UW8e5Nvk7Qk/F390Kfx/aOoOo91mLgr1tnRBCCCH+0yynz7D4F8kg7cJ50jUOaO29KNSgFSU6vYR3Z/XvxRcp1bEjJVq3oki96ji65vS7VlKSjd/FE0IIIYR4WBKGxT9O1tG5nBi/iMhTibi/M5GaQwdS8a03KddL/XujN+V796Vi/4FU+mQMtaZ8RBHj7d+02JX1Kfh7OAshhBDiP02iwz+acvdtyNThR+/YUlDT+TvoyboRRrqxhVeDxuqvdtEsdd3UFSn0LN7+lWSHFkIIIcQjkezwT6aLIvVm3hCrxISTmveGDn+toKbzt9Bi1+RVSlVwUhfyNjFzvuTcH3u4FRpDZrrhfsV69Gm3Sbt2mph1Czg9Ygaxts/j88lgihd/kp8LFEIIIYQlki/Q/UNlnV3DpaVriD4Zqca/3Kyxq9QIz2q1KfFqY5z+Iv8V1HT+dplx3N4XRPSRkyRevUFa7C0yU9PVMGyFxs4JW8+iOJZ9BtdnG1CkQTUc7vMDKUIIIYQQDyJhWAghhBBCWCzpJiGEEEIIISyWhGEhhBBCCGGxJAwLIYQQQgiLJWFYCCGEEEJYLAnDQgghhBDCYkkYFkIIIYQQFkvCsBBCCCGEsFgShoUQQgghhMWSMCyEEEIIISyWhGEhhBBCCGGxJAwLIYQQQgiLJWFYCCGEEEJYLAnDQgghhBDCYkkYFkIIIYQQFkvCsBBCCCGEsFgShoUQQgghhMWSMCyEEEIIISyWhGEhhBBCCGGxNIrK/Fg8Mj2RIWfZFhzKiah09A+oSeuSVRnapQLuf8vlh7pcJw+xaEcEMVnqRrYrSY+3a1PdxjxaCCGEEEIYScvwE9FSzK8K3Tt4k7zvGMs2HWXZ1puU79qJCYM68fXbLXizvhfp506x/GAUSX/bZYe6XNWqUzH+tHGZArdcJlRnHiWEEEIIIe6QMFwQ7JzwcDQ/vkOLnXMhKtdtyHefNaOWvbn4b2ODayFb2cBCCCGEEA8gWekpSg85z54EPValqtO5uj0ajXmEyEdHbOgN82NhqdKuH2DX6QTzkHhU+thgNu68TJp5WIgHS+P6gV3IISeE9BkuGJlX+OLdhfwcqValVWk+m9Obd4srnFyygSMt2/Fm0VzXHLp4dq07zoH4LHVAg2fVZ2medYoZ6y9wOc2JGi80Y8gLXiQc28+Pa89xNtGWys2aMcy/FIV0t9i74Tj7YjNRFA0O5avQziaEGesuE4Y7Ddo1pm/9wjgYZ5RF0NTv6bMxEb1DFaYv7kqH7Nbp5EhWr9zHuiuZ2NtocC5bmdc7VMLPWYv+1lUC1l0iPMu8W9g48Vyz2rQomsieDSfYH5uFbbGKDGxd2jQ+LZbNq/ew5nIaGZnW+LVowrsNs5fBIIOr+/cze0ckSZk6bH1q8F6XypTPXhZ9DDtmz+dqrXd4o7aHudBMH832ycOZG+JIUed0YhN0ZLk34JtJvSlrpSd6+2SGzw3Bsagz6bEJ6LLUOvj6c+qeDWDWpEn8ltiJBeu/p52Xqf514QdYNmsMY3dXYMjoD+jWxIe/brDXcX3vYmZ98xWzg0vQ/euv6FsHDs0ZyedLI6nQqiXPFbMnNeoSoanetHj7Ywb6l3uI6f4VPbdOr2fxrElM+i2RTgvW8307L9PVqy6cA8tmMWbsbioMGc0H3Zrg87d/8vAAD9xu5ufkoW7LQ3PU9RjMpTePsP/zytzzaU/LIy/v/xNdJHvmT2Hh4TS8irtiq9ab4uRGUmopPv+iK9Zr36f59DIsWDuU6tbm1xSYZC5tD2TqyM9ZGlmBVi2fo5h9KlGXQkn1bsHbHw/Ev5ztI++z6Vc3MG3aWqKcC+OkTyY6Sk/1N4ep55Cij9BSk8zFbYv49tPR/JH2Gkv3TeEFJ/Mos4zDo2nqP4O0diMYM/R12lX1QKuP58iib5kRlIBbCS9c7KzQKw7Y6F1o+3l/Kl/fTuBUw3EeTaWObahifYPT5/Q8++4Yvupehbs+DMz2jzhvJXExKJApI0cSeLMynVr7kXX5DHE+PRg9pg/Pu0Sr5zB1WoMv8eaR/Xxe+Ql2dN119i6exTdfzSa4RHe+/upDunpfN9fd0ztH6iL3MH/KQg6neVHc1VatdwUntyRSS33OF13dzc/6N/j/eo8ReRjCsHhCGZeVUW+NUsq0G6mU6TBXmRWuUzKjTigf9F6gzI3UmZ+UI/PKNqV9B/W57UYpNfrOUXpN2KiMHzdN8TO8vv1kpc/3gcqbEzcpk76drlQyln2njDqeaXytLmaf8lpHw2tHKn69Zyqvj9+kfD99vlKrveF5E5R+W+KVLOMzM5VtUyYoPobXvxSgrEk1FipK8lVl8odjlLIvzldmX89SdFGHlDdfGaX49VurbI03LKtOub55qVLbMD11+ap/e1pJMb1S0cXuV3q+sUxZE2dep9QbyuxPxynl31qlBN3WKTf+XKRU6zBBeWdjnHkZ0pUTvy1Qnu3wnfLZoRQlK1qd18tfKLW/OqKEGp+QqZyZ3lPptyRCnevdbgZ0Uyq9vEjJrsKk4IlK2w4TlYuG194MULpVellZlDNSmdi2gzLROFKd8vEvlOdsrJRiHWYrIaaqM8q69L3y7qgD6pI9iizl8qTGikOloco+8wvTdw5SKjo0V6aEZi95qnIh4G2linNxxf/HM484/QfIPK588ZyNYlWsgzI774oo3787SjlQYDMqOA/cbveVrAS86qHU/vq0ed/5+/zV8iZuW6AsPpur7p/QY00v86Ky8NWKSpW3litX77xUp8TtHqU0bfutcuEelVbQy204nncOqqg4NJ+i5Oz2F5SAt6sozsX9lR/PmHfGh9xnU4O/V9pWaKR8sf+2qUClC1+p9KlWRenzW9g9zwn3l6YEfVBdcS/krnSYm/+18cqq/n6Km42b8tryZFORLkJZPaCmUunVBUpI9rlRlXXjD+WdRm8rf5jL8h7nOiXsly5KMdsKygdBuV6Uzz/nvGXYXhUUh5bTFfUtSa2GTUr/CjZK8W6BSpRhODlAedWjtvL16b844hK3KQsWn1XP1g+QdVmZ1NhBqTR0351lfJrnyMyLC5VXK1ZR3lp+NWe5dHHK7lFNlbbfXnj8c8jDrOujeOjp/T++xwijh7/4Fg9HiWXNzJ9pPeB3VsXozYV5ad2ccDN3mbCtUJ/JH7Vm6FvPUdVwca5P4ER6ZSYOacWgXjWpYi47diZOvX5UX+vsQmE7wyvVYrfKjPxYfV7/l+hf1VotSGRTwH6OZZrG303H6ZXrmXU+HasSZWhQ3Apt4fI0KKsl9dohvgq8RhpaSjVvzusVDDNWSDx5nn0ppldnRd7GqUV9WhtviaHnwup1TD6eSpHnqlDfRUvRaqUpTyJbAvZxWF0GXeh+vlh0hVseFfCv4YCVR1lql4LoAzuYfyYLffgiRsxz4aXOxe7RCpRFeMh5IsKvEJZqKnGq0Z8POxc3PjcrPITzEeFcyRlJ/w87U9w8IY2dC7W696bi3o/pMWoX2Z8EaqytsdVqH6HVyUCDlZUWjZU16j8m6uO807CnQtcfmDfAky0jRxAQde9t/8g0drjU6k7vinv5uMcoduWsCNa26no82or8DR683R7EyupRW6f06LKyyMjIICvL/A1RvY6sjCyyB//aX+xnob8zaOBsQpLVeRTAl1Afb3p6IhYPZei26nz27UuUudPqq8W94WeM71qMxHyf7+WdT0HUk4mVdb6taF+Brj/MY4DnFkaOCMC42z/MPqsLYfrAUZxs8gkf13UxjVdpi3diZN8iBH7wCStjzYUPRT1GHRrQ87VibPtxNscMH7yZ6a4uZbVVSxo7WhmPY4O4VZ/w3tLSDJ3yBr65mtisSnRk7PD2uGYfvnmOcy3FmzWhEqGcPBGjbpV7+SedtwyLb6XWjJlbY/wbe3Bz9zaOG98jDPVhHHN/WaH8Pmggs0OSyXjQzqJRp6VVt4E6vzvL+LTOkfoIFg8dyrbqn/HtS2XIORzcafjZeLoWS1TfuR7Dw67rw3qk6f0/vscIo0c9tsRf0XjSsX8vVnzZlNqO9+8kbBqjoVBhVwoZtoKtDXbGQrXMy1Smscsug5TkdGMYNsh+rVMJL7wNJzOtM9XLuxo/WtZFXmFX2H0OPF0kf+6OJEN9qHF2xN0wIa0DhYx9GvRcP3DWdJK08qJr+4oUUsfr486waMdtdWwWx/Yn8lzzEtganq6LZcPeG6Sry2GdcpMdB0IIunDbOG1dzHUORmRxee9ZTqgFGqt0Lh8OYcvhG6jF6kQTOHo6hstLfmKnTwPq3PPzHmsqdenBsyFf0bJedyZsvKIGdSfa9u6Bj7qi1pW60OPZEL5qWY/uEzZyJU19X2nbmx6GkWZ2fgNZNKcLt6b0pN/S0Dv19/TY81xnf8onBrF2u/kKoiDY+TFw0Ry63JpCz35L73FnkET2T+5F90HjGDuwPfU6TOBgip744MUMa1+JeoMXMP/jrjQqXwzfHgs5sHk8fTrUonTx5xn8p+lNPSl4EWO++JpRAzvToO6rTDucZJr0I3vwdiNxP5N7dWfQuLEMbF+PDhMOcq+aStw/mV7dBzFu7EDa1+vAhIMp6GMO89PgVvjW78+EjxpSvPALDBvWFm/n8ry2IMQYHDJCf6NPw3aM23+/sJLfA5ZXE8OBjX8SfD2MfT9PZtaKtczPPX+vdsy6mkDwojF88fUoBnZuQN1Xp2GquqS7y2/nnd6cbQ+5T+pjWBOwkds1W9DSM/8p2556b/aiRtxB5n3QkopNvlSPuXzz2XKUnePaPWE9PYD9c3T2Vy+Dg9ZyZ7f/i31Wd20tqw5kUL1efZzNZSZaStarR9mYP/k9KNlc9rBsqN6vP/WvLOCHtbfMZRkcWXiICr0a4mA+l6KPYuX8Fdx8vi3tcndhM9Li2e5Fmt2zD0QGF1b9yQnHerRreb+Lu3/weUsfzdXQJGzK+VLurm409z6HxBzYyJ/B1wnb9zOT52xTt+M99utHOlU8+TlSH7OGgI23qdmiJXcfDvV4s9ezxoCccXEZoz8ayfhxn/OWvz8Dfj1LmnosHV44hNa+jflo3iTealGZYkVrMXRzbL513cKxAz8xuJUv9ftP4KOGxfFqN4tTe+4+LxmlhLB83Ggm/fgdQ/7XhJcm7OLiXXVneuqTeUrvMULC8NOhwa1yIwa3cHv4vo/qiTr7XH1HrjKd/kFvWVrcXOxNz1WSiLh5n+vizHiuRpuno17B2xm3vpbsxh5d7C3CjC0qWoo0qk17L3WKShq7/zzM2cSLrE3wpkPJ7CfHcT3GMB+F5MRkklMzSNaU5p2PXmbqx81o7qrjemSC8USuT03hpmF8qoZaXV5i6rAufFhbz749J/EsWzZX/+K8rKsOZmXQfHp57mSUfzWq+n/G7+fMJwDrqgxeGcT8Xp7sHOVPtar+fPb7uXzBSn1j7TKdJcO92TCgJxOOpDxei8EjsC5WjCIadX2jb5tLCoa2ZBemLxmO94YB9JxwhJTcK5K+l59mh1Hrg2EMn9ifysFLWH1Wj3vNLjTySiAi3JpmYwLZGfQZJVeNZ27Sa8xcu58178DCeZtIydjP+JE7KdOxE13eHs4bpXcy4pOFhD5mSnrQdkvf+xOzw2rxwbDhTOxfmeAlqzmbqxXPJJ29P80mrNYHDBs+kf6Vg1my+ix6r1p0bVSEuGvhePZfw/a13zN0/Cw+a5RJXKqDMVRZa2/h1PpzhjY091V9CPddXq0XDV/vRBWnojTo8xnvv9KBbrnnv2Y8/jcmMnJnGTp26sLbw9+g9M4RfLIwlLT94+8u/yWV+rmm916r0g93ftBf48r1TBw8vUwXzvegLVKH1+q5cTNZ3THyLfd7bWrRfPjMJ66n+7OmWLEiaNSL4ujbOTvNg/ZZXWQUMYo9Lq53H/0aTw/cSCYq8tGPIW3pngx8EVb+8AuXDSef+HUsjmrGG7n7xGZd5tyldOw8PPPUp+7GfhZ9/gqN6reg98StxqBqpL/Brnmj6Nv6eV5dV4PvNq/koyp3pck7/mnnLV3kAZbMmcaXvV/jh7gXmTz1Xcrn3/Hucw7xavg6nao4UbRBHz57rxXFDt1jv1b390c5VTzpOVJ/7QrXMx3w9Cp0/3036wST3pqK8voXfPrZGOZ934JTH/Rk3FFXar3SgMJxoVzRteGHbcdY8XoKP/+8A5c869qGZ+t2pVGROK6Fe9J/zXbWjG9H6C93n5eyDOerr/oQWKwfQwYMYeyQpiRs3c7N2nnrrvRDh4EHe1rvMZbuyc+D4j5sqFmrAsVtzIOZYfyy5op62DwdGm12bLbGwdyN4i5aa+xtTc/TaLXmN2IdWdlnMlv1tdmTcSjH6y2LqWth+H7gUX6Yd4L0mupVdPYeo8n+iF4h1dqd5s2q87/sv6a+VHW1UsdrjAFdSbfCu3au8c2q0bJsKuFRGTi6uDxwJ3St3otp209zJGAQvuem0q1lXwIjzQvsWp1e07Zz+kgAg3zPMbVbS/oGRuY7MTtRZ/gSZvpf55vug1lrDPBPj/5mHPGKI0WKuppLCo5TneEsmenP9W+6M3htTM4bpF0bfjwZyAvBs5gwZQOXsjLJyDTUggZHRwcKlfXF217d/EW8KeHsho+fN7bqflKiRGH0yYkkXtpK0A0brBPjiY9PxndAAGvH+z/RD8Tcb7vZtfmRk4EvEDxrAlM2XCIrMwPjouZhR5sfTxL4QjCzJkxhw6UsMjMyjdtVa2ePXZFq1CjrgW+9GhSzrcCbH7bj0sxp7E7J4mzAMUq90pBH/XLJA/ezXPLOvyrJ24O4YWNNYrxad8m+DAhYy3j/QlzZeq9y98c74Wo8cFd3p/SkxAeeP6wdHLHPPn7zsyqYero3PTfj4lEci1DUNe8a3m+ftSpWlMKkcfuWubtALkpKCqnqcVu0WCFzyaNwp/3At/DZN4MZ+5O5vGQ9Dq+8TPHc9WLliac7pEaFczPXJrYqWY+ubb2JCU7lmU7Ncr6Uqi1J4z5D6OqnU4ORQllfjzvbUR+xgUkfDWLQIPVvyJf8dt6QwP9Z5y2rYnXp9lYfBk3fztmjv9Kvxj2ave97DslNx6UC2K+f9Byp8XDHVT0SkhLvfzRknfqd5cGFKVfBdNFiVaEDbZ8JYd2f59UBexzsC1OtXiX1wtCGsmWKkZ6YdI8WeC129nYUqVaDsh6+1KtRBv97nZeyTrJuY8Kd/cK+6dds3TiSesaPUAve03yPsWSPsg+Lh6KQfX8Ox+eq09bDUMV6InftZXeai/Hjm4KnGFtmjWwLU8n7PpvVugTPVTClcyUzk1TDuU6v/ms+p9j5lKRKdnhXo7Jf21o0NJw39bfZdNSG1nWdcnYYKy98S5ridOqZEIJu5Zw49bduEZ6mpUKZwsYwTXooWw8l5Zzs9UmE3VSwVU8WmRn3O6HpCV8RyDZj64wrVV4Zw+ptU2iVuo4VO9LQh68g0DQS1yqvMGb1Nqa0SmXdih3qW2w+2tK8NnMJH3kso2+/AMLyn+MLjI5zGzZxvlAL2je9X3v3k9BS+rWZLPnIg2V9+xGQvSLpx5n5Wg/m2XRiyOCXqOqc886fNxvlT0qmYSVTR0bkTajejGbNTH+1y7k+5snhwdst/fhMXusxD5tOQxj8UlVyLWou6Ryf+Ro95tnQachgXqrqnLPk93i+W/tB9HYO5Ltf17HsWlVeq/YoR9mDl/cueeavoNNlYKq67LqrTTlXzX3KH/N0a1WWVi9URTm2gx3ZnUhz0cdFE2t4J/+Lezc+WT09gO4cGzadp1CL9ty92997n7Uq3Ya2Na04uX8v+T9lTzgWzGXP1upF9eMdQ9bPvsN7zaJYNOkrph7z5Y2m+cKfVTnad3gOq8OrWXklXwSytkZr6Nt85zxopnHjhbFzec96Dn0/WU9c9jnEyhE3TzVcG/88cLL9Z563NDZOuDo/4L7zDziH5Ljf/v4o+/WTnyOtyrbihaoKx3bsuNOnOoeeuOhYdOr7W5buJlGR5u2rccetkCHcGuZpWLdc62c8btT3bdNQHnlr4T7nJb1efRu9wdkzcXfe43Q3LnLpUXv5PJSn/R5juR7z7CzyylKvos0PySQlNfdhlUXYwS0MmH0Rm6KFTK2x6sGT/cmwTmc+fPTqicb0KKdM/TfnefkPVYXMxBRMn0qmcyE0QX2uBs9aNWhpPDkZTlx60wGePT9tITq8qF7lqguhj7mFsWuxTg2uceqz1HHtOtUw9UE203pVo0dDQ8utFu+GNWmc+z1Ffb5/q4p4qmcDJfEck388SoiarvWJocwLPEWEoqVEo2dprgYDlFS2/LKWwCvp6qKkcGTlLtbFFsWvogfx0TF31jG/jNDlTF943tgP2cDKrShF3P2oWklN0RmhLJ++kPM5IylaxB2/qpVMfZoNXxDKrkcDl/qMWvoDzaKOcDHf+59JEqdXzuLXfdF3Tmg5zHWp1qOSPVKdft4toid+zxj6Tw2nzdixdLurL2JeSadXMuvXfWT3Wrk/w5efdLmWyYX6o5byg/pmf8S8IhnHA5iz25k6DUpC1DUiUjLJTIsjNkFd3vy7TX7qeOuKLWhSaA3Deo1jfUgE4cFL+XbBwTv1nu1hl/n+2w2OB8xht3MdTIsaQYr6ppUWF4u6qOqyqAtj+Ms4TsCc3TjXaUBJorgWkUJmZhpxsea3PnUj5Fkt62q8+0F99g//mND6r977dmhJp1k561f23WPhH7ifqUeslTadtNQsoiKiTcfonflbU7FFEwqtGUavcesJiQgneOm3LDiov0+5YQ73mF62+y6jNc8Omsh7XmsZMXQF13JtmKwb25i/+rzpXVutu5x6ucd8HqaeHngcGHb7PDWvFsSzZ0x/poa3YezYbph2+7/eZw3LMnDyYEpumsT04FydBOJ3MvHHs7SeMI6XzbcWy/FXy5ZpOndqvek+8BXs1y0gvPnr+JpOuuq5R10m4znBmqofTmNUrdOMf/8Hjj+oz6txWxtepz52bsioOUMpvLQfAwJMfXm1RZrw9vCRjByp/o0YSDu1Uv855y3D5NR9whDWzMP55Rxy9z+HGL7YlZ6WSlZUDK5N77NfKzr17UpR61j9M0/bsC5595a/Okc+eF3usH6WQRPfw2vtCIauuJbrPJXFjW3zMRwONtU70r78KX5bfNJ0kZF5gYvxDej6Yll1wNBglW8/Ng/mrGsE0eb6VtR1MrrfeSmxFC2buLN13IfMOXiDqPMbmTx9C0l2957evRXEe8xD1p+4J6vRKvNj8cj0RIacYe2mQwQejjX93LKSzIVzkZw/f4ktu4L5ZelGxv1xketZHrTqUoeGbgkELdvN0tO3SFV39dQ0DeUqF+bm1j38ejK7DEo/4074hj0sOZOgHswKaekaylb2wc8ljvUrT3MuU4N9IQe08QlcPX+UeRsj0Jery7jBDajurBB+Yj8zVp3noqEPoZJOunURnqvsSdGSPtQqFMu+A+fUNwFb0k8dZOFxaPzmK4xr45XvY1NrvD1T2LAtDf93W9Ikz7cVDPcnLkvF9OvsPp+gnj/PsfiPA/wenEWLXs1p6WmFxrEIdcpkcuTYDW7ERbN1/T4WbrlMep2WDKrrQSnNKeas09Ll9Qb3+EheIeHEVlZtWc/mbbvZE7Se5b/sxaXfVL5oVRSrhBNsXbWF9Zu3sXtPEOuX/8Jel35M/aIVnuH7WDZvNnN2xOD1jC9+pU19t7Vu1WldK5NTUX50bFQi75VgxiEmd+vL2DUJ1O3TDp87jWY6ru9T3yhmL2aneuVvVbwCpW2v8efc2QQeucatuEguHdnFhmVzmbsxnVbfLGBS1wqmN7b7yuDQ5G70HbuGhLp9aJczs7yyQtm3bB6z5+wgxusZfP1K42ZaEaq3rkXmqSj8OjbC292O6E3TGD9rKxcoS5HorWwP86ZexXBWzFnErmhXatQpR8KWhcz77SC3PGtSu2QEf8yfz/qT6ZRq1INBXX04t3wyY778joDzPrw7ui/V8rQOPeQyP3C7lcDTLppN08Yza+sFKFuE6K3bCfNuTiPbPcybEcj+OHdqNG5Nlawgpo2fhelp6r6zPYyStctwdeUClu64hk3FutStVNTcrUfdFyt6EbYxkfZfdcPvHt2EMg5NplvfsaxJqEufdj65PqF58H5mrbXn9tEFTPn5IHaVyhH150ICcs3fpUwDGnqdY/nkMXz5XQDnfd5ldN9quN2n3NkqZ3oOdTrSoIyDqXVJdf9lVDmU44XODdFvn8yobxexYfdeDhw4xNHosrz6VlO8bp/k95kzCNgfh2fdpsYvSybdNZ+/rqf7HweG+wwvZubsQI5cu0Vc5CWO7NrAsrlz2Zjeim8WTKJrBXWvf8h9toR68NmXacbLTRTWT5nJuoPH2L9jPcuWH6Ho+7OY3KVs3vU3uO+yGe6pu1id5y8cSiqFr68fZav5kHremlc+/R+lb59i/U9z+GndcSI0XpT3q0j5UhVo/EonKoT9ztRZazkScpojuzexamsoRdr0pGfb6jhf387imXNYdkg9Zzl7U/GZypT1rU99+/V8PmQGB1PsKVGxBmXytIz+U85bhjr5lRlzAjl8OQ1Hb198K5XEJfvF+lucWjGDGYH7iXOvQePWVcgKuvsc0rJDLcqkHWXBlJ856FCHzq9144Ui+fbr3m6cDJzD7MU7ORNnRfEKfvjqT6h194jnyPuuy90cyr1A54Z6tk8exbeLNrB77wEOHDpKdNlXeaupWs/W3tRv5MXRGd+w8OBFQnYex7HXWIbU03J21UxmLN7HTY8a1CoeyaoFC9hwWkeZ+k2o53yOn4zrWovGzkf5Zc5SdlyzoWLdulQqUQz76E13nZe8W75E587qRULwL4wdNYa5e6DD8E9pW9wO+9s5ddexQZmcboh5FNB7zCPUn7gH0x3WxL9G6ill4MumewA/O+mMkpIarxw/EqJsPxOr3Mq+HeFDyLp9Uzl8+Kyy6dBV5eLtB7ww45Iy5tvdD7hHrE5JjgxTdu8PUXaevfcy6AzLeCxE2XIkVLmamOsJmceVsa06KzPv3Efx/1usEvD5GGXv33QDx9iAz5Uxf9fMCsg/dZl1YfOUQV/sVtLMw/cUG6B8PmbvP/v+nE95GR+qnv7m4+DR/JOX7f/Lf6lOZPs+Gam/x5XnIlP8+2js3aj+nC9NK3nwKF23rFw8ef55P1rVKkP5O80FBnpuhRxlWsAJzqRC+oVr6GtWM90W6560OBYtScO6vjT2u/cyaA3LWNOXls95U8Y51xOsqzPk+zacnrWOe3xX6e+lj+BAQADpbd6h7oObdQuAnogDAQSkt+Gdpz+zAvJPXGY9sQcDmbd0BfPGHaJ893rc77uj+ogDBASk0+adun/Rav//5+kt48PX0997HDyif/Ky/X/5L9WJbN8nI/X3ROTnmP9t0k4yoMdy1qVqcG3elQNDKxfQN8LNdDeZOXQ634bY0G5Yf9pfDsa5awua5ft504KUdn4jKy+Wppt/JXOJumP+xZeBCkLeXd/Qp/Dv+xELvV6vzutvmlkB+ectcxbBE9vTdUEmbUbP5buu5e/+aD2bod+kuuz/6Bp/asv4CPX0gOPAcExmHzPZx+e9hh80zuBRh3P89bI96bxyDxfktAxyDz/ptHL8vXVikHv4SV+bXW5y/3X5t9NHb2P65D/vea9ha59ODOvfBON37R9Rdn1mM3y36L9Yf38HCcP/Jvokgjeu58MfT3JND1YlazL2g6a0reL5SK3CD5bBscBf6fvrNTKKVaRX304MqfOA+zkKIYQQQvyLSRj+V8kg/mYqKdnfblVprO3w9HC4/8eejykrNY0MW3sc79s9QgghhBDi30/CsBBCCCGEsFjy6bcQQgghhLBYEobFP0tWJNcjcv2qgBBCCCHEUyTdJJ5IBgdGteSdvaWoVdaJ+BMb2Z1Shfb1SpIZeZwDDgPYu/wtvMzP/jvpo7czefhcQhyL4pweS4IuC/cG3zCpZxRftnyHvaVqUdYpnhMbd5NSpT31SmYSefwADgP2svyt+yxx8iW2B05l5OdLiazQipbPFcM+NYpLoal4t3ibjwf6U+6Jb22RyPHF09js2pPBHcoYbzovhBBCCPHUGMKweFxpStCs2cpR4x3s05TN/bwVB/95SrxhUBelLPvhF+XqfX+s4mm6qQR0q6S8vChSMf2cRZISPLGt0mHiRSUrLUiZNfuo6ab7aZuVft4Oiv884xKri7xM+eGXq8bH95W+UxlU0UFpPiXUPG1FSb0QoLxdxVkp7v+jcuYvbvaduG2BsvhspnnofmKVdYNeUb7Ym2QeFkIIIYR4OqSbxBOxo3aPHjx7r1s5aIvQ6c3OFCWLrIwMMrKyjL9lb7iXoi4rg6ysB/5Q+ZPJCifkfAThV8JINRY4UaP/h3Qurm5uu9r06PHsPe8+oS3SiTc7FzcP3Y8V1vn2GvsKXflh3gA8t4xkRECUufRuWaG/M2jgbEKS1fV/4Op70PqNSmweMZOQp1hNQgghhBAShp+Qk/P9f43CztmRW3vG0c7bmfKvLSAkQS3MCOW3Pg1pO3weE99rRkX/kcz+sAmlXV0o1fhDVprvyp0UvIgxX3zNqIGdaVD3VaYdTjKWPxTrSnRRA2/IVy2p130CG6+kqQvalt49fNQo68T9F9kOZ+fH++ka++c6418+kaC129WhRPZP7kX3QeMYO7A99TpM4GBSDAc2/knw9TD2/TyZOdtC1YuDJIIXjeGLr0cxsHMD6r46jezVtParg9/5X/j5iPQfFkIIIcTTI2H4qdJSrMlwZn7WiMy4VByc1SJrLbecWjPyq768Ud2W8EuhFOq3nsvnfqPL7bkMGLlGDcz7GT9yJ2U6dqLL28N5o/RORnyykNCH/slia6oOXknQ/F547hyFf7Wq+H/2O+dSzKOfButiFCuiIeVmNKTv5afZYdT6YBjDJ/ancvASVp9zp+HrnajiVJQGfT7jvVal0e0fz8idZejYqQtvD3+D0jtH8MnCUIyraeODT/HL7Nl1wzh5IYQQQoinQcLwU2dFhTc/pN2lmUzbnULW2QCOlXqFhvZa7OzssC5Ziya+TmqWbMVHveuScPQQuktbCbphg3ViPPHxyfgOCGDteH/cH2lruVK91zS2nz5CwCBfzk3tRsu+gUQ+dKB+RPqbxMUrOBYpCnZt+PFkIC8Ez2LClA1cysokIzP/jHVc2hrEDRtrEuPV9Uz2ZUDAWsb7u5t2So0rri56om5IGBZCCCHE0yNh+O/g1p5BvZ0J/O5X1i27RtXXqmFtHpVDS2EvD2ydXVB0OjIib0L1ZjRrZvqrXc714TeWPpwVgdtIMzx2rcIrY1azbUorUtetYIexsODpzm1g0/lCtGjfFNKPM/O1Hsyz6cSQwS9R1Tnv76ebKOh0GZhWM3s9a1Puzu9K69X/NNg6PPHtKYQQQggh7kvCcAHK0unVDGcIcflZU+3dD6i/fzgfh9bn1bI5NwzTJyWQYLy5XTrHj1+j2v86YF2xBU0KrWFYr3GsD4kgPHgp3y44SP7es0mnVzLr131E3zXDDEKXT2fh+exXWOFWtAjuflWplKdLcBamRb57ie9Pjy7fzfj08XsY038q4W3GMrZbUTKOBzBntzN1GpSEqGtEpGSSmRZHbIIGK206aalZREXEUa5FEwqtGUavcesJiQgneOm3LDhoXmZ9LLHxtlTwLW8aFkIIIYR4CiQMF4gkzm1dyPJ9MWScWsvslcF3BVRtsZd5/7XKNH3pfxTJVev6yCBmfPkNY0cNZnbGIOYMrgp2jRi9dAovxM6g27OVaDzsNPVfb4O7+TUmGRz/ZRQjPnyHb3akm8uyaXD0SGPryD70+/AjPvrgbfr8WojRPw2lenaTdNI5ti5czr6YDE6tnc3K4Oh7hPh8DPcZ/mUR269ncu63Lxg2YhQjh/ane6+JhHX4hZ2B7+CrTt+2sj9dKh1kWLMOvLc4mbJlE9n+85/ccKxJ86bpLHnvTRZdsMa+0WiWTnmB2BndeLZSY4adrs/rbcxrmXyGs7GNaN/K1TQshBBCCPEUyI9u/F30N5j/0Vz8xo+mofm+Zgk/daT0otac2TKQko95WRIXOJKZpUcyov7j3QXin+rWij68uLsna79rjuF7h0IIIYQQT4O0DD9l+tiDBM5byop54zhUvjv1ct3g13Adohj7xj4cjUaT5y/iQAAB6W14p+5/KwiTfIj5QeX5epQEYSGEEEI8XdIy/JRlBU+kfdcFZLYZzdzvulLe3E0h4+pO5nw5mHGHn2HwtLEMbO5zzx/CeBBDX1+ttmCvZ/TR25g++U/MtzvOw9qnE8P6N8HjaV5CZVxh+/JgnNv9j1pPdUZCCCGEEBKGhRBCCCGEBZOmNyGEEEIIYbEkDAshhBBCCIslYVgIIYQQQlgsCcNCCCGEEMJiSRgWQgghhBAWS8KwEEIIIYSwWBKGhRBCCCGExZIwLIQQQgghLJaEYSGEEEIIYbEkDAshhBBCCIslYVgIIYQQQlgsCcNCCCGEEMJiSRgWQgghhBAWS8KwEEIIIYSwWBKGhRBCCCGExZIwLIQQQgghLJaEYSGEEEIIYbEkDAshhBBCCIslYVgIIYQQQlgsjaIyPxaPTE9kyFm2BYdyIiod/QNq0rpkVYZ2qYD7P+nyQ5/M6YPn2Hk6jKuJerIXX6PVYmvngFexItR63pd6peyNV00ZYSHM/fMcoSkKitaNNj2a0NJTrqeEEEII8e8lYbggJJ1i4NvLWXNbrUqr0nw2pzfvFof0pCQunT7J7IVB/OncnG3jG+JtZX7NP0jKoT9o8eVRIvVgU70dQZ/7cX3LBobOP0sYTtR99RVm9CiHpzaLYwtm8vJvMeisSjBkel8+KPMPXCEhhBBCiIckzXoFwc4JD0fz4zu02DkXonLdhnz3WTNq2ZuL/4FsPVxw15gH0GDt6E79Th14/1lb0CVzIHAFE46kq+O0FHK2U58hhBBCCPHfIGH4KUoPOc+eBD1WparTubo9mn9TitQ6UMHbBWO7rz6JIyeijcX/eLpYQm8kmQf+fdLDD7LzRBx68/DTlhV5nYgM84AQQghhgSQMPzU6zh+9wIU09aG2EK++8jylDLWti2fX6u1M+nmL+reVn47EcfXAToaNns/Lnwbw9ZZIktXXhh/bw4ivF/DSsF/5/M8wbhsneYu963Yw+RfTa3/cHcnlA9v5eNQCXhu1kmn7bpJqeF4BSU7NNPcj1lCokIPxUW5Kagyrfl5Oz6EL6DP9AEdu54twyZGs/nUl7369jA/HL2dEwGlCkrKfk6Uu+16mGNdlC9+tu0JkxDmmf7+IrsMWMez3K0Tnm1xqeAgzpi3n/fFLeXdyEOvD8qY4fcwOZk5cS5TDXc306KO3M/HtHvT5YAgfvvsGb6qPBy+4qta0cSTbJ75Njz4fMOTDd3njTfXx4AVcjj3Nuh8H0tynOLU+XE/MneVRt8+BpYzqWI0Wg39i5xXDRn4ISRcJmv8+jUp44fdCHz54/w06tOjIwPlHSFDjb+yR+fRp3pT3l13+28KwtVMc2yZOYu01Y00IIYQQFkfC8FOSFX2GeVuj1ciXj5U79asrbP9tJ9MDdzJ19u98sTMNT/sUTp84w/wpS/hwyu+M2JqCh10qIafO8+uM5Uw+oU7Jyo16de04bHztDqb/9Aejt2dSqihcOnqM7775iSFbb5kC3pNKCWXrySRjKLPy9KNXMw9TeTblFn8s2MYhxZ6MsGts/fNP3p15hnjzaFKu8d2I+Xz4ezzPv9WF73v7EL5iGZ2HrmfbLcNUrSn3XEmSdu021sP0gI18suA8qTYZXDxzgWULAvlyV/KdUJh6YTe9hwQQoKnJN0P9aXZ7HwM//Z1lho7OBllnmamOd3vzdWp75N+tY1k+6D0ONvuOudO+U+t8BoP94rgYZ6qp2OWDeO9gM76bO43vps5mxmA/4i7GobhVof2A75n6RglO/Nib3vPOmbenFSXqvsqbLRvSuFsPmvg8ZB8Y5wo0f70rtZ2SKdV5DFOm/8yvn3mzoX9H+i+7iefzPXilnvvfe1C61KBH/8psHfo1+5LNZUIIIYQFkTBc0JRY1sz8mdYDfmdVTlNiHlo3J9zMXSZsK9Rn8ketGfrWc1Q19EnQJ3AivTITh7RiUK+aVDGXHTsTZwy5WmcXCtsZXqkWu1Vm5Mfq8/q/RP+q1mpBIpsC9nMs0zT+cehjr/Dr0g28/0kgS246UqV+Y6Z+05kXvfLvKnY07NaFMW+2oWdVG3VYIS7kGiHGees4vXI9s86nY1WiDA2KW6EtXJ4GZbWkXjvEV4HXMLalap3wcDY8UF+d6Uqnfu0Z+nZtahsnl8qJM9GYJhfNT7O2sS/JhcaNfHC1cqFulcIQd47pf4SSoUbm8EUjmOfyEp2L3WOXzgon5HwE4VfCzC3nTtTo/yGdixuem0V4yHkiwq8QZm5Wd6rRnw87FzcfHBrsXGrRvXdF9n7cg1G7Eoylxr7V1rZotY96CFlhbZXTX8atsT+NPW6ye9tx47C19aNOrwB4tOaNSpsZMTOkYC6khBBCiH+R/4d33v84jScd+/dixZdNqe14/07CpjEaChV2pZBhK9jaYGcsVMu8TGUau+wySElOvxNUsl/rVMLLdHcKrTPVy7sa+/fqIq+wK+zxI43G2YsGDZ7n488Hcvy3Yawb2YoOpW3NY3PROFDEQw3g6nLY2loZl0lJTSPR0K9CF8mfuyPVkGqYnqPpy3laB0w9LfRcP3CW4/kCu1WR4lRzM1SEFTaGyapS0zKM3TR0N86y8byhTVZLUtgFthw4z4mbhnVUQ/DZa1zLuMySn3bi06AO92yjta5Elx7PEvJVS+p1n8BGQ7cGp7b07uFjiKZU6tKDZ0O+omW97kzYeEUN6k607d0DH2OHaQM7/AYuYk6XW0zp2Y+loQUXGfXRVwlNsqGcbzlziVqPicHM/vBl6vuUpO5nQRjjd8ZFlo3+iJHjx/H5W/74D/iVs2l6Yg4vZEhrXxp/NI9Jb7WgcrGi1Bq62dxCn0TwojF88fUoBnZuQN1Xp3H4nt2prfGr48f5X37miPQfFkIIYWEkDD8VGtwqN2JwCzdjQH0oamA0594cucp0+nu3MptocXOxNz1XSSLipqmn7+PQ2DlTrowXZYs64/SQC3/ni4HqMhpjYmY8V7M7/FpbYWfcy7RkN3rqYm8Rdlf/kRw5kzNNIzMynnDDQyWDW7cySE7NQFO5IZOHvcz33Z/BI2kfe056Urbs3f2aTaypOnglQfN74blzFP7VquL/2e+cSzGPrTqYlUHz6eW5k1H+1ajq/xm/Z4/Mpi1Jl+lLGO69gQE9J3Ak5fHrWK0BIg8sYc60L+n92g/EvTiZqe+WN4+DWxE2tJnwGzuW9CDp55/ZkZbFiUlvMVV5nS8+/Ywx876nxakP6DnuKF61XqFB4ThCr+ho88M2jq14nRT1NUFq3s/YP56RO8vQsVMX3h7+BqV3juCThaF3up7kZuPjQ/HLe9h1o+CCvhBCCPFvIGH4qbGhZq0KFDd85G+QGcYva65guEHZ06DRZkdIaxzM3Sj+32itsbc1LY/hBzxMmVpHVnYKs1WXMXtxH4Jh3Yyrp2RiU6wi/2tW/c5fx7rFcYsLJyrDEReXB+3OrlTvNY3tp48QMMiXc1O70bJvoPHeysax1XsxbftpjgQMwvfcVLq17Etg9shsTnUYvmQm/te/ofvgtcQ8dh62oljdbrzVZxDTt5/l6K/9qJHrO3/uz1ShrLoNrYsXp3ByAgnpp/h9eTCFy1VQt67KqgId2j5DyLo/DQPYO9hTuFo9Kjmre13ZMhRLTyRJp+PS1iBu2FiTGB9PfLIvAwLWMt7/3n2SNa6uuOijuCFhWAghhIWRMFzgFLJ/xsTxueq0NX6ZS0/krr3sTnMxhZkCpxhbS41sC1PJ+/95s1qX4LkKpqsAJTOTVEOm1Kv/mq8E7HxKUiX7IuEh2HgXoZwxUWdy+MAFbt7JqHpuRiWQamOLrTou435XGvpwVgRuM/VTdq3CK2NWs21KK1LXrWBHmp7wFYFsM42kyitjWL1tCq1S17Fih7EwD23p15i55CM8lvWlX0DYPVtZH44GGydXnG0fsK3UKwCNOge9ehGQmaVT1zXS3FVGg7tbIbR2pk4hhuuEnGsLw2vUeld3Qp0ug8ibUL1ZM5oZ/2pTzvU+8zO0wmtscbCXU4IQQgjLIu98BSKLjDt9YDNJSc3dZJhF2MEtDJh9EZuihUytpGrwyO4loNOZ45ReDS+mRzll6r85z8vfDKmQmZiC6W5m6VwITVCfq8GzVg1a3i/w3Ic+U0emefJKlrouD2jx1N9ZDnXZjPNWlztLvQAwPFKX17jo2kJ0eLEGZdWV1cfcwtiFWXeL8Dj1Weq4dp1qmH+Jz/x848Psdc2erlpz5pFaLzXA1nZS107h1oGtfL4ximT1+bfO7GPGrgQ0xfyo6BFPdMz9+l5kELp8OgvPZ3eItcKtaBHc/apSyVYdG7qc6QvPG/s4G8e6FaWIux9VDSNVel1WznKqXOqPYukPzYg6cvHONssj6TQrZ/3Kvvz3hjNS11kNqtldQPIzXkjlrn9DgXV1OrYvz6nfFnPSmM8zuXAxngZdXzQ/xVT/OQxD1lRs0YRCa4bRa9x6QiLCCV76LQsO3rtTsD42lnjbCviWfzqXa0IIIcQ/ldVolfmxeGR6IkPOsHbTIQIPx5JkDDLJXDgXyfnzl9iyK5hflm5k3B8XuZ7lQasudWjolkDQst0sPX2LVDW0pKZpKFe5MDe37uHXk9llUPoZd8I37GHJmQTS1LK0dA1lK/vg5xLH+pWnOZepwb6QA9r4BK6eP8q8jRHoy9Vl3OAGVHd+yD4I+hROHzzJ738eYeO1VHVt1MVPSiHZ1gYHZ3dKu+YNRhlhZ/nxt2MEx6qhU8kk3aYYz7pcZcHKEC4butjqM9G7lqTuM654lPShVqFY9h04x/EkW9JPHWThcWj85iuMa+OFvRp9L+/fyazNN4hULyT0aZnY+HjjdmI/8w7eNNZlVpqCl68PNbxc8K1ahNSzlzgencj5g4eZvzqYvZm+fNTTl2J2xdCcmsM6bRdeb3CPbgBKAie2rmLL+s1s272HoPXL+WWvC/2mfkGrolYknNjKqi3r2bxtN3uC1rP8l7249JvKF608Cd+3jHmz57AjxotnfP0o7WZI8VrcqremVuYpovw60qhE3jlmHJpMt75jWZNQlz7tfHI+DTDcZ/jXGcwJPMzlNEe8fX2pVNLFvLxquD/1BzNnLGX/TQ+q1SpO1Nqf+WnjGXQ+jenW7xXKHJvBNwsPcjFkJ8cdezF2SD00Z1epr1nMPvU1NdTXRK5awIINp9GVqU/TTi/Tusg5lk8ew5ffBXDe511G963GvXaPxG0zmHy7HePefA6Xh9x9hBBCiP8CjWJoVhL/Hmmn+eD1QFYna/Bo+Rp7BhTnwpko4h28qOnrwSM2Cj91usRYgs/HEKc4UM7Xm/IP7Nf7F/QZhF28zrl4BffSJalZXL0YMI/KOjEO/9HuzP+tH/l7iWj+5p/+Mx5ScYGMnFmakSPqc497cfzD3GJFnxfZ3XMt3zU33+tOCCGEsBAShv9t8oXhvR9VuvftxCxOOqdnf8ySEiP4umOx/9f+P393+H5U+Q/55EOT+XRzHb4e3hg3c5kQQghhKSQM/9uknWRAj+WsS9Xg2rwrB4ZWvjsM69KJTci4d3/WXKzsHfF0NHbe/Y9I4/zGlVws3RF/w60VzP72lmGdDr1W+/8ayB9WxpXtLA92pt3/anHXD/cJIYQQFkDC8L+JPongjev58MeTXNOrYbZkTcZ+0JS2VTzzdI/ICNmE/8e7uXjv72iZaSnzvzfZ/G7Zf8HH+EIIIYQQT4eE4X+VDOJvppKiz9lkGms7PD0cyHNr4cxUom+l37lDxL1psHF0ooiz3D1ACCGEEJZLwrAQQgghhLBY0ktQCCGEEEJYLAnDQgghhBDCYkkYFkIIIYQQFkvCsBBCCCGEsFgShoUQQgghhMWSMCyEEEIIISyWhGEhhBBCCGGxJAwLIYQQQgiLJWFYCCGEEEJYLAnDQgghhBDCYkkYFkIIIYQQFkvCsBBCCCGEsFgShoUQQgghhMWSMCyEEEIIISyWhGEhhBBCCGGxJAwLIYQQQgiLJWFYCCGEEEJYLI2iMj8WjyyDy8Fn2XkyjLOxmWRXpEajwdrGlkJurpSvWI6mNYvhZWMeKYQQQggh/jEkDBcAXfguXnl3M0d16oBDFab9/CL1b0Wwc8M2xv1xlaTC5XnrnU4MbuCOreklT4GOS9uOE9XgORrYm4uEEEIIIcQDSTeJAmDl4YKHxjyg0lrb4VWqLF3e7sa09oXJir7EzHELGbYjAb35OQUt6/ohRv90ljBDIBdCCCGEEA9FwnAByZWFc3Gg3kt1qG2nPtTFs3ruZjbeLvg4rE+4xLcTtrAr4T6N/LpYQm8kmQeEECK3LCKvR5BhHhJCCEsj3SQKQlowfV9dweYs9bFDFaYv7kqH7K4Kuhh+GPIjky8YQrANjQZ8yC/tC5muQtJi2bx6D2sup5GRaY1fiya827AwDrpb7N1wnH2GfsiKBofyVWhnE8KMdZcJw50G7RrTt776PMMkwk7y1fjVLL2cjqL1pPVLVXjGxpMXXnmWmuoy6GN2MHv+VWr1aEDy5h8Y+flSIiu0ouVzxbBPjeJSaCreLd7m44H+lLO9xen1i5k1aRK/JXZiwfrvaedlul7ShR9g2awxjN1dgSGjP6BbEx/sSefqhmlMWxuFc2En9MnRROmr8+awd2lY9BGus5IvsT1wagEv2/+XZC5tD2TqyM9ZGlmBVi2fo5h9KlGXQkn1bsHbHw/Ev5w9aVd2ETj9Cz7/+QIVen7BR291wr9GkbuvTtOvsmHaNNZGOVPYSU9ydBT66m8y7N2G5K5iXeQe5k9ZyOE0L4q72qobXsHJLYnUUp/zRVd387MeLPnSdgKnjuTzpZFUaNWS54rZkxp1idBUb1q8/TED/cup9ZrMxW2L+PbT0fyR9hpL903hBSfzBMwyDo+mqf8M0tqNYMzQ12lX1QOtPp4ji75lRlACbiW8cLGzUhfRARu9C20/70/l69nzjqZSxzZUsb7B6XN6nn13DF91r4Kjedp30UezffJw5oY4UtQ5ndgEHVnuDfhmUm/KWhlGb2fy8LmEOBbFOT2WBF0W7g2+5vO6ZwmYNYlJvyXSacF6vm/nZap7XTgHls1izNjdVBgymg+6NcHnIXeme8/rGyb1jOLLlu+wt1QtyjrFc2LjblKqtKdeyUwijx/AYcBelr/lZZ5KPg9zbBTAzp54fDHTNrvSc3AHyqj1JoQQFsUQhsUTSj2mvN1xpFKmnfr3UoCyJtVcbpSurBn3jWlcu1FK9W9PKymG4tQbyuxPxynl31qlBN3WKTf+XKRU6zBBeWdjnJKljtbF7FNeM0/Tr/dM5fXxm5Tvp89XarVXy9pPUPptiVefp1MuHdyvjPl0vFLWMP0O05Uhv+1TflpzRgkxLEPmGWV6z37KkgidYY7qouxUBlV0UJpPCVVfaZJ6IUB5u4qzUtz/R+VMuqks8/gXynM2VkqxDrOVkExTmUHWpe+Vd0cdUNfIIFUJ/r6tUqHRF8r+28YClU4JX9lHqValj/JbWPYcHlKBLtv/t3Rl56CKikPzKUpozsooAW9XUZyL+ys/mlcm8+jnSnWH55UvT+ZakdxSg5Xv21ZQGn2xX8mp4nBlZZ9qSpU+vynZVZx5caHyasUqylvLryp3pqSLU3aPaqq0/faCcX96WOk7BykVHZorU3IWXLkQ8LZSxbm44v/jGXP9pilBH1RX3Au5Kx3mht3ZXibxyqr+foqbjZvy2vJkU5EuQlk9oKZS6dUFpv3SLOvGH8o7jd5W/jCX5Z23Tgn7pYtSzLaC8kFQngMqj5sB3ZRKLy9SIs0LkRQ8UWnbYaJy0bjSN5WAbpWUlxdFmpcxSQme2FbpMPGiqU4yjytfPGejWBXroMzOuzMp3787SjnwSDvTA+aVFqTMmn1UrTVV2maln7eD4j8v3vgsXdQy5Ydfrhof39dDHhv3k7htgbL47H32sVxi1w1SXvlir7rkQghhWR6h+U48Hi3ODjbmFj+FlFuJJOr1XFi9jsnHUynyXBXqu2gpWq005UlkS8A+Dmeqr3J2obChe4VK71aZkR+3YlD/l+hf1VotSGRTwH6OZWopV/t5WpW1M01f40rdtvV4s0MlfO31hC8awTyXl+hcLHszW2Gdb4vbV+jKD/MG4LllJCMCooxlGjsXanXvTcW9H9Nj1C4SjKVqubU1tlqtcV66kOkMHHWSJp98TF0X03jDuhbvNJK+RQL54JOVxJpLH07BLds/gdXdK0PXH+YxwHMLI0cEEGX4oMBKXWd1va2s7tXJRkfI9IGMOtmETz6uS04VF6fTyL4UCfyAT1aqNayPYPHQoWyr/hnfvlRGnZ6Z1p2Gn42na7HEO3c5eShW1vnq0J4KXX9g3gBPtowcQYBxwTVYOTSg52vF2PbjbI4ZPhEx011dymqrljR2NKyXaUpxqz7hvaWlGTrlDXW/NBYZWZXoyNjh7XHN7jmUZ97qvtSsCZUI5eSJmPv0tc8iPOQ8EeFXCEs1lTjV6M+HnYubppMVTsj5CMKvhGEa7USN/h/Subh5Lho7XGp1p3fFvXzcYxS7cnYmrG3VfSlvRTzYg+ZlV5sePZ7FfDjnoS3SiTfV5X2whzs27iUr9HcGDZxNSHIGWX/xfQKP1m9QafMIZobIFw+EEJblUU734rEo6puQ/k4g0aqhzU6JZcPeG6SrocI65SY7DoQQdOG2sc+eLuY6ByNMb/2miKTBqYQX3oaPLrXOVC/vqr41qs+LvMKuB31bTneZJT/txKdBnb/sMmD/XGf8yycStHa7uUR9//YbyKI5Xbg1pSf9loaq0Sw3HdfWruJARnXq1Xc2l5lpS1KvXlli/vydoGRz2RN49GWDxP2T6dV9EOPGDqR9vQ5MOJiihsZ4ghcPo32legxeMJ+PuzaifDFfeiw8wObxfehQqzTFnx/MnzGGuk8ieNEYvvh6FAM7N6Duq9M4XBBdru2fo7O/eskTtJbt6iI9kO4aa1cdIKN6Pe6u4nrUKxvDn78HoY9ZQ8DG29Rs0RLP/EezvXph1OvZnID82Ox5rrM/5RODWHtnwW2o3q8/9a8s4Ie1t8xlGRxZeIgKvRrikJ3v9VGsnL+Cm8+3pd1dXWe0eLZ7kWb37AORwYVVf3LCsR7tWprD7V2sqdSlB8+GfEXLet2ZsPEKaWoIbdu7Bz6Gg8S6El3UEBryVUvqdZ/AxitpakZtS+8ePsZjyMjOj4GL5tDl1hR69ltK6OPmwAfOywnnfF1Jctjh7Px495jJe2wksn9yL7oPGsfYge2p12ECB5NiOLDxT4Kvh7Hv58nM2aYeK0nBLBrzBV+PGkjnBnV5ddphdW83s/ajjt95fvn5iPFcJIQQlkLC8FOXRfztDHMY1lKytBcOujiuxxhKFJITk0lOzSBZU5p3PnqZqR83o7mr8cn3oMXNxd4UkpUkIm4+oM0vcR97TnpStqyhZ/FfsC5GsSIaUm5GmwsM1GXtMp0lw73ZMKAnE46k5Gph1BEZFYNi74LrXZPX4OnhBslRRBbElwUfednS2fvTbMJqfcCw4RPpXzmYJavPkqV1p2aXRnglRBBu3YwxgTsJ+qwkq8bPJem1mazdv4Z3WMi8TSlk7B/PyJ1l6NipC28Pf4PSO0fwycLQArgTiDXFihVBo14ARf9V3egiiVL3EXsXV2Pf8Dw0npiqOBL9tStcz3TA08vcD/0psS5WjCKaFG5G3zaXqFuhdE8Gvggrf/iFy4YQGb+OxVHNeKNyrk6nWZc5dykdOw9PCuVaQN2N/Sz6/BUa1W9B74lbMWRHI/0Nds0bRd/Wz/Pquhp8t3klH1W5f5y3rjqYlUHz6eW5k1H+1ajq/xm/n8sO7NZUHbySoPm98Nw5Cv9qVfH/7HfujDbTluzC9CXD8d4wgJ4TjpDygMPq/h5uXgUq97GRvpefZodR64NhDJ/Yn8rBS1h9zp2Gr3eiilNRGvT5jPdaFePQ+JHsLNORTl3eZvgbpdk54hMWhmbvizb4+BTn8p5d3HjciwIhhPgXkjD8tGVGcTa7BdfKk9aNSmCryf4IViHV2p3mzarzv+y/pr5Udb3/ZtFos5vcrHG41+euZrqb4URlOOLi8hCbWH+TuHgFxyJFzQXZnKgzfAkz/a/zTffBrDUGeAMrihUtDGm3uWX+eDqHQkqKWqi+ARfLnX4e1yMvmx1tfjxJ4AvBzJowhQ2XssjMyDQFWY0jjg6FKOvrjb266xfxLoGzmw9+3rZqdZagRGG9enGSyKWtQdywsSYxPp74ZF8GBKxlvL97ARwsem7GxaM4FqHoA7axkVUxTFV8y/yxey5KCqYqLobGwx1X9QIgKTHdPPLp0N+MI15xpEjR3Fdq7rQf+BY++2YwY38yl5esx+GVlymeu9eHus97ukNqVDg3c+V/q5L16NrWm5jgVJ7p1CznS2rakjTuM4SufjquhSvqtvK4U+/6iA1M+mgQgwapf0O+5LfzpuPKtXovpm0/zZGAQfiem0q3ln0JjMyemSvVe01j++kjBAzy5dzUbrTsG8id0WZOdYazZKY/17/pzuC16oWeufzRPNy8CkzuY8OuDT+eDOSF4FlMmLKBS1mZZGTmm7HuEluDbmBjnUi8um8n+w4gYO14/N2za1iDq6sL+qgbEoaFEBblyd/fxQOlhpwhyPhuqKVEkxb0fsZaTQJe+JY0tZ6lngkh6FbOm5b+1i3Cs1vJ7qIYW5GNbAtTydu0+TS5w4eZxsYWW9Q3xIfISLpzG9h0vhAt2jc1l+SiLc1rM5fwkccy+vYLIMy4qFaUbtOWmlYn2b83f/+BBI4FX8az9f9o+hCN0n/l0ZctneMzX6PHPBs6DRnMS1Wdzd1NDPJVVP56Mw4rZOoyiLwJ1Zs1o5nxrzbl/iq8PgzdOTZsOk+hFu0fWDf6yItcSipFm7Y1sTq5n7ur+BjBl9ULq/81xapsK16oqnBsx447/adz6ImLjr2rG8mj03FuwybOF2pB+3wLbv3sO7zXLIpFk75i6jFf3miar8+DVTnad3gOq8OrWXkl35JYW6M19M/N/+uMGjdeGDuX96zn0PeT9cRlHx5Wjrh5quHa+OeBk62e8BWBbDMeL65UeWUMq7dNoVXqOlbsUAv14awI3IZpdBVeGbOabVNakbpuBYbReWkp/dpMlnzkwbK+/Qgw7UwP75HmVTDyHBvpx5n5Wg/m2XRiyOCXqOp8j5OCokOXEclNqpv3a/Wvdjly79p6dbU1tg7YyzuDEMKCyCmvIGTquPMdIvXdJPux/vYVps47yhW9Nd712zDzvSoUMdS4thD+rSriqb5fKYnnmPzjUUJS9egTQ5kXeIqIPM1SajhLTMH0qXo6F0IT1Olr8KxVg5bGdzENjg425hyXSlxCGqe2n+KMpx8VPeKJjsn17SY1HOnyNXnp4/cwpv9UwtuMZWw3c+urXl0fXa4w4FKfUUt/oFnUES6a84x1tYFMHlySTZOmE5zro+D4nRP58WxrJox7GfOdz3IknWblrF/ZF32voFFAy5ZxnIA5u3Gu04CSRHEtIoXMzDTiYg1RUfnLFj8Fayq2aEKhNcPoNW49IRHhBC/9lgUH8/eiTOL0yln8ui/a1Oqcj/7ulWHPmP5MDW/D2LHdTLdF0yuGtVZ3mVzP1UWwbsEGIh1sqTZwMoNLbmLS9GByqjienRN/5GzrCYx72cuQRhk08T281o5g6Iprufp6ZnFj23xWn7878yedXsmsX/dx782gy1dHeuL3jKH/1HDajB1LN3O/X70uE51hO2i96T7wFezXLSC8+ev4Gq/x1H1ZnY7euJ2sqfrhNEbVOs3493/g+IP6XiuGvvWG16mPnRsyas5QCi/tx4AAU79wbZEmvD18JCNHqn8jBtKurBUZocuZvvD8nfW2citKEXc/qlYy9MPNIHT5dBaevzMWt6JFcPerinG0ofaz1PkZxxm4UH/UUn5Qw/2R7B09n/vX3V/NK1sWhmrRG1LnQ/vrYyPjeABzdjtTp0FJiLpGREommWlxxCZosNKmk5aaRVSMK02bFGLNsF6MWx9CRHgwS79dQM6urSc2Nh7bCr6Uf/KO5kII8a9hNVplfiweWQaXj59m9drD/H7uthpVVfrbnDsfxckjx1mw4hThRf14843/Ma6nH2XuvClqcC5blorp19l9PkF97zrH4j8O8HtwFi16Naelp5oosmJYv/I05zI12BdyQBufwNXzR5m3MQJ9ubqMG9yA6sbWHy0e7grH917iakoC+zefJrpyXV6vVh7rU3NYp+3C6w3c0RruV7p4JrMDj3DtVhyRl46wa8My5s7dSHqrb1gwqSsV1OXLCt3HsnmzmbMjBq9nfPEr7aa+ratzcatO61qZnIryo2OjEupc7SnT7GWaKOuZMnMdB4/tZ8f6ZSw/UpT3Z02mS9m7300zDk2mW9+xrEmoS592PmpMMivIZWtaCYfoTUwbP4utF6BskWi2bg/Du2VTHA7N58dFu4h2rUGdcglsWTiP3w7ewrNmbUpG/MH8+es5mV6KRj0+oKvPeZZPHsOX3wVw3uddRvetRp7GtoxDTO7Wl7FrEqjbpx0+OSvDpe2LmTk7kCPXbhEXeYkjuzawbO5cNqa34psFk+iqrkzalZ0snjmLpftOcfHseU7s+pPVq5bz07jP+dWpN1//T91+9mVo9nITlPVTmLnuIMf272D9suUcKfo+syZ3IbuKHcq9QOeGerZPHsW3izawe+8BDhw6SnTZV3mraVFjHeXI4NDkbvQdu4aEun1ol7PgxvsML545m8Aj17gVF8mlI7vYsGwuczem0+qbBUzqWgFb9SLgYtBiZs/5hUNJpfD19aNsNR9Sz1vzyqf/o/TtU6z/aQ4/rTtOhMaL8n4VKV+qAo1f6USFsN+ZOmstR0JOc2T3JlZtDaVIm570bFsd5+uGec9h2aHLpDt7U/GZypT1rU99+/V8PmQGB1PsKVGxBmXytNArJJzYyqot69m8bTd7gtaz/Je9uPSbyhetimKtJHBi6yq2rN/Mtt17CFq/nF/2utBv6he08gxn37J56nrsIMbrGXz9SuNm2pmo3roWmaei8OvYiBJ5LujuX3c8aF5Fzc9LOsfWRXOZ9/tRQvWF8Knki28xp7suVvJ4yGPDytWO6E3TGD9rKxcoS5HorWwP86ZlpwY4nFrAlJ8P4lCnM691e4Ei55YzecyXfBdwHp93R9O3WvanJ4lsmzGZ2+3G8eZzLg9eLiGE+A+RH934f6UnJSqCY1eT0Lt6Uf0Zj5yPLNNO88HrgaxO1uDR8jX2DCjOhTNRxDt4UdM31/PM9Ik3ORwSh6a4N8+XUsOzWpZ1Yhz+o92Z/1s/zD0q/v/FBTJyZmlGjqivBqt/uzgCR86k9MgR1P+XrUxc4Ehmlh7JiH/bgv8D/Gfr7tYK+ry4m55rv6N5vjuYCCHEf9k/JSJZKC2ORUvSsK4vjf3uDri5aezdqP6cL00r3ft5WpfC1Kn9DLXNQdjAuvoQvm9zmlnrInN9FPz/Rx9xgICAdNq8U/ffH4T1ERwICCC9zTvU/VetjJ6IAwEEpLfhnX/Xgv8D/JfrLplD84Mo//UoCcJCCIsjLcP/VGknGdBjOetSNbg278qBoZX/8n7B95bG+Y0ruVi6I+0ru5jL/j55di+9Hv0/6IcxnoyhX+wj/jDDP4Shv6r237jgD6Axf4vUsL/lfmzwpMO5PY2600dvY/rkP+95j2Nrn04M698Ej6e6uTK4sn05wc7t+F+tnLt3CCGEpZAw/E+kTyJ443o+/PEk1/RgVbImYz9oStsqng9sPRZCCCGEEI9GwvA/UgbxN1NJyXWXAY21HZ4eDvf8SVchhBBCCPF4JAwLIYQQQgiLJR+6CyGEEEIIiyVhWAghhBBCWCwJw0IIIYQQwmJJGBZCCCGEEBZLwrAQQgghhLBYEoaFEEIIIYTFkjAshBBCCCEsloRhIYQQQghhsSQMCyGEEEIIiyVhWAghhBBCWCwJw0IIIYQQwmJJGBZCCCGEEBZLwrAQQgghhLBYEoaFEEIIIYTFkjAshBBCCCEsloRhIYQQQghhsSQMCyGEEEIIiyVhWAghhBBCWCyNojI/Fo9MT+yl82w5eo3j4alkmWtSo9GgtbbBzd0d38oVaVG9MIUK+rJDF8PyaX8w+6I9/m+/xKBnneTKRgghhBDiEUl+eiJaPMv70bWjD7rDx1i26SjLtsXj91pr3mvszpXNGxk0fDotPt3K3gS9+TUFQxdxliXbrnPxykV+3nyNDHN5gdHdZOWmy6SaB4UQQggh/oskDBcEGxe8CmnMA6CxssO7el2+6loeR/TcPLWTjxZeJNk8viBYFa/B+69UpmGtZxnauTz25vKCoePiunWM33uLTHOJEEIIIcR/kYThApIThbNpcfP2oqixhhWiz1zhXEEmSytXWvZ6jcVfvUjPinbmwoKgJ/bYZj5ceIl4c0l+uthQbiSZB0QByiLyekTBt/ILIYQQ4r4kDD9FSlrGnW4GWmdH3JR4dq3ezqSft6h/W/npyG2ybofy8w+/0u2LjWyMye5KkcbZHdsY9vUS3p+wjA+m7+DPK6lqTDXLjGXbKnU6v5imM+/QLXTmUUZpsWxetpoPxi+j39crmLLnZr7uDplcO7ibkZOW8e6IBbwxYTMrLqUZyy/vWMvrY/ZxWh3U3QjhR3VZv9scZnqZugQxO2YycW0UDo7mIoOkiwTNf59GJbzwe6EPH7z/Bh1adGTg/CMk6G9xet2PDGzuQ/FaH7L+zjqq0w8/wNJRHanWYjA/7byirrVBOlc3TGTI+x8zavQXfD60P30/msmeqCfoZlKgy/c0WeMUt42Jk9ZyLc8GFUIIIcTTImH4qUnnyMErGLOV1oXWHapT1tadBjU17PxtJ9MDd7H48Dl++PJXRq8/z75DB/j9hKHpOJ1Di37m1Ql7uFa5NVM+bk39mD28P2Q+ow8mmQKxjSfNGthx2DydRUdzheG0cOZ8OZf+G+ClAS8zqlYKC8b/xKBN8ebnZHL2jyW89PVB0ht34LsXPQjZuYuPRvxOYEQ81xJtcbM1PhGNjT2e7s4UdrIxDmedncmQADfefL02Hrn3HOcKNH+9K7WdkinVeQxTpv/Mr595s6F/R/r/lkGV9gP4fuoblDjxI717z+NclullViXq8uqbLWnYuBs9mvhgr8bN41NepNU3yXQdN4mvRn/JmIk/8lXjI/Rv+Q6/33jMQFxgy/f0udToQf/KWxn69b4C7VYjhBBCiHuTMFzQ9LfZ/+cOxoxfwHt/3sajnB/9h73JpOauxsq2UsOlh7FPhULEnnPYvN2PpW9WoppvVdpUtiHr0l6+XH6DRK0HtWu6Y60tRKMaRbFKj2bxnJ0cNH+GrnW0I3fjrImeC6vXMfl4KkWeq0J9Fy1Fq5WmPIlsCdjHYTVr6yIO89WiS8Q5leGFGo44PFOG6mrKU5IiOB7hQfM2fvg5mjp9aIuU5bVO9ejVoKg66XAWjZiHy0udKXbPvcYKa6ucziJujf1p7HGT3duOG4c1di7U6t6bins/pseoXSQYS9Vya2tstVpj3ehCpjNw1EmafPIxdV1M4w27aPFOI+lbJJAPPllJrLn00T358v1dPFq/QaXNI5gZIs3DQgghxNMmYbigaRyoUKMyXXt1Y8uy4Rya3p1PmnjhYB6dQ0EpV5lulTyo92o31nz/El2KK5zZfZoQQ8ukOh0PF0N40+LqbGfsk6yLPMeG7GbLe9HFsmHvDdLVZ1un3GTHgRCCLtw29kHVxVznYEQW13af4nCqOlVDtw0r9V/Xaowe1ZmvBr3ChzWsTdO5B93lJfy004cGdR6ufVQffZXQJBvK+ZYzl4Cd30AWzenCrSk96bc0NG/XDnXo2tpVHMioTr36zuYyM21J6tUrS8yfvxNUQM2lj758qsT9TO7VnUHjxjKwfT06TDhIUnwwi4e1p1K9wSyY/zFdG5WnmG8PFh7YzPg+HahVujjPD/7T9AkBSQQvGsMXX49iYOcG1H11Gofv1ffa2o86fuf55ecj0n9YCCGEeMokDBc0jQ2FS3pRsYQbhR3UtHlfWryKe3CnAdRIR2h4Aqa4a4WtrWnzWGvNLZr6RG5EPaC1UBfH9RjDzY4VkhOTSU7NIFlTmnc+epmpHzejuauOqzfijdPXp6aTZLwvsjUlqz9LrxfKUPQBi5u4bw8nPctS9u5Un4uOyANLmDPtS3q/9gNxL05m6rvlzeMMtJTsMp0lw73ZMKAnE46kqEuaTX1tVAyKvQuud81Dg6eHGyRHEXn7MbtKGD3J8kH63p+YHVaLD4YNZ2L/ygQvWc05l5p0aeRFQkQ41s3GELgziM9KrmL83CRem7mW/WvegYXz2JQCGfvHM3JnGTp26sLbw9+g9M4RfLIwNKcv+B02+PgU5/KeXdyQxmEhhBDiqZIw/P/IxiZ/+tRgZ2ttvjOFBivz1snUZ0cya+ztcz7qv4tGi9b4GoVUa3eaN6vO/7L/mvpS1dUKG3Wihikot6MJiX7YYKnjZngUGY4uuDxwj7GiWN1uvNVnENO3n+Xor/2ocVdfDifqDF/CTP/rfNN9MGuN4d1AfW3RwpB2m1t33dxYISVFLXQqSrEn+vWSJ1k+sGvzIycDXyB41gSmbLhEVmaGum3Uand0xKFQWXy97dUjqgjeJZxx8/HD21bdYiVKUFifTGKKjktbg7hhY01ifDzxyb4MCFjLeH/3exyEGlxdXdBH3ZAwLIQQQjxlT5IsRIGzolql4ua+wDpS0w1hVU9qWqaphdKmKNXL378rA1Ze+JY0BezUMyEE3coJu/pbtwhP0+Jboajpi2C6CP7cEW1uhc5Ng+auvK3BxlZNdmr4SzeX3J/6XCdXnM2t2vekLc1rM5fwkccy+vYLIMy4mFaUbtOWmlYn2b83f9+BBI4FX8az9f9o+sCW6YfxuMsH6cdn8lqPedh0GsLgl6rinF1P+eorf/WZhnXodBlE3oTqzZrRzPhXm3Ku914OvSFk2zpgL0eoEEII8VTJW21B0GeRkZ0qFR0ZD7ifsF6nuxNAszLzN/tpKdakPp1LqJtFn0CY8XZiem7EJKr/V8c1qseLphsX35u2EP6tKuKppi8l8RyTfzxKSKoefWIo8wJPEaFoKdKoLp2M09BxetU6pp9OVh9lEXZgF3MOqSFUa4uj+bbF+sRk4pIjWLUrimJ+FfGIjybm7vRspkenKGqIywngeejVuehyjXOpz6ilP9As6ggXzdVgXW0gkweXZNOk6QSnmMoM4ndO5MezrZkw7mW8HrTHJp1m5axf2XfPFu8nXb4MjgfMYbdzHRqUhKhrEaRkZpIWF0uCLndninsxjLemYosmFFozjF7j1hMSEU7w0m9ZkP2NyDz0xMbGY1vBlwdd+wghhBDiyVmNVpkfi0emJ/7SOdZsOUzgvmhMDbGpxKVa42DnQOniTpjvUmaiu8WeFXtYfDKOFDWYJSdlUqhMSWoUs8+5KrH1pF4VB64eP8fW82k4Zlzjl9WX0T77AtM+eJ4K2b+voY9i7fKzXNZrcPOrSa9ablihwblsWSqmX2f3+QQ1sJ1j8R8H+D04ixa9mtPS0wrsPKnjZ8P54Gtcjo9n/9YDLFx/mktetXi/VVEcrRzxUsLZeDSWxOir/LY7kVod6/C8nxWn5qxD2+V1GrjnS6SG+/j+OoM5gYe5nOaIt68vlUq63FmnrNB9LJs3mzk7YvB6xhe/0oZlVXO3W3Va18rkVJQfHRuVUJ9vT5lmL9NEWc+Umes4eGw/O9YvY/mRorw/azJdyj44GWYcmky3vmNZk1CXPu181PhpViDL5427XTSbpo1n1tYLULYI0Vu3E1a4HFb7A1i6KxrXGnUol7CFhfN+4+AtT2rWLknEH/OZv/4k6aXq0+3lV2nodY7lk8fw5XcBnPd5l9F9q+W0MN+RyLYZk7ndbhxvPudyV0uzEEIIIQqORlGZH4t/El0qV8+HcTEB3EqV4tlSDsaAdkfaCd7t9hsb07X4dH6LjX3L5AreelKiIjh2NQm9qxfVn/Hgrk/jM5MIOXuDsEwHfJ4pRfk8nYH1JISFcjRCQ5lK3pRzNozL4sQ4f0a7z+e3ft454f2fJi6QkTNLM3JE/bwXIv8mt1bQ58Xd9Fz7Hc3z3VhDCCGEEAVLwvC/jC76AguDUmnob8OcvgGsuK2hSvd+rOpZLKcl9GlJP83sj5dQYsTXdMx3s2HN3R2Nn5r77bL6iAMsW3mOUq/0pNED+1P8kyVzaPKnbK7zNcMbu5nLhBBCCPG0/FsTg4XScW7jZsb9uot14eb7EGudqOLr8fSDsIFdFd6d+Aa2QRs4m+87boaA+nf93Y+2aG1efa/XvzgIZ3Bl+x+ENf2STyUICyGEEH8LaRn+l0m/vI/3vtpJZLmSpJ+KxKttR6a86cuDvlcnhBBCCCHuTcLwv5E+k4RbaeDihKuNpGAhhBBCiMclYVgIIYQQQlgsaVYUQgghhBAWS8KwEEIIIYSwWBKGhRBCCCGExZIwLIQQQgghLJaEYSGEEEIIYbEkDAshhBBCCIslYVgIIYQQQlgsCcNCCCGEEMJiSRgWQgghhBAWS8KwEEIIIYSwWBKGhRBCCCGExZIwLIQQQgghLJaEYSGEEEIIYbEkDAshhBBCCIslYVgIIYQQQlgsCcNCCCGEEMJiSRgWQgghhBAWS8KwEEIIIYSwWBpFZX4sHpue+HPH+PH3s1zTOlLISofWowwv+vuRcewy3m1qUkF/k02/H2JbVDp6RUvphs15r7bLPa9G9DfPMm7yVrbryjBwcHs6FUniwPqDrLmURIa6teyfqc3n/sWJO3mIRTsiiMlSN6RdSXq8XZvqNuaJCCGEEEKIvyQtwwUgIXgzPYZvJ7J+e2Z++hKTh77Ex8+nMu+z7+i75iYphifZFKZZdQ0HNh9l2aajbLmcxv2uQhKPHuGX49FcOHWUJQduo7cqRN1mXsTsNL12xfF41LhNsWrVqRh/2lgWuOUyoTrzBIQQQgghxEORMPykdNEs+nk/Z/QleKGeO9bGQiuK1mzKjOFNqGqlI1NvLMTK2R5njenxg7jUa8jgZuVp2KQJ/ZsUMm0kOwfcHPO/2AbXQrayEYUQQgghHpPkqCeVGcHJqzrIuMLSVWHcNhcbOFSow+vVrMkyDz8sbSEf+g17g8WfNqepxxNsIl0soTeSzAMiv6zI60RkmAeEEEIIYZEkDD8prT2uhhZbJY0Dixby4tfbWB+abh7nTNtXauNnZRq8m57rR/cz7ZetTPp5K98tD+bI1cssDTAMb2HSL9tZYwjaj0Efs4OZE9cS5eCoDkSzfeLb9OjzAUM+fJc33lQfD16AYdK663v5ZUR7KhQuSZMPFrD95Cm2L/iAxiW8qNikO/0GDWHQuz3o2O4l3pv4J5fTzDN4BPro7Ux8uwd9PhjCh+++wZvq48ELLhN7eh0/DmyOT/FafLg+Rq0NM104B5aOomO1Fgz+aSdXHmOeD8PaKY5tEyex9pr0LxFCCCEslYThJ2XrQ5fmnhi/t6ZkcHnfdvq/P42XpuznQJwOJ49CuN63lrV41/TD+fRu5u5NpnLTajxftiwvuIYzL3An0wP2sOFxOgJnnWXmkADc3nyd2h5aYpcP4r2Dzfhu7jS+mzqbGYP9iLsYh2HKVt4N6PF2C0qkuFKve0+aVatKs56vUMs5Ge8u3zJjyndMmb2Y5T90JfPnrjTqMoOzj9SaGsvyQe9xsNl3zJ32HVNnz2CwXxwX4xTcqrRnwPdTeaPECX7s3Zt558xt6FYlqPvqm7Rs2JhuPZrgY28qLnAuNejRvzJbh37NvmRzmRBCCCEsioThJ2ZL3Z5d+bKRB3bmErISObrpT7oPWMj4Q7eNofN+ssLOsCXKmw+HtaNtEUMTshYXD6eH6lt8b3rCF41gnstLdC5m2LxZhIecJyL8CmGppmc41ejPh52L39n4GisrtBorrK2yS9TH+fYM+wpd+WHeADy3jGREQJS59CFkhRNyPoLwK2GYZu9Ejf4f0rm4eQYaO1xqdad3xb183GMUuxJMxWissbbVos23HAXOozVvVNrMiJkhD9xOQgghhPhvetpRwzLYF6X7p++yYkh9GhQxfYXOQJdwjdnjlzP/Ph/DZ4SfYPiMy9T64GXeLZ/7nmiPnYTVmV5myU878WlQB1ODqjWVuvTg2ZCvaFmvOxM2XiFNDaRte/fA577dN+7N/rnO+JdPJGjtdnPJQ7CuRJcezxLyVUvqdZ/ARkOfB6e29O7ho0ZuMzs/Bi6aQ5dbU+jZb+k97oqRyP7Jveg+aBxjB7anXocJHEzREx+8mGHtK1Fv8ALmf9yVRuWL4dtjIQc2j6dPh1qULv48g/80db9ICl7EmC++ZtTAzjSo+yrTDmf3pbbGr44f53/5mSPSf1gIIYSwOBKGn1RmDCHXs9SadKDKC+1YMut9FvauQRVz066Sep2lm8LIn7NSrx3mvU9XsOxMLDGZ2ieJv3kl7mPPSU/KlnUwF6hxr+pgVgbNp5fnTkb5V6Oq/2f8fs54w7dHY12MYkU0pNyMNhc8DGuqDl5J0PxeeO4chX+1qvh/9jv5Z68t2YXpS4bjvWEAPSccISX3fefS9/LT7DD1omEYwyf2p3LwElaf1eNeswuNvBKICLem2ZhAdgZ9RslV45mb9Boz1+5nzTuwcN4mUjL2M37kTsp07ESXt4fzRumdjPhkIaHmTso2Pj4Uv7yHXTekbVgIIYSwNBKGn5Qadn9df4073/Gy96DZy134fXIn2ngaIq6em7GJ+T6CV7iVoqGImxVkxRIw9Q8CwgomiOluhhOV4YiLS95N61q9F9O2n+ZIwCB8z02lW8u+BEbe+craw9HfJC5ewbFIUXPBw3Kleq9pbD99hIBBvpyb2o2WfQPJP3unOsNZMtOf6990Z/DamJz7MNu14ceTgbwQPIsJUzZwKSuTDOP96jQ4OjpQqKwv3vbqzlzEmxLObvj4eWOrhvASJQqjT04k8dJWgm7YYJ0YT3x8Mr4DAlg73h93cxVpXF1x0UdxQ8KwEEIIYXEkDD8xPTd2H2JDXN5kZ+9dk/daFlYjmRbvkuYv2N2hoXil5xk9qCm1HDQot87zzeSdnCiAj+k1NrZqEFTDovmGFsY+xCsC2WZM665UeWUMq7dNoVXqOlbseLTbNOjObWDT+UK0aN/UXPIQ9OGsCNxmulhwrcIrY1azbUorUtet4O7Zayn92kyWfOTBsr791AsEc52mH2fmaz2YZ9OJIYNfomquDtV5W9Tzt6+bhpVMHRmRN6F6M5o1M/3VLueas/Pr1flobHGwl8NBCCGEsDTy7l8A9LfO8s2UA5zK89F/OjeiU8GzEu+0LaqGYjWU6fTG/qsGWToFm3INGdezLIXUzJZ8bjfDA66bfq1OpzPfm1ivPs/4QH2x3lBspFMLTa2milqmNz1WA53hNdpiflT0iCfa8BvNZhmhy5m+8PydrhpWbkUp4u5H1Uq2xmFFnbBenb7hz0SdV+5uCip9/B7G9J9KeJuxjO12d8tw0umVzPp1H9F5rwlUGYQun87C83fmjlvRIrj7VcU0e3Ve6vrkvMyF+qOW8kOzKI5cNK1wxvEA5ux2pk6DkhB1jYiUTDLT4ohNUNc933LeRR1vXbEFTQqtYVivcawPiSA8eCnfLjh4pz70sbHE21bAt3xOf28hhBBCWAar0SrzY/E40iPYeEhDnUrpbFp3guCbacRHh7Nl1WYWhJbko0868UopG2Pf4o0Be1h+PtEYwlIztDxTpTzPuMazfds1otQwGx1yhQvpChePnmJPWLqa4xSSMq3x83MlfOtufjoQw2013OlTddiUKUHpm8eZseo8F5PVQiWddOsiPFe9Mm6n57BO24XXG7irVzsKCSe2smrLejZv282eoPUs/2UvLv2m8kWromiu7yNgzmwW7zxDnFVxKpS25dqfc5kdeIRrt+KIvHSEXRuWMXfuRtJbfcOCSV2pYMrQuWRwaHI3+o5dQ0LdPrTzyRUqlQRObF3FlvWb2bZ7D0Hrl/PLXhf6Tf2CVp7h7Fs2j9lzdhDj9Qy+fqUx9BxB60b11rXIPBWFX8dGeLvbEb1pGuNnbeUCZSkSvZXtYd7UqxjOijmL2BXtSo065UjYspB5vx3klmdNapeM4I/581l/Mp1SjXowqKsP55ZPZsyX3xFw3od3R/elmrmFOXHbDCbfbse4N5/DJX/jshBCCCH+0zSKyvxYPI7MW1yNc6ZsUTUA6tK4fimcC3FZOBYtRg2fQuR8je3vk3ViHP6j3Zn/Wz+8/8a2/7jAkcwsPZIR9e9Ky/9gt1jR50V291zLd82dzWVCCCGEsBQShv+T0jk9+2OWlBjB1x2LYaV5Os2dObuOnogDy1h5rhSv9GyE17+o803yocl8urkOXw9vjJu5TAghhBCWQ8Lwf1Ya5zeu5GLpjvhXevotnnq9Hu1T/4WMgpVxZTvLg51p979aeEjveSGEEMIiSRgWQgghhBAWS9rDhBBCCCGExZIwLIQQQgghLJaEYSGEEEIIYbEkDAshhBBCCIslYVgIIYQQQlgsCcNCCCGEEMJiSRgWQgghhBAWS8KwEEIIIYSwWBKGhRBCCCGExZIwLIQQQgghLJaEYSGEEEIIYbEkDAshhBBCCIslYVgIIYQQQlgsCcNCCCGEEMJiSRgWQgghhBAWS8KwEEIIIYSwWBKGhRBCCCGExZIwLIQQQgghLJaEYSGEEEIIYbEkDAshhBBCCIulUVTmx+KRZXA5+Cw7T4ZxNjaT7IrUaDRY29hSyM2V8hXL0bRmMbxszCP/RfS3I9gcdJpdV5PIUFfOpXI9PmtdDGvzeCGEEEKIfzsJwwVAF76LV97dzFGdOuBQhWk/v0j9WxHs3LCNcX9cJalwed56pxODG7hja3rJv0dyMH17rmBzugaPlq+x96NK2JtHFSwdl7YdJ6rBczR4OjMQQgghhLiLdJMoAFYeLnhozAMqrbUdXqXK0uXtbkxrX5is6EvMHLeQYTsS0Juf869hZYPD39AUnHX9EKN/OkuY4YJCCCGEEOJvImG4gOTKwrk4UO+lOtS2Ux/q4lk9dzMbb//r4vBTp0+4xLcTtrAr4SE+pNDFEnojyTwg/h5pXD+wi9MJ5sGHoic2eCM7L6eZhx9VFpHXI8gwDwkhhBBPi9VolfmxeFxZkaxZfpbLhpxrUwT/LlV5xtyaqnGwI2L/YfbFKSipcSQUfY4Xn7Ezhee0WDav2MLUNcdZFXSOi9Ze1CjtiI3uFnvXH2DZ/ovsDb7CsSRHCkcc5ps521gQdJVwey+qe6vPM87BJDU8hLk/BfFz0AlWHbiJdemSVCxkBZk32br6ACsOXmLv8atc0nrifm0/Y2ZvY37QNeI9S/JsUfPyGOgSObw+iLGL9rP+TDQJzjaE7jzH+UwNDuWq0qeB150+wwUxz7Swk3zx1e/8ctkUezT6JM6dSsDRtzjF8rVI62N2MGv6QVzr1aKkg0L09kl8OGIBW/Zs448lgaz6bQc3n2/Fs25a9NHbmfThCBZs2cO2P5YQuOo3dtx8ltq2e/np63fp2mc6V6p0pk1FJ9O668I5EDiR/t2/5pCDD76VyuD+Vy3i+luc/nM+X7/blT7Tr1ClcxsqOplqUhd+gMCJ/en+9SEcfHypVMb9/7GvdTKXtv/K6Nfb0+vbPwm5cIR18yYxKeAkdtUaUa3IAzq066M5NPtdOnYLwL5bH5p4Pez1cxLbxvRicngjXmtY9DGuurUoV1fz/a+hlKn7DOomFUIIIZ4KeYt52qxc8Sme3VM4i5Onw0g3PEwLZ86Xc+m/AV4a8DKjaqWwYPxPDNoUj87KjXp17Tj8206mB+5g+k9/MHp7JqWKwqWjx/jum58YsvUW2T0KUi/spveQAAI0NflmqD/Nbu9j4Ke/syxSTec2hWn8TDrrlpum9eP8Pxh7MBPb1BgOHT7KuLF/sjbB3FqtT2bbzJ/o8eN+Qso05tv36lNKnd++ezTuFcw89YRHpODkkn3lYI2LqzOF3e1xMJXkyDrLTHV+bm++Tm0PdbeNXc6g9w7S7Lu5TPtuKrNnDMYv7iJxxkqJZfmg9zjY7DvmTvuOqbNnMNgvjovqBYlblfYM+H4qb5Q4wY+9ezPvXJZx8liVoO6rb9KyYWO69WiCz8P0W9a6UaX9AL6f+gYlTvxI797zyJlcXV59syUNG3ejRxOfp9TP+mE5Ub5ZT16p5UxyyU58OWUac5b/wttWi3nrxc/Y/qDGW20RavfqzPOOdy6X7i8piJ+WhKh7uYELHaYfZsPQ6o99EeBSowf9K29l6Nf71DgvhBBCPB0Shp86Lc4ONuaKVki5lUiiXs+F1euYfDyVIs9Vob6LlqLVSlOeRLYE7ONwpvoqZxcKG7pXqPRulRn5cSsG9X+J/lXVaKFPZFPAfo6pz0MXzU+ztrEvyYXGjXxwtXKhbpXCEHeO6X+EGj9mtnJ1xM2cZTIKV+fL915ghH9pDJNXksI5cs0UhrMu7WfixpukqyGvcd2SOGqdaNipJoZZ5lFg89RSrvbztCprZ6ofjSt129bjzQ6V8M2THtXQvGgE81xeonMxU01mhYdwPiKcK2GpxmGcatD/w84UN4zOCifkfAThV8IwjXWiRv8P6WwcqdLY4VKrO70r7uXjHqPYlf3xvxrGrW21aM1Pe1gaOxdqde9Nxb0f02PULnImZ42tOrFHnNxTY2Wda0m0xWnWpBKEnuREjPli6L6ssLIyP7yfrFB+HzSQ2SHJZGQVXMdvj9ZvUGnzCGaGSGdyIYQQT8c/5X36P0whS6e/c9s1rRqQ7JRYNuy9QToarFNusuNACEEXbhtDpC7mOgcjTOHElCU1OJXwwtsQRrTOVC/vqkYT9XmRV9gVpkN34ywbzxva4rQkhV1gy4HznLhpCA5qgDx7jWt5MoSGEuVL4KludY2NlambhZJBSqph6XRcOnSBC4bnaxzxcjftGlpHB1zzheGCm+dD0l1myU878WlQ504Lq3WlLvR4NoSvWtaj+4SNXElTI2/b3vTwUWvHuhJdejxLyFctqdd9AhtNI+ndw8dYd0Z2fgxcNIcut6bQs99SQvMs86Oz8xvIojlduDWlJ/2Wht5ptb8jcT+Te3Vn0LixDGxfjw4TDpKijyd48TDaV6rH4AXz+bhrI8oX86XHwgNsHt+HDrVKU/z5wfxpDKtJBC8awxdfj2Jg5wbUfXUah5+k63TGBVb9eQLHeu1omX2R8JDzSNw/mV7dBzFu7EDa1+vAhINJxBzYyJ/B1wnb9zOT52zh6L55fNCyIk2+PGFqKc64yLLRHzFy/Dg+f8sf/wG/clbdLPqYwywc0hrfxh8xb9JbtKhcjKK1hrI53jgrdVv6UcfvPL/8fET6DwshhHgqJAw/dVnE384wh2EtJUt74aCL43qMoUQhOTGZ5NQMkjWleeejl5n6cTOauxqffA9a3FzsTSFZSSLipkJmZDzhhqykBsxbt9TpqNPSVG7I5GEv8333Z/Lc5SKv7BEKalZX6bkelWAOcVaomf2+Cm6eDylxH3tOelK2bK7OE9ZVGbwyiPm9PNk5yp9qVf357PdzpJhGUnXwSoLm98Jz5yj8q1XF/7PfOWcaeYe2ZBemLxmO94YB9JxwhJRHyOd3U7dtl+ksGe7NhgE9mXAk5c4FkEH63p+YHVaLD4YNZ2L/ygQvWc1ZvTs1uzTCKyGCcOtmjAncSdBnJVk1fi5Jr81k7f41vMNC5m1KIWP/eEbuLEPHTl14e/gblN45gk8Whqpb7dHob+xi3qi+tH7+VdbV+I7NKz+iinlbP9w80tn702zCan3AsOET6V85mCWrz+He8HU6VXGiaIM+fPZeG56r/xr13G6SbKyELE6oQXeq8jpffPoZY+Z9T4tTH9Bz3GG0XrV4pUFh4kKvoGvzA9uOreD1lJ/5OSi774YNPj7FubxnFzee8IJFCCGEuBcJw09bZhRns+8XZuVJ60YlsNVkfxSvkGrtTvNm1flf9l9TX6q63n+zaLTZgdIaBzvTsLFIycSmWMWc6ah/HesWN7bIPhwNVupCmaaeSZqxY/O9Fdw8H47uZjhRGY64uOSbsGt1ek3bzukjAQzyPcfUbi3pGxhpDm+uVO81je2njxAwyJdzU7vRsm8ghi7NuTnVGc6Smf5c/6Y7g9fG5Amwj86JOsOXMNP/Ot90H8xa4wWPiV2bHzkZ+ALBsyYwZcMlsjIzyDQsi8YRR4dClPX1xl49HIt4l8DZzQc/b1t1E5egRGG9esGUyKWtQdywsSYxPp74ZF8GBKxlvL/7Ix/A2pKN6TOkK366a/xfe/cBUFX5/3H8fe8F2bIUQQTBBeSs3CtnKqVpZubMNP9ppaltzVGZlqmpuXeZk9Rym3tPFDfgBBUFEUTZ3PE/dyCKaJpW9rvf1+/Hz3Oec+45zxn8+JznPve5cYYAgoz9r010D7kPO5pNOsbiJhFMHTWOdWe15GTnFBDKlfvT0fLgpj3O0rAIipQqY+4/rCnDy83LEbl6jXEOjb0D9kUqUjPEWcm+AZT0zuJWam7yVeHq6oI+/rKEYSGEEH+LJxxbRH4ZkSfZYkpgaorXb0R34zATmqIE+ZrfsM84GcmWG3lRQn/jBnH3/UCTwdQKa1KoCCF+amz9vChl2lQOB/edJvH2pvQkxqdYWkofhpoyJT3NYUWfQuxVyyfBFPkD4pPbp5kqN9/fh8q2EIWUfWXfEdD1cctYvNl8olzLt2P4is2Ma5rB6mXbyNTHsWzxZkxLXcvTbvgKNo9rSsbqZWy759yq8X9jCgs+9GBJz14sunRvrHskan/emLKADz2W0LPXInI3l3VkCm90moltqwH0f7UCzrePOd/B5z8XpnkDObpsriZCpQYNaGD6qUapBzw0PYjKrQkjZryLzfSefLo2yRJkDegeah9ZHJnyBp1m2tJqQH9ereB8T5Vz5V3XHHK0OuXeuGp550GFu1th1HaWTi/G9e7YiOl1d3wXkF6poKqQEpjl/62EEEL8DeTPy5OQo7N8gl6h/OXOndbfPM/4mYc4r7fBr1YzprxbHi/jGVcXJrRpWTyVP/qGW1GMmXSIyAw9+luxzFx8nCt3pU8lCN1Kxzw8cRanY1OU7avwrFqZxkpQURdVwl414/BgBm7s28QX6+NJU+pw4+QeJu9IMQdZZT63Uc2Q2z9B+ddcpvxrmlDjW7sy9YwpzZDOto2nuKrL4vjqg+w0fQrNgDbH3Pf5ye3TSIWjg605CxkySErJ5PjW4xw3fjjQQu0dTFmPZBKu5QV0smMJmziX6NyOpBo3inm5E1whRAnO2cSGTWRu3kLcinnhHlyBENPAHsr+lXBmqZXChVpDFvJjg3jCz9yu2F1STyxn6i97SMh7UR69cv3v7PfhUoshC3+kQXw45s1lc2TRdHY6V6e2L8THXCE9J4fMpOuk6A3m8/UABuURpWyj+hRe+QldR64l8kocEQu/Y/b+/L1oUzmxfCq/7Em449jyGJR95V4D5zpDmP5xERb2eo9Fpg7TD96HMZua8mn2ERZN34lz9dr4Ek/MlXRycjJJup6CRqMmKzMDbfwVEpRN3v5yS5tKtHypNMd/nc8x08NIDqfPJFO7fWvTYuOG78i+Jnmzeq5fT6ZQmSBKP6DrjhBCCPFXyTjDjyWbc0dOsGLVQZZG3TQPmaa/SVR0PMfCjzB72XHiigXT7c1XGNk5mJK3v4tZhXNAAGWzLrIzOkUJR1HM/20fSyO0NOrakMaeGtBeY+3yE0TlqLAv7IA6OYUL0YeYuf4K+lI1GNm/NpWMwVVlR1AFLzJOneVIwi2i9x9k1ooIducE8WHnILz1ifyxeCdhpvoZSM/SEBLswN4Vu9l4yViiJ0PvTOXKxSnu6UNVn1T2hF8h5lwkC1cd5ZRPAH4xl7iQo8ZWq0XvU4JaJdye2D597DV4uBs4svssF9JT2LvhBAnP1KBLiHPeh91svFEdn85qdVu61Da/bW9IOcqm3zeydsNmdu7awtqwn9nt0ovxQ5tSTJPC0U2/s3HtBjbv3MWWtWH8vNuFXuOH0tQzjj1LZjJt+jauFS1HULA/bsYdqd2o9GJVco7HE9yyLsXvekzM5sCYDvQcsZKUGj1oEZiXyrSxe1gycxrTt12jaLkggv3dTPVWu1Xixao5HI8PpmVdP9ztEvhjwrdM3XQaArxI2LSVS341KRu3jOnzdpDgWpnqpVLYOHcmv+6/gWeVavhe+Y1Zs9ZyLKsEdTv1pX1gNGFjhvPl2EVEB77DsJ4V72hhVmQfYEyHnoxYmUKNHi3Iq6ZxnOH5TJm+hAPnsnD2K0u5ZwIIqlUL+7VfMGDyftLtixPS8g1CvaLu3kcPPy4sn8zkxXtJcq9M7drP45P8BxO+nYr5UBLYtPUSfo1bUcvhOLPH/cR+h6rUcznI3CmL2JvkSY0XGlCvRX2KHprMN3P3cyZyO0ccuzJiQG0K3zrB71MmM39PIh6Vq+Jz9Xdmz17HCV1JatWtQnGnVDZPHsPNFiPp9pyL+aFJCCGEeIJUhtvNN+Kfpyc9/gqHL6Sidy1KpXIe3H5XOvMEfbssZkWaCo/Gb7DrPR9On4wn2aEoVYLuWC+XPptLZy4SlWzA3d+XKj5KgLYselTamwmERyajK+pLVX8D5yJTcfArgl/h3CHiLJ7gPvW3EjkYmYTKx4/nS9y7He3RkYQOc2fWr73wUxaq/qxvxROQ/1cjafFgpvgPZlCt2081T6EkFg+egv/gQTzV1XxYN5bRo/VOOq8aS0NnS5kQQgjxBEkYflrlC8O7Pwz5l7+44d+WxYlpH7Gg+CC+bun9l0P3w/onwvaTcNevr/4K+5YsJ6pEOzrXLfq3n6O/XxoHxnzGhupfM7Cem6VMCCGEeLIkDD+tMo/xXqcwVmeocG3Ynn0fP2PlYdgok+j1yznj35KXnnGxlP197vzV0Ov1qB/12zj+cXqlno/+pSFPp2zObw0jwrkFr1T1+B8I9kIIIZ5WEoafRvpUItav5YNJxzB+UZvGtwoj+r5A8/Ke93aPEEIIIYQQf5mE4adSNsmJGaQbP/1vobKxw9PDwfR1xkIIIYQQ4smQMCyEEEIIIayWvOkuhBBCCCGsloRhIYQQQghhtSQMCyGEEEIIqyVhWAghhBBCWC0Jw0IIIYQQwmpJGBZCCCGEEFZLwrAQQgghhLBaEoaFEEIIIYTVkjAshBBCCCGsloRhIYQQQghhtSQMCyGEEEIIqyVhWAghhBBCWC0Jw0IIIYQQwmpJGBZCCCGEEFZLwrAQQgghhLBaEoaFEEIIIYTVkjAshBBCCCGsloRhIYQQQghhtVQGhWVaPDY9Ny+eYfn6I2w5fYtsp8L4e9hRyNGNSs8FU9/rMovCvXm3pTc2llcIIYQQQoh/j4ThJ0WXzPo5S/ni94ukFq/EwH7N6BDibAq9uqQLzJn2O6N3JOPX7m1Wv1WCQuZXCSGEEEKIf5F0k3gS9DdZO+Fn3l8WS6JjGQYNa0MXSxA20ngE8PYnXRhc1RGVpUwIIYQQQvz7JAw/Nj0JO9YxdNN1cpTT6dewLq/5FHBaNR606/AspTWW+b+T7jqxl1MtMw+QeZF9O06QYpkVT6EncI20Vy9yJdsyI4QQQoi7SDeJx6WLZ8KAqYw9rVPOpjOvD+3PqOq2loX56K6x91QhqlVwxZiJs65d4LeN0UQlXOfUxUyc/cvS+Y1avOBlXKrn4qH9LD+eSrZyhVRuJen0si+XV29k0u6blG7VkkG1XU2bvZP+2jamzbpA1Y61SN0wgcGDF5P4TCteDNZy7mQSgZ2GMbzH87gkHGB63w70P9uN8L1f8MxfDen6G5xYO5+po0fz661WzF77Ay2Kmh8GdHH7WDJ1OCN2lmHAsL50qB+IPVlcWDeBCavicS7ihD4tgXh9Jbp98g51ij3Cs1naGTbP+47Phv1G5hsL2TOuCU6WRWbZHBz2AqGTM2kxaDgfd2lBBQ9l+1kXWDdhAqvinSnipCctIR59pW588k4diqnTOLt1MeMHf8HCq2Vo2vg5vO0ziD8bS4ZfI97+qA+hpewt238EuqvsmjWOuQczKerjSiHl2hqc3EjNKMEXQ9vjblktP/2Tuka3jjB/wgZcO/fn5ZL/xNOYEEII8R9iDMPir9PG7TC8+vJgQ8kWys/LMwxT43SWJQ+WeWan4Y32XxpeW5pk0BqyDUfmTjSUVrZR9u3Vhl3plpW0CYYJfYeatl3q/1Ybfpk33VAx1Lyvcl8dtqx0h5yThomdexkWXLHUIWu7oV8ZB0PjiXEGY0nyH70NZWx9DB0Wx5sWpy163eBR7WvDCa1p9j5uGTbPnm84lWOZvY+cI0MNz9lqDN4vTzNE3rGu9uwPhneG7DNkmeYyDBE/NDeUqTvUsPemqUChM8Qt72GoWL6H4ddLD3fubsvcYuhbyd1Q2P1lw4z8r03+3dA72M1g6/aGISzNUpYRYfiheRlD3aF7DXm7jzMs71HRUL7HrwbzJrIM2/uVNTg0HGeIzd1kxmnDorfLG5x9Qg2TTpqP5KHlnDHMfb2sofxbYYYLt8+LzpC0c4jhhebfGU4/8Nw/7DV6CNdXG/q1G2rYnWqZF0IIIYSJdJN4TNq4JC7ltq2rbHF2fJhTmsPOFbvYe1NLxJbDROlsKVPC3dRanH3lNFsuaM2raZwp6mruZaxPPMlGm2as+rYJzcqWoGUtf1N5Hj1x8wYx0+VV2njn1kGDjSavl7JbvVDqeSSyc/MRc4FGY9rn/WmJXdqPPtMiScvWorOUFkRl50LVjt0pu/sjOg3ZcfttfZWNDYXUalN/HF3kRPoMOUb9Tz+ihot5ubGnjk+rwfT0WkzfT5dz3VL6UFQaHGp35g3vzUyadlipbS4dFxauQNO4Ho7GYzSdDh2RE/sw5Fh9Pv2oBnm796HV4J54Le7Lp8vNe9fY5LuG9mVo/+NM3vPcyOBBi4jXW8r/lJ4r8z/m482V+Py7Vyl5ewgRNe51Pufb9t7c+rP3Zf70Gj0kjxd5M2QDg6ZEPvA6CiGEENbmYZKbeBC16o6woiMr62GSkobAYD+KF7KhSHEPCiuvu5me26lTS2aWZfIOBoM3LVr441+xPtPG/x+jm3hYlljozrFgznYCa1fnfm/k6xMuEJtqS6mgUpaSO9zay5iuHek3cgR9XqrJy6P2k3ptH+vXRHDx0h5+GjOdzbFKjEqNYN7woXw9pA9tatfg9QkHye2dbBfch3nT23JjXGd6LYzNF7p0xKz6nX3ZlahZy9lSZqH2pWbNAK6tWcqWNEvZw7KtRK/etTg/+0dW3bCUZYcz90AZutZxyPvAoi6GVb/vI7tSTe7dfU1qBlxjzdItlpIC2D9Hm9DS3Nqyiq3plrI/o7/GykXruVmlEY098/+q2VOzW1eeNQbk7DMsGfYhg78dyRdvhRL63i+cyjSvdbdsziwZxoeDv2XkF28RGvoevygr6q8dZE7/pgTV6s2oD+vgU7QFUy/kj7w2BFcPJvrnnwiX/sNCCCHEbRKGH5OtbxFK5p5F/S2uJD5MGFZTqkUHdi0bxMq2Bn76ejb9NiXfDo8FNRZq3D0o6WiZKcitPew65klAgIOlIJeOq/sWMH3Cl3R/40eSWo9h/DulLcvyZO2ew7RLVen7yUC+7/0MEQtWEOVehy6tyuNUrDY9Pn+Xpv469n47mO0lW9Kq7dsMfNOf7YM+ZW5s7jGr8W07kQUD/Vj3XmdGhaffcSxKPeKvYbB3wTV/FZXI6unhBmnxXL350M2uFmr8O/ehNcv58edzpnOYvHo+8Q3evLuPre4q8dcM2Lu4cu/uPTHv/qqloCA2eHt7oUpPJOFh66iP4fzFHBw8i1L4vr9pWo6Ofovxhi4M/exzhs/8gUbH+9J55EHL8jzao6N5a7yBLkM/4/PhM/mh0XH6dh7JIdeqtK/rRVJMHJ69V7J15be09ru3Pdk2MBCfc7vYcTl/UBZCCCGsl4Thx6T2DKJxiOUDc/oUjp9J46GiUk4Sa2fMoflH6zlR8WUmtfqTL+IwdjewTBZElxhHfLYjLi75L6kG7xodeKtHPyZuPcWhX3pRuYBQbddsEscWNyFi6ijGrTuLNiebnPwHojvLpi2XsbW5RXJyMmlB77Fo1beEut+5TyeqD1zAlNCLfNOxP6uUAGqm1KNYEci8yY0MS9FtBtLTlUKnYnjfPzXen/tL9HkrkD2TJ7M37RwL1jrQ7jWfu4ex03hj3v0N7t19Oubde1sKCqInMSkZg6MXxVwfso4qD9xdlQeN1FsU0Nhvpj3O0rAIipQqY77+mjK83LwckavXmBbn0XJ8aRgRRUpRxrwiZV5uTrnI1ayJ1qK2s8fOqyKVAzwIqlkZ7wL6VqhcXXHRx3NZwrAQQghxm4Thx6Xx4PU3nqOUKXxoidh9kkv3yRr6lEscumhcqOXwgkX0+z2WGwE1GNraB8fHHIBYZVtICcs5ZBeYulTYOrniXOj+lzvryBTe6DQT21YD6P9qBZwLqo9Bhy77KolUokGDBuafaqW4Jxuq/XljygI+9FhCz16LuGQK1Rr8mzWniuYYe3fnH/YthcMR5/B88RVeuKfZ9mHY8Oz/vUuD+HmM/mo8h4Pe5IX8gV/jT7PmVdAc28u9uz9MxDlPXnzlBUtBAXRRrPsjmsKNXnr4OmoCaNqkAobD29hWwNho+qQErutyyNHqSIy/anlnQIW7W2FTuM0vJ0erPPTEc9Vyf6nc3SistsPeQblYD3P/6JULoSqEg7382gshhBC55K/iE1D42aZMeLucqTUu4/hOvtl0nfzdMrOunmLk2B2E5ygzuutsD08wtxYqASU7J5XwyOtKRFYogTPbOJaakV6HkpPMdDol6t6f2juYsh7JJFzL+xiZsgF0BoOyi/u1VRss/8nmyKLp7HSuTm1fiI+5QnpODplJ10lRaVBnZZKhjedKUika1S/Myk+6MnJtJFfiIlj43Wz2Gw/WVNc79uNSiyELf1QCajhnLMdgU7EPY/r78sfoiUTc0e82efv3TDr1IqNGvoZlVLY8qSdYPvUX9iQUdAzK8eUoAV1ZpPbrSJ929qyeHUfDLkFK9DYu1ivVUtYxvdSGin3G0N/3D0ZPjCBv98ls/34Sp14cxcjXippK9Lp8HVX0yewa3pvxcc0YMaID94wAd986KiG93/e8W3QVgz5eRswdN4X28mZmrYg29Xlu+VJpjv86n2OmfsI5nD6TTO32rU3r5V0jGyq1fInSx39lvnlFck6fIbl2e1oHWJqBDXplvfvTX79OcqEyBJV+4HsQQgghhFXRDFNYpsVfpsEruDwtKzqSGn+FzWsOsOGiEiDTUok5e4ENG/ez6IiOFzo3o31JWyW52aKPPcmqqHRyki+z54INtZoU5+ruc1zOyeb8hXRKVy+N/endTF9zgRgl+xgyMsh09qJyWfeC+5/aeKM6Pp3V6rZ0qe2OOvUMW36ZzPTFBzmX6YhfUBAhvi63n370N46zbPJkFu9Nwr1yPV4sr2XLhG+Zuuk0BHiRsGkrl/wa06q2A8dnj+On/Q5Ub1mPeo3rUjQqjDHDv2TsomgC3xnGW67HCJs5jenbrlG0XBDB/m6mMKp2q8SLVXM4Hh9My7rFlX3bU7LBa9Q3rGXclNXsP7yXbWuXEBZejPenjqFtwL0hLfvAGDr0HMHKlBr0aBFo7kpgZDy++co+fz5AaokggoIDqBiYQbRNOz57xZ+bx9cyZ/ocVh+5gqpoaYLLlsbLPYAGr9XHsHYcU1bv5/DebaxdEkZ4sfeZOqYtATbGcYbnM2XaYsJjbpB09SzhO9axZMYM1mc15ZvZo2lf5t7OKveto5FDKZq0qYN+6xiGfDePdTt3s2/fAQ4lBPD6Wy9QTGODXy3lnB6azDdz93MmcjtHHLsyYkBtCt+88xrVpnbDl2hY9BCTv5nL/jORbD/iSNcRA6jJcZZPm8bCbTHYlq1BjZBiGBuL87u1eTJjbrZgZLfncHnMdyKEEEKI/xXypRt/g6yURE6ev05Cmh4bJxcCS3lTqnC+oKfP4NyJi1y286JqOTfTh7pSr8Sw/5KBgBB/Sjk/eqO99uhIQoe5M+vXXvg9+sufXkmLGTzFn8GDaj2w3/S/6qmv4w2W9WjNzs6rGNsw33AaQgghhBWTMPw/JYsT0z5iQfFBfN3SG43qv9n8d+ctqb+yjyXLoyjRrjN17+lD8XT4L9Qx7cAYPttQna8H1sPNUiaEEEIICcP/gzKJXr+cM/4tCQ35H2gBNPb7tXxpx1PrKa9j9vmthEU40+KVqhi/kVoIIYQQeSQMCyGEEEIIqyXtREIIIYQQwmpJGBZCCCGEEFZLwrAQQgghhLBaEoaFEEIIIYTVkjAshBBCCCGsloRhIYQQQghhtSQMCyGEEEIIqyVhWAghhBBCWC0Jw0IIIYQQwmpJGBZCCCGEEFZLwrAQQgghhLBaEoaFEEIIIYTVkjAshBBCCCGsloRhIYQQQghhtSQMCyGEEEIIqyVhWAghhBBCWC0Jw0IIIYQQwmpJGBZCCCGEEFZLwrAQQgghhLBaKoPCMi0em56bF8+wfP0Rtpy+RbZTYfw97Cjk6Eal54Kp73WZReHevNvSGxvLK4QQQgghxL9HwvCToktm/ZylfPH7RVKLV2Jgv2Z0CHE2hV5d0gXmTPud0TuS8Wv3NqvfKkEh86ueMB1nNx8hvvZz1La3FP3DtJeOsCwxhNer/D1HKIQQQgjxJEk3iSdBf5O1E37m/WWxJDqWYdCwNnSxBGEjjUcAb3/ShcFVHVFZyv4O2osHGDbnFJd0loJ/mu4a86f8wfoEvaVACCGEEOLpJmH4selJ2LGOoZuuk6OcTr+GdXnNp4DTqvGgXYdnKa2xzD9h+pSzfDdqIztS/qWGfn0aO+f8yneH0ym4Bjqux162TAvxNNJy9eIVsi1zQgghrIN0k3hcungmDJjK2NM65Ww68/rQ/oyqbmtZmI/uGntPFaJaBVdMmTjtKiuW72H1+RzsbVU4BzxDl5dDCHY2hmkt5/btZ0VUOlrlCqmLlKbjc9n8umg/O65AyRp1+ahNIF7KqpmXjvHVtytYeC4Lg9qTF18tTzlbT5q8GsCtTUfYl6xVtqfCs0I1upS9wfyftrMusSjd3m9Ks6LKBnJS2Lf5MJsv3CDmfCIpjl40eKk+PZ53u6tvc+aVKH5afpzj11O5lu3Ecw3q0KuxD4WzE1k5bQmfr7tKqkFNYK3avORvQ8madWkXVEgJytfYNm0WF6r+H29W87BsLY/u6i5mjZvLwcyi+Lga1zfg5JZKRokvGNre3bLWf4DuIrvnT+Wbr6YRUbwjX3/1Ae39LrJ4/GC+WHiVMk0b85y3PRnxZ4nN8KPR2x/RJ7QUD9+jJZt9Qxrzf7tLUDXAieSj69mZXp6XavqSc1W5zg7vsTvsLYpa1v4n6RO2MmbgDCIdi+GcdZ0UnRb32t8wunM8Xzb+P3aXqEqAUzJH1+8kvfxL1PTN4eqRfTi8t5uwt+5T47SzbF08nsFfLORqmaY0fs4b+4x4zsZm4NfobT7qE0qpJ9wd6NaR+UzY4Ern/i9T8m96cBVCCPF0kZbhx6RLOM22c5Z+CWoPSvs94C+opig1c4NwegxjB83ig6XJPP9WW37oHkjcsiW0+Xgtm28YuxnYUOo5X1J37GTi4u1MXLSeT2dHk2GbzZmTp1kyezFf7khDr/wn7ko6Ti6W2KqywcXVmSLu9jho3KldRcX2X5XXL97B/INR/PjlLwxbG82eA/tYejRHCcJXmD5kCl032tL57daM6x7AjQMHGfnlT3wTkWXepiLz/G7eHrCQedkV+PqjWvhfOMbksT8x4I8bZCckkezgiJ1lXTtHJ2X/ThQ2FWg5NWUAi9y60aWAIKw9+xMd67/D3qpfMHncCL78cpjy0486N8PZG3Odv9zjI3ULcxZEKnt/Qh5mexo/and6m0bF03Gt2ZHODUrjVLoBndtVxTnNj7bfTWbc2HFMmx/Gj+1z+Kl9XdpOPvUILZEGMny7MHf1QmbNnMS7z6tILdmOH2bO4pcVaxjxgg3p/0oXmeuE9XuX/Q3GMmPCWMZPm0z/4CTOJCmVMWTg22UuqxfOYuakd3lelUrJdj8wc9YvrFgzghds0i3bKIBTaRp0bkdV5zT82n6n3B9jGTdtPmE/tifnp/bUbTuZU3928h7xPnCp3Inez2zi46/3kGYpE0II8b9NwvBj0sYlcSm3bV1li7Pjw5xSHSeWr2VqdBaa4iWp7aMxtfzWDlCTEXOArxbHkGlcTe2Eh7PpBRhyXGnV6yU+frsa1YwNz0rIOHoywdQ1o1S152kaYGe+mCpXajSvSbeXQwiyV/KZuzMepo7KBq7sisL27V4s7BZCxaAKNHvGlsxDe5lxNJ2sqKP8GqPD3r8IJYwb0iaz7WC8Oajpklg4fQs7b9pTvUYgbna+VC9byFSH41GJGEqU442axXA27UdF8YrP061VDZoFFEIfN49BM114tY33vTeb/grzP/6YzZU+57tXS+a1QqvdqfP5t7T3vnWfLhd/QhvL0n59mBaZRrb2CaTDR9meSoNGrUJjo1xTS5Eyk+/Y7SnT/kdmvufJxsGDWBT/sH2s7ajWqRPP5j513EntRatubSimxD5tdrZST63lQUKPTpuN9kmch/vRxhEZfYW485fIMBU4Ubn3B7Qxdheyq0anTs/eflC6k9qrFd3a+Fjm7keDTb4bx75Me36c+R6eGwczaFG8pbQAf/E+8HjxTUI2DGJK5N94zoQQQjw17skn4hEZg49l0hhys7IeItjorrJm51VT0FQ5O+JuDJFqBwo7GBfqubjvFEdyjNN5NF4+VHQzXi4NtpbUmJGZ/Qhh0YCh1DN0CPGg5usdWPnDq7RVwoqtrx/PF7XBzs0DfycV2tQszG11BuVYtKbt666cYOWJLKWy9ri5KHVQQnqrXh35vncbfuxYqsCgY6bj3II5bA+sTfUC3s7WX1vJovU3qdKoMZ7570R7JdB3fdYUkLPPLGHYh4P5duQXvBUaynu/nCJTf42DcwfwYlA9Ppw5mrcaPYN3sap8vOE61/atZ03ERS7t+YkxU5exalZ/mgbVoveoD6njU5QWUy9wY+8Yunbsx8gRfXip5suM2m8+6vTIMEYOG82ksQN4pf6rjNqVdPf2pm8m9olkJHueaxNK6VtbWLX1Aa2j+Tg5O1mm7mWn3Es3do2khZ8zpd+YTWSKUpgdy6896tB84Ey+f7cBZUMHM+2D+vi7ulCi3gcstxxMasQ8hg/9miF92lC7xutMOJhqKn8oNiG0VQJv5FeNqdlxFOvPK49yTs3p3ilQuVuduH+V7XB2/mujjtg/14bQ0rfYsmqrMneLvWO60rHfSEb0eYmaL49if7q+gOuWSsS84Qz9egh92tSmxusTKPAwbYKpHhzNzz+FS/9hIYSwAtJn+DEFhA6xTImCfG33I8MDV3JsbN17hpPT7v+cKnWnUmH+ZRa1c7SU5qM9yoiGvcn6cRtfVrFBFzWaRrUW0uCPPXwZsoKOAR+SOXwVP79TjqMfPUvrq8OJ/SWU9W+W4quAtez7sjI26UvpVLIPqd9uZ07dRC66VuLq0Cp8F7SODQOKs7Z7Gb4o/jsHB2fxRaOxBC1dwlve2Wwb/BIjCn3DysFVWHvn9ixVK5A+lnGNQphVeyuHR1Qzh/ndH1OpSTi9ozbygV9e6tfH/ECjcp+hHn2ezX2KW0ofVhYbe5elVexQ4lb3wM1SanwAOTOuKXVXvMLuDR9QShXLtPenETz2a0LmNifwBx9m/jaZdu47+bBZG8KqLCBuhjdftJ1F0ND3qWSbzd7hLfko6QtObHgf/4d+XE7h6M+D6TtwOjtulKBZn+/4YXBbgu68rFkb6V22FbFD41jdI6/GD5S9m48rNSG8dxQbP/DLe3rXx/BDo3J8ph5N1tpyvFPxO4LWbWBA8bV0L/MFxX8/yPDntfx+x3XT7/2CtrOCGPp+JWyz9zK85UckfXGCDe/752sV0HFyeE2q//EGx7Z8SKD0HRZCiP9pD/2nThTswsp+fFEx9wNzNtTq9SHn1nzFhQf9/NaRtq7mQdYKPd+Kw6byz/mumuWvrlMFJi9Tylb25ZMg8yWyKdOIP1YqZcva08rU0qbCo3EHIk2vHcKSVzzMLdQ25RgVZiyz/Cx+hQam9KamzGs9ic4tv/0zhO0Da/G8mwb3ys1YtbAtzUxNvSqKh75JlLJO1PCqeJuqoebZbn05e882viJ6VC1KmtbR0KjfQHP5yq7ExWfj6OJS4I2m8nDHVQl1qbfy+ibnpz2+lLCIIpQqY46gmjIv07xcJKvXRCsz9jjYF6FizRCcsSWgpDdZt1It3QPuoLbD3s6LipUD8AiqSWVvR5pNOsbiJhFMHTWOdWe15GTnkH1sNetTAgjyMNbWnhe+3sT6wTX/pjGhlTyXmESywRGvYq6WkidBQ5luH9Di7BQm7ExHe2oRh0u0o469Gjs7O2x8q1I/yAkb76Z82L0GKYcOoDu7iS2XbbG5lUxychpB7y1i1behuBd00e7LlUpdJ7D1RDiL+gURNb4DjXsu5urfNcqePpGkZAOOXsXArhmTji2mScRURo1bx1mtci1z8u9Yx9lNW7hsa8OtZOU404J4b9Eqvg11L+DeVOHq6oI+/jKXpaeEEEL8z5OW4Sfg5uHVtB6yD+Pn6BwqtWD9N7XwL6A1SZ9yiYibPjznm8b8oRMYFJ6NrbL+thG1KM5N5g78gWFHddhVaMYfI+tQkkQmfzSRUVF6Uxhe80MDyuWcoG+XxaxIM4bhN9j9YYgS27QcmD6RN35LQmcMwws783ruW9O3wunW6Xe2ao1huAdruvvdFe6yIjfS5rPtnNQVp/+PPfnA+zjvdFjK+ixjGO7KlvdLY5t0kB5vr2BLJtiWaciKHxoSku/4sk+s5cVP93BBbwzDnzL7RXtT651KE2BZQ4j/Jvm/SCGE+N/2SG0/omCFn23KhLfL4a0ExIzjO/lm0/V7+hpmXT3FyLE7CDf2BVYX5uXWlQlQ1tdfu2H+kgzdDeKSlD+6yrIWrSpjHpRCjy63gUuvt3wiXvnXUqa9vVCFo4Ot8r8KQwZJKZkc33qc48q+9Drd7U/Sa3PyN3PpuHDoDNGmyurJUZYnnrrEecsLcrTmPsNqj/J0aeBmannOObuHoYtiuK5sKis+iilLo0lUqqG2L4SD5YN6N1LSuHn2KKvPF2HN2yUo3n0VGUqgMIaK/D9JGwdQ2eMZei69QNbt8hwubZrOnB2J6DJ382mFwlQbdti8jcwdDKj6IuOjlLplrOQt3+cYEpGjvEbH5R8bUbjlXG4p52DlW76U/2QPGVfjiE9dRXffSny+37ieso2sfXxWoQht5inbz4lhdhsfyvXbwpWY3+gdaEep16ew79JVotZ9x2dTIsjJvz1tbj0L+NGeY3Q9B575dN/t48na0Z9yDg0ZF6uzrKcjaecw6hUtwSvTIpXt3/F6088tji+bwrzd8ejuWZb7k8nanr44NJ/O9QKW6678RBsvT8p0m0e8zlx2Y/bLOFf7mhOm+mey+5PnqTfymPmcBtlTInQEa07FcfnwAoaMWkNSvm3eOr6MKfN2397e7R/deX5o24YpUVm3y2781o3SNb7iSM4d62WupaevA82nX88r+7OfrB30L+dAw3Gxt8+FLmknw+oVpcQr04hUtp+17zMqFGnDvEQdOTGzaeNTjn5brpB4I+2u6xa7dQBB9iUIHbGGU3GXObxgCKPWJN27T+X+Ozy4Cm6tfzKdAyGEEP/bNMMUlmnxl2nwCi5Py4qOpMZfYfOaA2y4mElGWioxZy+wYeN+Fh3R8ULnZrQvae5SYV88kKqFr7NnXxRHUguRdXw/c49AvW7tGNmsqKm199ze7UzdcJmrxlCbmYNtoB9uR/cyc38iqcrfaG2mgaJBgVQuYoeHu4Eju89yIT2FvRtOkPBMDbqU07J32S7mH0siXfmjnpaaQ+GSvlT2trc8Balx0F1j3fZLJGlTOXI0HrvKVaiYeIqdCTrSL8eT5BdEYz9nAiuUwCHmHPsvpxJ7LIKfVhxk7SVXOrzxrBL0VKhdndFHn2JHXBaXleVrkvx586VAymuOM321mrZdahf4trtDqSa0qaNn65ghfDdvHTt372PfgUMkBLzOWy8UQ2PjR626RTk0+Rvm7j9D5PYjOHYdwYCaak79PoXJ8/eQ6FGZqj5X+X32bNad0FGyVn1qOkcxZ9xP7LcLoVT8GuYu2kaMbVlq1AihmLMbdgl/MOHbqWw6DQFeCWzaegm/Fu/y3itFiPh5BEOGz2AXLzPws+b42Kqxv3mI2cbtOVSnZe2SluCfj+4iexZNZ9r87ZxM0uBTJpgg/VHmT5nG4vAYbiRd5Wz4DtYtmcGM9Vk0/WY2o9uXubcbRvYBxnToyYiVKdTo0YLAezoppxK1aR4zZi7lUKyewoEhBAV543RHnVTOZSl6aT23XvqKDsHmjzhmRSxk9KrTaI3vUGwJ44+Mdnw3uAlF7PypXacoUWFjGP7lWBZFB/LOsJ5UNA8PYpHNgTEd6DliJSk1etDizkoZUji66Xc2rt3A5p272LI2jJ93u9Br/FCaFrOslxrFpnkzmLn0ELH6wgSGBBHk7WR+gLsf4zjD86cwbXE4MTeSuHo2nB3rljBjxnqymn7D7NHtKaOcPI2rHQl/TODbqZs4TQBeCZvYesmPxi9XpWRm3nVr80YHmnhFETZmOF+OXUR04DsM61nRMgrKnW6xefIYbrYYSbfnXB5cRyGEEP950k3ib5CVksjJ89dJSNNj4+RCYClvShW+J9GY6G5dJyL6GkkGB0oF+VHaOFrDX6S/lcjByCRUPn48X8LhIZv99aRciuVQgg3lnimBr3HUh/QkDp5IRK9sp+pd29Fy7fxFjiVocfX1pUoJR3M/5Vz6DM6evEisyoPnQorganyh9igjQ4fhPutXet3x4THxZ5JYPHgK/oMHUeuvdFrWX2bWhzMI/nYYdSzDfaTMaYn/vBc5ubEPvn/xUiQtHswU/8EM+kuV+o+4sYwerXfSedVYGlqGNhRCCPG/S8Kw+NtlnZjGRwuKM+jrlpYP4okH0l9h35LlRJVoR+e6RR/yocZMf30/YcvPYqvfxR/ZfZn0frnbDyzGbhL+vzTlxMYPePTnEj1X9i1heVQJ2nWui/GLC/83pXFgzGdsqP41A+s95IgXQggh/tMkDIt/RGb0epaf8adDaIilxEylkjehC6LTGVD/hcCpjfiel9rPJqfZMGaMbU9pyxsS2Re2M/3L/ow8WI7+E0bQp2HgA8aHNst/bXQ6nVKnJ5uC9QmbmThmTYFjN9sEtuKT3vUxDe7xj8jm/NYwIpxb8EpVj0d6CBFCCPHfJWFYCCGEEEJYLWn8EEIIIYQQVkvCsBBCCCGEsFoShoUQQgghhNWSMCyEEEIIIayWhGEhhBBCCGG1JAwLIYQQQgirJWFYCCGEEEJYLQnDQgghhBDCakkYFkIIIYQQVkvCsBBCCCGEsFoShoUQQgghhNWSMCyEEEIIIayWhGEhhBBCCGG1JAwLIYQQQgirJWFYCCGEEEJYLQnDQgghhBDCakkYFkIIIYQQVkvCsBBCCCGEsFoShoUQQgghhNWSMCyEEEIIIayWyqCwTItHpU8nYuNufj2VSrblLKqdPahd/zlCPZP4bcMJDsZnob9j2fNVy9Oyiif26Ll07DDLdl/icpY9IQ1r07Wiy+M/neQk8sfSA2w27VeNf52GvFvtCWxXkZ14gaWrwll/LIkcNzeKqDO4etOGkhVCaP9SJZ730FjWFEIIIYT4b5CW4cehdqRKwwoUPXeUJX8cUn4iOKgOpHk5Z2w8/Xn1pXLYnYy4veyIXVnamIKw6cWUqFiFxo5X2E8gbZ5EEDayLUKDSir2bTDu8xAbz2Xy+E87WmJ3ruLV3nMYuCqRch3f4KfB7Rg/qDOTOnlzfuVvtOs1ky93JytrCiGEEEL8d0gYfly2XnR4qTSFVcYZPbEnY4jTmZagdgmkZ8tAHE1zes4dO397mZkSMhMdad2yNK6WkidB42yPs6k+T4Ke6/vX8tao/RxPU1Px1Vf46HkXbEzL1BSp9ALfvOqLbepl5oyazzeH0pVXCCGEEEL8N0gYfmxqvGo/SyM3c/rMjjrKsgu5iVdN8bqVqedkXpYVeZwVl++Iiqmn2ZJehtb+T3H3gswYfpwRzlljk6+NH6809qKQeYmFhjKNKvKcMR1nJzBv2k4O55iXPDbddWIvp1pmxNNIe/UiV7ItM0IIIcR/kIThJ8G5LK/XcTOfTF0Cv2+IJdO0QDnBTp6U9LA002rjWLnliqUrgZ5reyNJq1Iev7uycCantm3mk68X8P6oJfSduI015zNut7bq4s/w04JNjP5pI6Pn7WFboo7kk3sZOGwOb808RVyBzbJ6Lh7ay4Sfja/bxNiwCCJuPlz7bVp4OCssG9UU86GSx723jNrdm3JFzMeovXyEJRFKGs5JZNPyLeZ6/rSZeUdvErt/Gx8PmU37Ib8x/eitB7Yg669tY8r3q4h3cFRmEtj6/dt06tGXAR+8w5vdlOn+szE/c+hJ2Po9b3fqQd8BH/DOm92U6f7MPnedE6sn0adhID5VP2Dttby96eL2sXBISyo26s+c7edvX6sHS+XMllm8X7c4RYOb0KPv+7z5ciNa9plFeIqeGydWM6lPQwJ9qvLB2mt5x6aLY9/CIbSs2Ij+c7Zz3rSzLC6s+54B73/EkGFD+eLj3vT8cAq74h/umtyWdoZNM96nfomilG05hF/2XEZHGmc2Tef9+iUoGvQKQxfstaz897BxSmLz96NZFXPXWx5CCCHEf4aE4SfClupNKlLWFGr1xO44xLY00wIyjh/lpGdJfE1nWs+ZHUcJN7ac6m+ybj80qnNnX+EsDsz7iddH7SLmmRcZ99GL1Lq2i/cHzGLY/lRTwNIUK0Vt9RmmLt7OxMUH2KoEzB5D17Jg/3m2rDrM3izzlu6mxq9KMM4ndjJjdxrPvFCRKoUf5tJriYqKIyX3A4DuhfEuqBFb7UwRF0vg16dxPOq6qe9yvXJZrA4z1nMbk2b9xoj9ORTKuMaBg4cYOWINq5QQWSDtKaYMWIRbty5UU8L39bB+vLu/AWNnTGDs+GlM7h9M0pkkJfgprofR7939NBg7gwljxzNtcn+Ck86QZHCj/Evv8cP4Nyl+dBLdu88kytKhWVO8Bq93a0ydeh3oVD/Q0of7zzhTpmEX2ldzIq1EG4aPm8hPv3yO37retOz9K9khL/HeD+N5s/hRJnXvzsy8nVHj9W40rlOPDp3qE2ifyZFxrWn6TRrtR47mq2FfMvz7SXxVL5zejf+PpXe+c/BnnMrQ+M0OVHNKw7dRDzrW8kWDE2Uad6P9846kFW9EjzdqWlb+m7hUplPvZ9j08dfssdzzQgghxH+JhOEnxKZ0FV4NMvekNdyI4tfdxvCazqYtKdR/pwmtSphPte7qCZZFZKOLO85Oh2CauOVdAu3Z3XwZdplbag+qVXHHRl2YupWLoclKYP707ew3vR2txsvN0XzhDEqg3qdh0IRufFKrOFXqP0PVu/sw3Ka9dJKN8X588EkLmns9bLcMAzdSMvNaOW1tcbBM3kVlg72dJQwrr0m5lWGa0rg6Yuk9QnaRSnz5bhMGhfpjp8wbUuMIjyko+OmJmzeImS6v0sbbeJRa4iKjuRJ3nkvmzeJUuTcftPExnQNtXCTRV+I4n7eQ3h+0wcdyWlV2LlTt2J2yuz+i05AdpJiLlSrbUEitfuRfAI2Nhtwjxa0eofU8SNy5mSPGBxyVHS5VO9K97G4+6jSEHXk7w6aQsi9lZ7rIifQZcoz6n35EDRfLcqUWPq0G09NrMX0/XY7yKPEIVKiVCqmNG7+D2lioUivh+EH06LRasrU68zXW69Bma9HqHiGQG3m8yJshGxg0JdL8gCKEEEL8hzxqFhD3o/HglcaBOBunDZns2HiU2PgTrNMG09qvOK3re2NrXKa/xcYtURzaFoNn7bJ3fHBOx8mdJ4g0NiiqHPAwtbSqcXW2M4Uv3dUo1uW2NuYyQEidqjzvE8i7g3vx24AqFNT9ODvuKAMnn6Nq39d4p7SpFg9JhYO9TV740ylhyTJ5F4MBfe74cabX5N+HiuKli+Op3G0qW435PBiySc8oYJwL3TkWzNlOYO3qlhZbG0LaduLZyK9oXLMjo9YbuzU40bx7JwKVY7UJaUunZyP5qnFNOo5ab+qG4NS8O52MCy3sgvswb3pbbozrTK+FsU8usOkTuBCbim2pIEqZn4OMO6PPvOm0vTGOzr0WEnvXznTErPqdfdmVqFnLdKfkUftSs2YA19YsZcvf0MKafWYJwz4czLcjv+Ct0FDe++UUmUr9D83vxbOFX2DMWR1ZsdsZ1dqPYl2WkXrtIHP6NyWoVm9GfVgHn6ItmHx4A2MHjmDK9AkM7RrKx+ty34awIbh6MNE//0S49B8WQgjxHyNh+IlR4133WRqah5Ug8+Rhxs2PxqX+M3ipNZRpWInnTK22BpL2bWHwMXdeftbYRppLR2xciiVsaihUyHxpbIwtfEZKiL4cny/GqZ0p6XPnNu6VEXOQdz9bxpKT17mWo84Ltg9FTemAIrc/MGdIzSC5wHHa0km5HeAKUSbQ0zJdkNwaGCiwAfLWHnYd8yQgIK8N2qZCf5ZvmUVXz+0MCa1IhdDPWRqVnruQ/su3MKurJ9uHhFKxQiifL41SanQnNb5tJ7JgoB/r3uvMqPB043PEX6a7uo8FSiD8svsb/JjUmjHj36H0HQ8hat+2TFwwEL9179F5VDjpt3em42r8NQz2Lrje08SuwtPDDdLiufqQ/bnzKCF743i+HDqUoaaf4czdn5R3jNqjjH5rPIYuQ/ns8+HM/KERx/t2ZuQhD6q1a0Sw5RayC6hP69p+ptZkddGqtK/rRVJMHJ69V7J15bc0Pz6duYmVef3tvgwZ2oNqlnvdyDYwEJ9zu9hxWdqGhRBC/LdIGH6SXMrxWp3C5pOqi2flKU/aPm9u39QUq8ArFc2x0pCRhLZsxXxdGlTYFcpthVWhsVyZnNstrjbY2+ePsmoKPbCh18CNdBVebkq80V5n0fjfWHTpUcKKmiLVnqGWeWw45ZCucaagPsmZ1zln+YCayrUMoc8V2JnioegS44jPdsTF5e5b07VSVyZsPUH4on4ERY2nQ+OeLL5qCY2uleg6YSsnwhfRLyiK8R0a03Px1bzuHSZOVB+4gCmhF/mmY39WXfvrcVjjXYMOb/Wg38StnDr0C70qW07QHZyqD2TBlFAuftOR/quUAGwq1eBdrIhyvm5yw9KrI4+B9HSl0KkY3g/Vn/tOGko2+YChX37Jl6afL+hW3eP2Y4f2+FLCIopQqoy5+VpT5mWal4tk9Zpo0/z9qO3ssfOqSOUAD4JqVqZkreaUWduRyvXe4vuTFXmpdt4NrHJ1xUUfz2UJw0IIIf5jJAw/UYWo1bQipUxnVUOlJs/zbG5YVRemWcPSuBoTiqYYoQ2L3zNEWcUQH8uYxDoysoxRTk9GZo45SNkWo1Lp3PfiH5YKn5DnGdbvBao6qDDciOabMds5+ghvZauLVKJPSx9zP9+MWLYfuzcN3zxyhnBjuFPZUa3tC7QobC7/K1S2hZTzkkP27d3oiVu2mM2mURhcKd9uOCs2j6NpxmqWbctEH7eMxeaFuJZvx/AVmxnXNIPVy7bdO0qE2p83pizgQ48l9Oy1iEuP2gB7B5WtE67OhR7wC6TG/40pLPjQgyU9eykPIcadafBv1pwqmmPs3Z1/yLgUDkecw/PFV3jhrz9LFCwnB60ukfirlqCqcsdNCdx29sYdqW6H5ttynxPyLdAEdGFhxFa+e+E6czrXouUPJ/K6zeiV41MVwsFe/i9FCCHEf4v85XrCCpWtQuuyGlSOpXm9iacSf/J41qhsGo+4ULkKvFLyziVGarzr16JNceWS6FO4ZBpmS8/la8YhyIxdMGrSupjxcunJ0ekteUWZLqATr0FZnpvztDoDtqXqMLJzgOmLQdKidjJw0cV83QgepBDPdXyNL2u7Yqu/xeqwfZy6M0xnX2Fu2EmuGWwIbNyKMW2KWb6QQ6EEpNx2QmOdTJR/zWXKvwU0Iqq9gynrkUzCtbwDy44NY+LcaHJ3q3Erhpd7MBVClMeJ7FjCJs4lOm8hxbzcCa4QYn7YMH4o7M7+GC61GLLwRxrEh3OmwEbMVE4sn8ovexJun8M76ZXzaVCOq6BlpmPK/TCaiQu1hizkxwbxhFt2ZlOxD2P6+/LH6IlE3HERkrd/z6RTLzJq5GsUvee38kF1Uvap3Az6fN+qrjeGU2WZ8X9tKrXkpdLH+XX+MfMDQs5pziTXpn3rAOWEu1DYMYHYWOXpIy2K/ccTycrMuH3dlIO9nY3Tf5/EjOuV6DTiN7Z8V42TO4/cfuDQX79OcqEyBD3yA5sQQgjx79IMU1imxZOgdsBXe5FNDs8zpLHX3cN2FXLF6cpJrlZ+ke4h9ve2yBXypGZ5By4ciWJTdCaO2TH8vOIc6mebMKHv85SxM3ZVOMeMpQfYeyUbgyGblCx7ypbzxc/yxR7kXGP9ol2ERd8yhceMbDXlypemnGsyWzfHEK+EpITI85yx9aZ6sPvDfVOdxokKdSpQ1TGd6EOHmLc/mWxtJhdPRzJ3+jqWJBejTddXGde1HD65GT8nkT8W7yQs6iZZxi4AWRpCgh3Yu2I3Gy8ZS/Rk6J2pXLk4Pnd2/7DxRnV8OqvVbelS2115DDCQcnQTv29cy4bNO9m1ZS1hP+/Gpdd4hjYthiblKJt+38jaDZvZuWsLa8N+ZrdLL8YPbYpn3B6WzJzG9G3XKFouiGB/N9PDidqtEi9WzeF4fDAt6xa/+4kw+wBjOvRkxMoUavRoQeDtbGccZ/gXJk9fzMFzyrXxCyIoxJfbvTm0sexZMpNp07dxrWg5goL9MfZOUXZGpRerknM8nuCWdSmutqdkg9eob1jLuCmr2X94L9vWLiEsvBjvTx1D24ACwuT96pR2lq3zpzJ9yQHOZ9rjXVZ5QPDTcG7LfKZMW8LBC1k4+paj0bM1qVW3KIcmf8Pc/WeI3H4Ex64jGGA8vzbFcE3+jW8G/8iaaGeq+CVw+LwOFx97zq/8mUXbYrAtW4MaIcpDzpEpvP3VGhJT4og8r6LR//WiXglzh+Nbmycz5mYLRnZ7jtxR9oQQQoj/ApVBYZkWT0p6ImdS3SlTwBBmumvXuODgSWnne5r/8ugyuBB9iTMp4FaiBM+WcLirhflfpc/maswVIuPTyMQWz2LFKF+yMI4POJxHpT06ktBh7sz6tRd+T3C7Dy+JxYOn4D94ELXu7svyL3oa65TrBst6tGZn51WMbZhvlAwhhBDiKSdhWDyFsjgx7SMWFB/EiFY+ljLrctevpf4K+5YsJ6pEOzrXLfrU9W1KOzCGzzZU5+uB9XCzlAkhhBD/FRKGrZKO1JR00gvsM3sHTSE8XO3y+gD/ozKJXr+coOYdLfPW5e5fSz16vflLO5422ee3EhbhTItXqlLAN3ULIYQQTz0Jw9Yo5yIj35/FtIsFfwwsl8anFguntqD6A4dvE0IIIYT475IwbJW0pCSlkap98KVX2dhRxMMh3xBwQgghhBD/OyQMCyGEEEIIqyW9/IQQQgghhNWSMCyEEEIIIayWhGEhhBBCCGG1JAwLIYQQQgirJWFYCCGEEEJYLQnDQgghhBDCakkYFkIIIYQQVkvCsBBCCCGEsFoShoUQQgghhNWSMCyEEEIIIayWhGEhhBBCCGG1JAwLIYQQQgirJWFYCCGEEEJYLQnDQgghhBDCakkYFkIIIYQQVkvCsBBCCCGEsFoShoUQQgghhNWSMCyEEEIIIayWyqCwTIu/TE9y1GEmLT1FjNqRwhodao+StA4NJvvwOfyaVaGMPpE/lh5gc3wWeoMa/zoNebeaS4FPI/rEU4wcs4mtupL06f8SrbxS2bd2PyvPppKtXC37ctX4ItSHpGMHmLftCte0yoW086XT29WoZGvZyCPQ37zChi0n2HHBvH2XZ2ry+Yve2FiWP4g+OY4Ne6PZd/oGqXpzmdrelfJBvlSrWoZgFy2nDx5j45E4LigrOBTxoVbN8jQr7WReWQghhBDiXyQtw09ASsQGOg3cytVaLzHls1cZ8/GrfPR8BjM/H0vPlYmkG1eyLUKDSir2bTjEkj8OsfFcJvd7Crl1KJyfjyRw+vghFuy7iV5TmBoNinJtu/m1y44ko8RtvCtWomzyCVPZ4o3niNVZNvCI1IV9aNakCPFbjds/zPJjySj5+qGo3YvTrNnzBMYfNdVjyR8RnHKrQMeG5ZQgbLy9ClG26vP0aODI8YNZVH25qgRhIYQQQjw1JAw/Ll0C837ay0l9cZrUdLe0pmooVuUFJg+sTwWNjhxLi6nG2R5nlXn6QVxq1qF/g9LUqV+f3vULmy+SnQNujvlfbItr4UJP5iJqbHF4mKbggqjt8Syc+2IVrq5Oyhm4WyHfogT6eFHOWW45IYQQQjw9JJk8rpwrHLugg+zzLPz9EjctxUYOZarTpaLNQ7ey5lIXDqTXJ28y/7OGvODx37hEKiWn50b1++V9lXIoD/Es8Gh014m9nGqZEU817VUuXsm2zAghhBBPBwnDj0ttj6uxxdaQyb55c2n99WbWxmZZljnTvF01gvM3k96m5+KhvUz4eROjf9rE2LAIwi+cY+Ei4/xGRv+8lZXGoP1XZF5nw5IV9P12Cb2+Xsa4XYlkWBaZ6G5xcPU63h/8C30mbmRhdKZSm39SNqe3baDvlwv54IfV/LjxCD+GneSGZalRRlwkkyeE8f63C3lnzBbWXro7SOmvbWPK96uId3BUZhLY+v3bdOrRlwEfvMOb3ZTp/rO5oNNxcffPDHqpDEV869N39lbOXjvL1tl9qVe8KGXrd6RXvwH0e6cTLVu8yrvfr+FcpmUHT4SehK3f83anHvQd8AHvvNlNme7PbMt11Sds5fu3O9Gj7wA+eOdNuinT/Wef4/qJ1Uzq05BAn6p8sPZa3rXRxbFv4RBaVmxE/znbOf/YdU3lzJZZvF+3OEWDmyj1eJ83X25Eyz6zCE/Rc+OR6pHFhXXfM+D9jxgybChffNybnh9OYVe85VU2TiRt/p7Rq2L4i3e1EEII8cRJGH5chQJp29AT0+fWDNmc27OV3u9P4NVxe9mXpMPJozCu9z3LavyqBON8YiczdqfxzAsVeT4ggCauccxcvJ2Ji3ax7q90BM6MY/qXM+i9Dl597zWGVE1n9rdz6PeHsa+xQp/G5ilz6DRpL5El6/Hdu7Uocegwe55oCHywtIgN/N/ovaRUb8kPfevzbOxeZu1LIsVyuBmnd9J9wCIWqarwzcehNLi5hz6fLWXJVUuw0p5iirLcrVsXqnmouR7Wj3f3N2DsjAmMHT+Nyf2DSTqTpByvBr/anXi7UXHSXWvSsXMDShctTYPO7ajqnIZf2++YPG4s46bNJ+zH9uT81J66bSdz6kk1YF4Po9+7+2kwdgYTxo5n2uT+BCedQbk1jAsJ6/cu+xuMZcaEsYyfNpn+wUmcSTLgVv4l3vthPG8WP8qk7t2ZGWV5f0FTnBqvd6NxnXp06FSfQHtz8V/nTJmGXWhfzYm0Em0YPm4iP/3yOX7retOy969khzxsPTI5Mq41Tb9Jo/3I0Xw17EuGfz+Jr+qF07vx/7H0svG6uVC5U2+e2fQxX+9JM29HCCGE+JdJGH5shajRuT1f1vXAzlKC9haH/lhDx/fm8u2Bmw9sBdNeOsnGeD8++KQFzb2MTchqXDycHqpvccH0nF6xmjFHMvB6rjy1XNQUq+hPaW6xcdEeDuYo+zy7l+/XJ5KldqNeDV8c1U7UaVWFCn+1z/Aj0xKxK5IYnZbDf+xiW7ITdbu0okcJnfnDhroE5kzdzJ5UF+rVDcRV40KN8kUgKYqJv8WSrRxj3LxBzHR5lTbexltYS1xkNFfiznPJ0vztVLk3H7TxsdzgKjQaNSqNDco/Fhps8t399mXa8+PM9/DcOJhBi+ItpY9HGxdJ9JU4zudVjN4ftMHHVO04IqOvEHf+kqXV3onKvT+gjWmhQmWHS9WOdC+7m486DWFHirkYlQ02hdSo89X/cWhsNHldWNzqEVrPg8Sdmzmi3C8PUw9d5ET6DDlG/U8/ooaLZbly9n1aDaan12L6frpcif5GHrz4ZggbBk0h8i885wkhhBBP2hP8c2rF7IvR8bN3WDagFrW98hKlLiWGad+GMSum4L/62XFHGTj5HFX7vsY7pe8cE+0xetbqrrNu92WylG3YpCeybV8kW07fVAKksujaRfZfyeHsgdOcNlZJ5UhRd/MtoHZ0wPVvD8O5x6XCxdlOufkM3IzaRc9+P/HtQTu69qhOoPI8oLt8ivXRxhZINamXTrNxXzRHE40VVkLwqRhiss+xYM52AmtXx9wwakNI2048G/kVjWt2ZNT682QqwbJ5906m7T0K++faEFr6FltWbbWUPB6bkLZ0ejaSrxrXpOOo9abuBE7Nu9PJWDGbENp2epbIrxpTs+Mo1psX0r1TYN4HEO2C6TNvOm1vjKNzr4V/ecSQR6JP4EJsKralgiiVe088sB46Ylb9zr7sStSs5Wwps1D7UrNmANfWLGWLpTHYJrg6wdE/81O49B8WQgjx75Mw/LhyrhF5UQluagfKN2nBgqnvM7d7ZcpbmnYNGRdZ+MclUxi9U0bMQd79bBlLTl7nWo76ceLv3XRJXLxmHLTNQNqtNNIysklT+fN/H77G+I8a0NBVz8X4FEtrtQabf6w12IBeraGQaVpD+eb1aFHUfPtpk84zdcQs+mxINvVJzbmaTJxxwpDNjRtK/ZVjUD1ThzGfvMYPHcvhkbqHXcc8CQhwML3eyKZCf5ZvmUVXz+0MCa1IhdDPWRplamd+NDbeeHupSE9MsBQ8JpsK9F++hVldPdk+JJSKFUL5fGmUuQVcCfEV+i9ny6yueG4fQmjFCoR+vpT81Vb7tmXigoH4rXuPzqPCSb/fmHyPSXd1HwumT+DL7m/wY1Jrxox/h9J3PEzcvx46rsZfw2DvgmveJbFQ4enhBmnxXL1p6eJiG0igzzl27bhsnhdCCCH+RRKGH5cSdn9ZG8Pt7rb2HjR4rS1Lx7Simacx4upJvH4rX1cJAzfSVXi5KUlDe51F439j0aUn1OSnyn373ECGjTsNG1TildyfF4Ko4KpBo6xgDt85ZFo+6/d4VNjb2d4O9Hq93hRq76RPzyTDwRHjIRtpilVm9Lft6BbkaL4JdbfY/vMafr6oVw5BhfJf5RBysPUum1d/5adlDR/ckuKIz3bExTSOcR7XSl2ZsPUE4Yv6ERQ1ng6Ne7I4t4/xw9InkpRswNGrmKXgCXCtRNcJWzkRvoh+QVGM79CYnouvWs6RK5W6TmDriXAW9QsianwHGvdcTP5qO1UfyIIpoVz8piP9VynB01L+JGm8a9DhrR70m7iVU4d+oVdlR8uSPAXXQ4N3sSKQeZMbd31K08hAerpS6FQM78KW66VyxdVFT/xlCcNCCCH+fRKGH5ueyzsPsC7p7vRi71eFdxsXwUY5xX6+lg/Y3abCJ+R5hvV7gaoOKgw3ovlmzHaOPol3jTVFCfI1J86Mk5FsuZFXL/2NG8RlqilT0tM8HrI+hdireQO//fWApWzTz8MyxrKB1LR7v1AkJyYRvV9RzA2Heq6GR3LCvTzDRr3DlFf9cDWG35xEopWHAls/L0qZDiGHg/tOk3j7EJQHi/gUMmwLUUhZln07yOuJW7aYzaYnElfKtxvOis3jaJqxmmXbHu1TgbqodfwRXZhGL71gKXk8+rhlLDZXDNfy7Ri+YjPjmmawetk2MvVxLFu82fwg5VqedsNXsHlcUzJWL+Peaqvxf2MKCz70YEnPXsrDU760/ISobJ1wdX7Q2NUF1UODf7PmVNEcY+/u/MPcpXA44hyeL77CC7dbjY0PSyoKOTz2p/+EEEKIxyZh+AnQ3zjFN+P2cfyut7ezuJyQAZ4h/F/zYqagaNDltZhqdQZsS9VhZOcACitBMC1qJwMXXbR8gExnGZtYr6xnmlBerDcWm+iUQnPYNChlevO0XlnX+K+6MKFNy2JslDbcimLMpENEZij7vRXLzMXHuWJQ41u7MvWM3TgM6WzbeIqruiyOrz7ITlOrngFtjmWbD03ZZv2qNHE3Jlo9pw+f4a6Gbt11JZRm06KZr6WbhDEcH+D73+KUYOtOs7fa8m6IcisW8qJ8gAZ1USUYVnNS4pKBG/s28cX6eNKU47txcg+Td6Sg8g6mrEcyCcbvobbIjg1j4tzo291RNG7F8HIPpkKIcY+W86RsQzmNFsr5zHeQ+uRdDO89nrhmIxjR4U9ahlNPsHzqL+xJ+JNQmh1L2MS5ROdVjGJe7gRXCFHORTaxYROZm7cQt2JeuAdXwFRtYx2Va523BxdqDVnIjw3iCT/zEO8kPGwdFXrlZBjPT8Fr/nk9bCr2YUx/X/4YPZGIO34Pkrd/z6RTLzJq5GtYesUom7vO9eRClAkqbSkQQggh/j2aYQrLtPgrsq6w/oCK6iFZ/LH6KBGJmSQnxLHx9w3MjvXlw09b0a6ErZL+rrF+0S7Com+ZAltGtppy5UtTzjWZrZtjiFeCSELkeU5nGThz6Di7LmUpEc5Aao4NwcGuxG3ayZx917ipBDh9hg7bksXxTzzC5N+jOZOmFBqyyLLx4rlniuAbGEDZrIvsjE4hPiaK+b/tY2mElkZdG9LYU4PKyZuqPqnsCb9CzLlIFq46yimfAPxiLnEhR42tVovepwS1fO/pAHpfKkdv6lVyJvHMJY5HRrMpOkMJ1WmcPxXNqu1xeDZvxOv+ue3jKrQXTjB9wyn2x6SRnhjD+n03KPV6awZWd8VWZUdQBS8yTp3lSMItovcfZNaKCHbnBPFh5yC87bxRHZ/OanVbutR2V6K4gZSjm/h941o2bN7Jri1rCft5Ny69xjO0aRGu7FnE9Gnz2X4yCY1PGYL99BxdMoVpi8OJuZHE1bPh7Fi3hBkz1pPV9Btmj25PmdzUfh/ZB8bQoecIVqbUoEeLQEur+L0MKUfZ9PtG1m7YzM5dW1gb9jO7XXoxfmhTimlSOLrpdzau3cDmnbvYsjaMn3e70Gv8UJp6xrFnyUymTd/GtaLlCAr2N3cxUbtR6cWq5ByPJ7hlXYo/4HH24epoHGf4FyZPX8zBc5k4+gURFOLL7R4o2tiHrIc9JRu8Rn3DWsZNWc3+w3vZtnYJYeHFeH/qGNoG3LH3W5uZPOYmLUZ24zkX4wOUEEII8e9RGRSWafFX5NzgQpIzAcWUP/a6TC6ejeN0khbHYt5UDixs6Rbwb9CTHn+FwxdS0bsWpVI5j3vGO9beTCA8MhldUV+q+hs4F5mKg18R/ArbPsZbBjkkxMRx6koaGdhStLgPFfyd84ads9BdSyLOzQ3P5DjCz2fgHODPs8XyraXP5tKZi0QlG3D396WKj8PtemmPjiR0mDuzfu2F31+v7ONJWszgKf4MHlTrdov3U+cprOONZT1ovbMzq8Y2JN/YE0IIIcQ/TsKw+I/K4sS0j1hQfBBft/Q2hWSV8TuhFbm39IPmH2Xdguiv7GPJ8ihKtOtM3dvv/xfsUff1KPPG6dzy/B62jnduI/+2c6eNHmf+9nTqfsZ8toHqXw+knpupSAghhPhXSRgWBdKmp5GU+Wd9TdU4ujrhbBkh4p+XSfT65Zzxb0loyD/cxmjsX6tWP0YL+j/gaatj9nm2hkXg3OIVqno81WdOCCGEFZEwLAqg5fDsybz2a+IDvz0PtQfdv32fIf/cV9cJIYQQQjxREoZFgbJTb5GYnjtqxX2oNDi7ueB697hxQgghhBD/GRKGhRBCCCGE1ZKOe0IIIYQQwmpJGBZCCCGEEFZLwrAQQgghhLBaEoaFEEIIIYTVkjAshBBCCCGsloRhIYQQQghhtSQMCyGEEEIIqyVhWAghhBBCWC0Jw0IIIYQQwmpJGBZCCCGEEFZLwrAQQgghhLBaEoaFEEIIIYTVkjAshBBCCCGsloRhIYQQQghhtSQMCyGEEEIIqyVhWAghhBBCWC0Jw0IIIYQQwmpJGBZCCCGEEFZLwrAQQgghhLBaEoaFEEIIIYTVkjAshBBCCCGsloRhIYQQQghhtSQMCyGEEEIIqyVhWAghhBBCWC0Jw0IIIYQQwmpJGBZCCCGEEFZLwrAQQgghhLBaEoaFEEIIIYTVkjAshBBCCCGsloRhIYQQQghhtSQMCyGEEEIIqyVhWAghhBBCWCn4f50MJYOXkbb8AAAAAElFTkSuQmCC;" parent="1" vertex="1">
          <mxGeometry x="-1040" y="650" width="1031.85" height="732.22" as="geometry" />
        </mxCell>
        <mxCell id="IEiortbo1h3j8OMEW61c-2" value="&lt;h1 style=&quot;text-align: center; line-height: 40%; font-size: 54px;&quot;&gt;&lt;font style=&quot;font-size: 54px;&quot;&gt;Data Model&lt;/font&gt;&lt;/h1&gt;&lt;pre style=&quot;line-height: 40%; font-size: 54px;&quot;&gt;&lt;font style=&quot;font-size: 54px;&quot;&gt;Used To Impelementation&lt;/font&gt;&lt;/pre&gt;" style="text;html=1;strokeColor=#6c8ebf;fillColor=#dae8fc;spacing=5;spacingTop=-20;whiteSpace=wrap;overflow=hidden;rounded=0;" parent="1" vertex="1">
          <mxGeometry x="-970" y="1470" width="830" height="190" as="geometry" />
        </mxCell>
        <mxCell id="IEiortbo1h3j8OMEW61c-16" value="&lt;font style=&quot;font-size: 17px;&quot;&gt;Employee&lt;/font&gt;" style="shape=table;startSize=30;container=1;collapsible=1;childLayout=tableLayout;fixedRows=1;rowLines=0;fontStyle=1;align=center;resizeLast=1;html=1;" parent="1" vertex="1">
          <mxGeometry x="-380" y="1960" width="180" height="420" as="geometry">
            <mxRectangle x="-170" y="2300" width="120" height="30" as="alternateBounds" />
          </mxGeometry>
        </mxCell>
        <mxCell id="IEiortbo1h3j8OMEW61c-17" value="" style="shape=tableRow;horizontal=0;startSize=0;swimlaneHead=0;swimlaneBody=0;fillColor=none;collapsible=0;dropTarget=0;points=[[0,0.5],[1,0.5]];portConstraint=eastwest;top=0;left=0;right=0;bottom=1;" parent="IEiortbo1h3j8OMEW61c-16" vertex="1">
          <mxGeometry y="30" width="180" height="60" as="geometry" />
        </mxCell>
        <mxCell id="IEiortbo1h3j8OMEW61c-18" value="PK" style="shape=partialRectangle;connectable=0;fillColor=none;top=0;left=0;bottom=0;right=0;fontStyle=1;overflow=hidden;whiteSpace=wrap;html=1;" parent="IEiortbo1h3j8OMEW61c-17" vertex="1">
          <mxGeometry width="30" height="60" as="geometry">
            <mxRectangle width="30" height="60" as="alternateBounds" />
          </mxGeometry>
        </mxCell>
        <mxCell id="IEiortbo1h3j8OMEW61c-19" value="SSN" style="shape=partialRectangle;connectable=0;fillColor=none;top=0;left=0;bottom=0;right=0;align=left;spacingLeft=6;fontStyle=5;overflow=hidden;whiteSpace=wrap;html=1;" parent="IEiortbo1h3j8OMEW61c-17" vertex="1">
          <mxGeometry x="30" width="150" height="60" as="geometry">
            <mxRectangle width="150" height="60" as="alternateBounds" />
          </mxGeometry>
        </mxCell>
        <mxCell id="IEiortbo1h3j8OMEW61c-20" value="" style="shape=tableRow;horizontal=0;startSize=0;swimlaneHead=0;swimlaneBody=0;fillColor=none;collapsible=0;dropTarget=0;points=[[0,0.5],[1,0.5]];portConstraint=eastwest;top=0;left=0;right=0;bottom=0;" parent="IEiortbo1h3j8OMEW61c-16" vertex="1">
          <mxGeometry y="90" width="180" height="30" as="geometry" />
        </mxCell>
        <mxCell id="IEiortbo1h3j8OMEW61c-21" value="" style="shape=partialRectangle;connectable=0;fillColor=none;top=0;left=0;bottom=0;right=0;editable=1;overflow=hidden;whiteSpace=wrap;html=1;" parent="IEiortbo1h3j8OMEW61c-20" vertex="1">
          <mxGeometry width="30" height="30" as="geometry">
            <mxRectangle width="30" height="30" as="alternateBounds" />
          </mxGeometry>
        </mxCell>
        <mxCell id="IEiortbo1h3j8OMEW61c-22" value="&amp;nbsp;ID" style="shape=partialRectangle;connectable=0;fillColor=none;top=0;left=0;bottom=0;right=0;align=left;spacingLeft=6;overflow=hidden;whiteSpace=wrap;html=1;" parent="IEiortbo1h3j8OMEW61c-20" vertex="1">
          <mxGeometry x="30" width="150" height="30" as="geometry">
            <mxRectangle width="150" height="30" as="alternateBounds" />
          </mxGeometry>
        </mxCell>
        <mxCell id="IEiortbo1h3j8OMEW61c-23" value="" style="shape=tableRow;horizontal=0;startSize=0;swimlaneHead=0;swimlaneBody=0;fillColor=none;collapsible=0;dropTarget=0;points=[[0,0.5],[1,0.5]];portConstraint=eastwest;top=0;left=0;right=0;bottom=0;" parent="IEiortbo1h3j8OMEW61c-16" vertex="1">
          <mxGeometry y="120" width="180" height="30" as="geometry" />
        </mxCell>
        <mxCell id="IEiortbo1h3j8OMEW61c-24" value="" style="shape=partialRectangle;connectable=0;fillColor=none;top=0;left=0;bottom=0;right=0;editable=1;overflow=hidden;whiteSpace=wrap;html=1;" parent="IEiortbo1h3j8OMEW61c-23" vertex="1">
          <mxGeometry width="30" height="30" as="geometry">
            <mxRectangle width="30" height="30" as="alternateBounds" />
          </mxGeometry>
        </mxCell>
        <mxCell id="IEiortbo1h3j8OMEW61c-25" value="Name" style="shape=partialRectangle;connectable=0;fillColor=none;top=0;left=0;bottom=0;right=0;align=left;spacingLeft=6;overflow=hidden;whiteSpace=wrap;html=1;" parent="IEiortbo1h3j8OMEW61c-23" vertex="1">
          <mxGeometry x="30" width="150" height="30" as="geometry">
            <mxRectangle width="150" height="30" as="alternateBounds" />
          </mxGeometry>
        </mxCell>
        <mxCell id="IEiortbo1h3j8OMEW61c-26" value="" style="shape=tableRow;horizontal=0;startSize=0;swimlaneHead=0;swimlaneBody=0;fillColor=none;collapsible=0;dropTarget=0;points=[[0,0.5],[1,0.5]];portConstraint=eastwest;top=0;left=0;right=0;bottom=0;" parent="IEiortbo1h3j8OMEW61c-16" vertex="1">
          <mxGeometry y="150" width="180" height="30" as="geometry" />
        </mxCell>
        <mxCell id="IEiortbo1h3j8OMEW61c-27" value="" style="shape=partialRectangle;connectable=0;fillColor=none;top=0;left=0;bottom=0;right=0;editable=1;overflow=hidden;whiteSpace=wrap;html=1;" parent="IEiortbo1h3j8OMEW61c-26" vertex="1">
          <mxGeometry width="30" height="30" as="geometry">
            <mxRectangle width="30" height="30" as="alternateBounds" />
          </mxGeometry>
        </mxCell>
        <mxCell id="IEiortbo1h3j8OMEW61c-28" value="Salary" style="shape=partialRectangle;connectable=0;fillColor=none;top=0;left=0;bottom=0;right=0;align=left;spacingLeft=6;overflow=hidden;whiteSpace=wrap;html=1;" parent="IEiortbo1h3j8OMEW61c-26" vertex="1">
          <mxGeometry x="30" width="150" height="30" as="geometry">
            <mxRectangle width="150" height="30" as="alternateBounds" />
          </mxGeometry>
        </mxCell>
        <mxCell id="IEiortbo1h3j8OMEW61c-29" value="" style="shape=tableRow;horizontal=0;startSize=0;swimlaneHead=0;swimlaneBody=0;fillColor=none;collapsible=0;dropTarget=0;points=[[0,0.5],[1,0.5]];portConstraint=eastwest;top=0;left=0;right=0;bottom=0;" parent="IEiortbo1h3j8OMEW61c-16" vertex="1">
          <mxGeometry y="180" width="180" height="30" as="geometry" />
        </mxCell>
        <mxCell id="IEiortbo1h3j8OMEW61c-30" value="" style="shape=partialRectangle;connectable=0;fillColor=none;top=0;left=0;bottom=0;right=0;editable=1;overflow=hidden;whiteSpace=wrap;html=1;" parent="IEiortbo1h3j8OMEW61c-29" vertex="1">
          <mxGeometry width="30" height="30" as="geometry">
            <mxRectangle width="30" height="30" as="alternateBounds" />
          </mxGeometry>
        </mxCell>
        <mxCell id="IEiortbo1h3j8OMEW61c-31" value="Street&amp;nbsp;" style="shape=partialRectangle;connectable=0;fillColor=none;top=0;left=0;bottom=0;right=0;align=left;spacingLeft=6;overflow=hidden;whiteSpace=wrap;html=1;" parent="IEiortbo1h3j8OMEW61c-29" vertex="1">
          <mxGeometry x="30" width="150" height="30" as="geometry">
            <mxRectangle width="150" height="30" as="alternateBounds" />
          </mxGeometry>
        </mxCell>
        <mxCell id="IEiortbo1h3j8OMEW61c-32" value="" style="shape=tableRow;horizontal=0;startSize=0;swimlaneHead=0;swimlaneBody=0;fillColor=none;collapsible=0;dropTarget=0;points=[[0,0.5],[1,0.5]];portConstraint=eastwest;top=0;left=0;right=0;bottom=0;" parent="IEiortbo1h3j8OMEW61c-16" vertex="1">
          <mxGeometry y="210" width="180" height="30" as="geometry" />
        </mxCell>
        <mxCell id="IEiortbo1h3j8OMEW61c-33" value="" style="shape=partialRectangle;connectable=0;fillColor=none;top=0;left=0;bottom=0;right=0;editable=1;overflow=hidden;whiteSpace=wrap;html=1;" parent="IEiortbo1h3j8OMEW61c-32" vertex="1">
          <mxGeometry width="30" height="30" as="geometry">
            <mxRectangle width="30" height="30" as="alternateBounds" />
          </mxGeometry>
        </mxCell>
        <mxCell id="IEiortbo1h3j8OMEW61c-34" value="City" style="shape=partialRectangle;connectable=0;fillColor=none;top=0;left=0;bottom=0;right=0;align=left;spacingLeft=6;overflow=hidden;whiteSpace=wrap;html=1;" parent="IEiortbo1h3j8OMEW61c-32" vertex="1">
          <mxGeometry x="30" width="150" height="30" as="geometry">
            <mxRectangle width="150" height="30" as="alternateBounds" />
          </mxGeometry>
        </mxCell>
        <mxCell id="IEiortbo1h3j8OMEW61c-35" value="" style="shape=tableRow;horizontal=0;startSize=0;swimlaneHead=0;swimlaneBody=0;fillColor=none;collapsible=0;dropTarget=0;points=[[0,0.5],[1,0.5]];portConstraint=eastwest;top=0;left=0;right=0;bottom=0;" parent="IEiortbo1h3j8OMEW61c-16" vertex="1">
          <mxGeometry y="240" width="180" height="30" as="geometry" />
        </mxCell>
        <mxCell id="IEiortbo1h3j8OMEW61c-36" value="&lt;b&gt;FK&lt;/b&gt;" style="shape=partialRectangle;connectable=0;fillColor=none;top=0;left=0;bottom=0;right=0;editable=1;overflow=hidden;whiteSpace=wrap;html=1;" parent="IEiortbo1h3j8OMEW61c-35" vertex="1">
          <mxGeometry width="30" height="30" as="geometry">
            <mxRectangle width="30" height="30" as="alternateBounds" />
          </mxGeometry>
        </mxCell>
        <mxCell id="IEiortbo1h3j8OMEW61c-37" value="DNO" style="shape=partialRectangle;connectable=0;fillColor=none;top=0;left=0;bottom=0;right=0;align=left;spacingLeft=6;overflow=hidden;whiteSpace=wrap;html=1;" parent="IEiortbo1h3j8OMEW61c-35" vertex="1">
          <mxGeometry x="30" width="150" height="30" as="geometry">
            <mxRectangle width="150" height="30" as="alternateBounds" />
          </mxGeometry>
        </mxCell>
        <mxCell id="IEiortbo1h3j8OMEW61c-110" value="" style="shape=tableRow;horizontal=0;startSize=0;swimlaneHead=0;swimlaneBody=0;fillColor=none;collapsible=0;dropTarget=0;points=[[0,0.5],[1,0.5]];portConstraint=eastwest;top=0;left=0;right=0;bottom=0;" parent="IEiortbo1h3j8OMEW61c-16" vertex="1">
          <mxGeometry y="270" width="180" height="30" as="geometry" />
        </mxCell>
        <mxCell id="IEiortbo1h3j8OMEW61c-111" value="&lt;b&gt;FK&lt;/b&gt;" style="shape=partialRectangle;connectable=0;fillColor=none;top=0;left=0;bottom=0;right=0;editable=1;overflow=hidden;whiteSpace=wrap;html=1;" parent="IEiortbo1h3j8OMEW61c-110" vertex="1">
          <mxGeometry width="30" height="30" as="geometry">
            <mxRectangle width="30" height="30" as="alternateBounds" />
          </mxGeometry>
        </mxCell>
        <mxCell id="IEiortbo1h3j8OMEW61c-112" value="MGR_SSN" style="shape=partialRectangle;connectable=0;fillColor=none;top=0;left=0;bottom=0;right=0;align=left;spacingLeft=6;overflow=hidden;whiteSpace=wrap;html=1;" parent="IEiortbo1h3j8OMEW61c-110" vertex="1">
          <mxGeometry x="30" width="150" height="30" as="geometry">
            <mxRectangle width="150" height="30" as="alternateBounds" />
          </mxGeometry>
        </mxCell>
        <mxCell id="IEiortbo1h3j8OMEW61c-41" value="" style="shape=tableRow;horizontal=0;startSize=0;swimlaneHead=0;swimlaneBody=0;fillColor=none;collapsible=0;dropTarget=0;points=[[0,0.5],[1,0.5]];portConstraint=eastwest;top=0;left=0;right=0;bottom=0;" parent="IEiortbo1h3j8OMEW61c-16" vertex="1">
          <mxGeometry y="300" width="180" height="30" as="geometry" />
        </mxCell>
        <mxCell id="IEiortbo1h3j8OMEW61c-42" value="&lt;b&gt;FK&lt;/b&gt;" style="shape=partialRectangle;connectable=0;fillColor=none;top=0;left=0;bottom=0;right=0;editable=1;overflow=hidden;whiteSpace=wrap;html=1;" parent="IEiortbo1h3j8OMEW61c-41" vertex="1">
          <mxGeometry width="30" height="30" as="geometry">
            <mxRectangle width="30" height="30" as="alternateBounds" />
          </mxGeometry>
        </mxCell>
        <mxCell id="IEiortbo1h3j8OMEW61c-43" value="PlateNO" style="shape=partialRectangle;connectable=0;fillColor=none;top=0;left=0;bottom=0;right=0;align=left;spacingLeft=6;overflow=hidden;whiteSpace=wrap;html=1;" parent="IEiortbo1h3j8OMEW61c-41" vertex="1">
          <mxGeometry x="30" width="150" height="30" as="geometry">
            <mxRectangle width="150" height="30" as="alternateBounds" />
          </mxGeometry>
        </mxCell>
        <mxCell id="IEiortbo1h3j8OMEW61c-44" value="" style="shape=tableRow;horizontal=0;startSize=0;swimlaneHead=0;swimlaneBody=0;fillColor=none;collapsible=0;dropTarget=0;points=[[0,0.5],[1,0.5]];portConstraint=eastwest;top=0;left=0;right=0;bottom=0;" parent="IEiortbo1h3j8OMEW61c-16" vertex="1">
          <mxGeometry y="330" width="180" height="30" as="geometry" />
        </mxCell>
        <mxCell id="IEiortbo1h3j8OMEW61c-45" value="" style="shape=partialRectangle;connectable=0;fillColor=none;top=0;left=0;bottom=0;right=0;editable=1;overflow=hidden;whiteSpace=wrap;html=1;" parent="IEiortbo1h3j8OMEW61c-44" vertex="1">
          <mxGeometry width="30" height="30" as="geometry">
            <mxRectangle width="30" height="30" as="alternateBounds" />
          </mxGeometry>
        </mxCell>
        <mxCell id="IEiortbo1h3j8OMEW61c-46" value="Contract_ID" style="shape=partialRectangle;connectable=0;fillColor=none;top=0;left=0;bottom=0;right=0;align=left;spacingLeft=6;overflow=hidden;whiteSpace=wrap;html=1;" parent="IEiortbo1h3j8OMEW61c-44" vertex="1">
          <mxGeometry x="30" width="150" height="30" as="geometry">
            <mxRectangle width="150" height="30" as="alternateBounds" />
          </mxGeometry>
        </mxCell>
        <mxCell id="IEiortbo1h3j8OMEW61c-47" value="" style="shape=tableRow;horizontal=0;startSize=0;swimlaneHead=0;swimlaneBody=0;fillColor=none;collapsible=0;dropTarget=0;points=[[0,0.5],[1,0.5]];portConstraint=eastwest;top=0;left=0;right=0;bottom=0;" parent="IEiortbo1h3j8OMEW61c-16" vertex="1">
          <mxGeometry y="360" width="180" height="30" as="geometry" />
        </mxCell>
        <mxCell id="IEiortbo1h3j8OMEW61c-48" value="" style="shape=partialRectangle;connectable=0;fillColor=none;top=0;left=0;bottom=0;right=0;editable=1;overflow=hidden;whiteSpace=wrap;html=1;" parent="IEiortbo1h3j8OMEW61c-47" vertex="1">
          <mxGeometry width="30" height="30" as="geometry">
            <mxRectangle width="30" height="30" as="alternateBounds" />
          </mxGeometry>
        </mxCell>
        <mxCell id="IEiortbo1h3j8OMEW61c-49" value="Type" style="shape=partialRectangle;connectable=0;fillColor=none;top=0;left=0;bottom=0;right=0;align=left;spacingLeft=6;overflow=hidden;whiteSpace=wrap;html=1;" parent="IEiortbo1h3j8OMEW61c-47" vertex="1">
          <mxGeometry x="30" width="150" height="30" as="geometry">
            <mxRectangle width="150" height="30" as="alternateBounds" />
          </mxGeometry>
        </mxCell>
        <mxCell id="IEiortbo1h3j8OMEW61c-50" value="" style="shape=tableRow;horizontal=0;startSize=0;swimlaneHead=0;swimlaneBody=0;fillColor=none;collapsible=0;dropTarget=0;points=[[0,0.5],[1,0.5]];portConstraint=eastwest;top=0;left=0;right=0;bottom=0;" parent="IEiortbo1h3j8OMEW61c-16" vertex="1">
          <mxGeometry y="390" width="180" height="30" as="geometry" />
        </mxCell>
        <mxCell id="IEiortbo1h3j8OMEW61c-51" value="" style="shape=partialRectangle;connectable=0;fillColor=none;top=0;left=0;bottom=0;right=0;editable=1;overflow=hidden;whiteSpace=wrap;html=1;" parent="IEiortbo1h3j8OMEW61c-50" vertex="1">
          <mxGeometry width="30" height="30" as="geometry">
            <mxRectangle width="30" height="30" as="alternateBounds" />
          </mxGeometry>
        </mxCell>
        <mxCell id="IEiortbo1h3j8OMEW61c-52" value="ST_Date" style="shape=partialRectangle;connectable=0;fillColor=none;top=0;left=0;bottom=0;right=0;align=left;spacingLeft=6;overflow=hidden;whiteSpace=wrap;html=1;" parent="IEiortbo1h3j8OMEW61c-50" vertex="1">
          <mxGeometry x="30" width="150" height="30" as="geometry">
            <mxRectangle width="150" height="30" as="alternateBounds" />
          </mxGeometry>
        </mxCell>
        <mxCell id="IEiortbo1h3j8OMEW61c-67" value="&lt;font style=&quot;font-size: 17px;&quot;&gt;Emp_Phone&lt;/font&gt;" style="shape=table;startSize=30;container=1;collapsible=1;childLayout=tableLayout;fixedRows=1;rowLines=0;fontStyle=1;align=center;resizeLast=1;html=1;whiteSpace=wrap;" parent="1" vertex="1">
          <mxGeometry x="-80" y="1800" width="180" height="90" as="geometry" />
        </mxCell>
        <mxCell id="IEiortbo1h3j8OMEW61c-68" value="" style="shape=tableRow;horizontal=0;startSize=0;swimlaneHead=0;swimlaneBody=0;fillColor=none;collapsible=0;dropTarget=0;points=[[0,0.5],[1,0.5]];portConstraint=eastwest;top=0;left=0;right=0;bottom=0;html=1;" parent="IEiortbo1h3j8OMEW61c-67" vertex="1">
          <mxGeometry y="30" width="180" height="30" as="geometry" />
        </mxCell>
        <mxCell id="IEiortbo1h3j8OMEW61c-69" value="PK,FK1" style="shape=partialRectangle;connectable=0;fillColor=none;top=0;left=0;bottom=0;right=0;fontStyle=1;overflow=hidden;html=1;whiteSpace=wrap;" parent="IEiortbo1h3j8OMEW61c-68" vertex="1">
          <mxGeometry width="60" height="30" as="geometry">
            <mxRectangle width="60" height="30" as="alternateBounds" />
          </mxGeometry>
        </mxCell>
        <mxCell id="IEiortbo1h3j8OMEW61c-70" value="SSN" style="shape=partialRectangle;connectable=0;fillColor=none;top=0;left=0;bottom=0;right=0;align=left;spacingLeft=6;fontStyle=5;overflow=hidden;html=1;whiteSpace=wrap;" parent="IEiortbo1h3j8OMEW61c-68" vertex="1">
          <mxGeometry x="60" width="120" height="30" as="geometry">
            <mxRectangle width="120" height="30" as="alternateBounds" />
          </mxGeometry>
        </mxCell>
        <mxCell id="IEiortbo1h3j8OMEW61c-71" value="" style="shape=tableRow;horizontal=0;startSize=0;swimlaneHead=0;swimlaneBody=0;fillColor=none;collapsible=0;dropTarget=0;points=[[0,0.5],[1,0.5]];portConstraint=eastwest;top=0;left=0;right=0;bottom=1;html=1;" parent="IEiortbo1h3j8OMEW61c-67" vertex="1">
          <mxGeometry y="60" width="180" height="30" as="geometry" />
        </mxCell>
        <mxCell id="IEiortbo1h3j8OMEW61c-72" value="PK" style="shape=partialRectangle;connectable=0;fillColor=none;top=0;left=0;bottom=0;right=0;fontStyle=1;overflow=hidden;html=1;whiteSpace=wrap;" parent="IEiortbo1h3j8OMEW61c-71" vertex="1">
          <mxGeometry width="60" height="30" as="geometry">
            <mxRectangle width="60" height="30" as="alternateBounds" />
          </mxGeometry>
        </mxCell>
        <mxCell id="IEiortbo1h3j8OMEW61c-73" value="Phone" style="shape=partialRectangle;connectable=0;fillColor=none;top=0;left=0;bottom=0;right=0;align=left;spacingLeft=6;fontStyle=5;overflow=hidden;html=1;whiteSpace=wrap;" parent="IEiortbo1h3j8OMEW61c-71" vertex="1">
          <mxGeometry x="60" width="120" height="30" as="geometry">
            <mxRectangle width="120" height="30" as="alternateBounds" />
          </mxGeometry>
        </mxCell>
        <mxCell id="IEiortbo1h3j8OMEW61c-84" value="&lt;font style=&quot;font-size: 17px;&quot;&gt;Dept&lt;/font&gt;" style="shape=table;startSize=30;container=1;collapsible=1;childLayout=tableLayout;fixedRows=1;rowLines=0;fontStyle=1;align=center;resizeLast=1;html=1;" parent="1" vertex="1">
          <mxGeometry x="-39.99999999999997" y="2270" width="180" height="180" as="geometry" />
        </mxCell>
        <mxCell id="IEiortbo1h3j8OMEW61c-85" value="" style="shape=tableRow;horizontal=0;startSize=0;swimlaneHead=0;swimlaneBody=0;fillColor=none;collapsible=0;dropTarget=0;points=[[0,0.5],[1,0.5]];portConstraint=eastwest;top=0;left=0;right=0;bottom=1;" parent="IEiortbo1h3j8OMEW61c-84" vertex="1">
          <mxGeometry y="30" width="180" height="30" as="geometry" />
        </mxCell>
        <mxCell id="IEiortbo1h3j8OMEW61c-86" value="PK" style="shape=partialRectangle;connectable=0;fillColor=none;top=0;left=0;bottom=0;right=0;fontStyle=1;overflow=hidden;whiteSpace=wrap;html=1;" parent="IEiortbo1h3j8OMEW61c-85" vertex="1">
          <mxGeometry width="30" height="30" as="geometry">
            <mxRectangle width="30" height="30" as="alternateBounds" />
          </mxGeometry>
        </mxCell>
        <mxCell id="IEiortbo1h3j8OMEW61c-87" value="DNO" style="shape=partialRectangle;connectable=0;fillColor=none;top=0;left=0;bottom=0;right=0;align=left;spacingLeft=6;fontStyle=5;overflow=hidden;whiteSpace=wrap;html=1;" parent="IEiortbo1h3j8OMEW61c-85" vertex="1">
          <mxGeometry x="30" width="150" height="30" as="geometry">
            <mxRectangle width="150" height="30" as="alternateBounds" />
          </mxGeometry>
        </mxCell>
        <mxCell id="IEiortbo1h3j8OMEW61c-88" value="" style="shape=tableRow;horizontal=0;startSize=0;swimlaneHead=0;swimlaneBody=0;fillColor=none;collapsible=0;dropTarget=0;points=[[0,0.5],[1,0.5]];portConstraint=eastwest;top=0;left=0;right=0;bottom=0;" parent="IEiortbo1h3j8OMEW61c-84" vertex="1">
          <mxGeometry y="60" width="180" height="30" as="geometry" />
        </mxCell>
        <mxCell id="IEiortbo1h3j8OMEW61c-89" value="" style="shape=partialRectangle;connectable=0;fillColor=none;top=0;left=0;bottom=0;right=0;editable=1;overflow=hidden;whiteSpace=wrap;html=1;" parent="IEiortbo1h3j8OMEW61c-88" vertex="1">
          <mxGeometry width="30" height="30" as="geometry">
            <mxRectangle width="30" height="30" as="alternateBounds" />
          </mxGeometry>
        </mxCell>
        <mxCell id="IEiortbo1h3j8OMEW61c-90" value="Dname" style="shape=partialRectangle;connectable=0;fillColor=none;top=0;left=0;bottom=0;right=0;align=left;spacingLeft=6;overflow=hidden;whiteSpace=wrap;html=1;" parent="IEiortbo1h3j8OMEW61c-88" vertex="1">
          <mxGeometry x="30" width="150" height="30" as="geometry">
            <mxRectangle width="150" height="30" as="alternateBounds" />
          </mxGeometry>
        </mxCell>
        <mxCell id="IEiortbo1h3j8OMEW61c-91" value="" style="shape=tableRow;horizontal=0;startSize=0;swimlaneHead=0;swimlaneBody=0;fillColor=none;collapsible=0;dropTarget=0;points=[[0,0.5],[1,0.5]];portConstraint=eastwest;top=0;left=0;right=0;bottom=0;" parent="IEiortbo1h3j8OMEW61c-84" vertex="1">
          <mxGeometry y="90" width="180" height="30" as="geometry" />
        </mxCell>
        <mxCell id="IEiortbo1h3j8OMEW61c-92" value="" style="shape=partialRectangle;connectable=0;fillColor=none;top=0;left=0;bottom=0;right=0;editable=1;overflow=hidden;whiteSpace=wrap;html=1;" parent="IEiortbo1h3j8OMEW61c-91" vertex="1">
          <mxGeometry width="30" height="30" as="geometry">
            <mxRectangle width="30" height="30" as="alternateBounds" />
          </mxGeometry>
        </mxCell>
        <mxCell id="IEiortbo1h3j8OMEW61c-93" value="DLOC" style="shape=partialRectangle;connectable=0;fillColor=none;top=0;left=0;bottom=0;right=0;align=left;spacingLeft=6;overflow=hidden;whiteSpace=wrap;html=1;" parent="IEiortbo1h3j8OMEW61c-91" vertex="1">
          <mxGeometry x="30" width="150" height="30" as="geometry">
            <mxRectangle width="150" height="30" as="alternateBounds" />
          </mxGeometry>
        </mxCell>
        <mxCell id="IEiortbo1h3j8OMEW61c-94" value="" style="shape=tableRow;horizontal=0;startSize=0;swimlaneHead=0;swimlaneBody=0;fillColor=none;collapsible=0;dropTarget=0;points=[[0,0.5],[1,0.5]];portConstraint=eastwest;top=0;left=0;right=0;bottom=0;" parent="IEiortbo1h3j8OMEW61c-84" vertex="1">
          <mxGeometry y="120" width="180" height="30" as="geometry" />
        </mxCell>
        <mxCell id="IEiortbo1h3j8OMEW61c-95" value="&lt;b&gt;FK&lt;/b&gt;" style="shape=partialRectangle;connectable=0;fillColor=none;top=0;left=0;bottom=0;right=0;editable=1;overflow=hidden;whiteSpace=wrap;html=1;" parent="IEiortbo1h3j8OMEW61c-94" vertex="1">
          <mxGeometry width="30" height="30" as="geometry">
            <mxRectangle width="30" height="30" as="alternateBounds" />
          </mxGeometry>
        </mxCell>
        <mxCell id="IEiortbo1h3j8OMEW61c-96" value="DMGR_SSN" style="shape=partialRectangle;connectable=0;fillColor=none;top=0;left=0;bottom=0;right=0;align=left;spacingLeft=6;overflow=hidden;whiteSpace=wrap;html=1;" parent="IEiortbo1h3j8OMEW61c-94" vertex="1">
          <mxGeometry x="30" width="150" height="30" as="geometry">
            <mxRectangle width="150" height="30" as="alternateBounds" />
          </mxGeometry>
        </mxCell>
        <mxCell id="IEiortbo1h3j8OMEW61c-97" value="" style="shape=tableRow;horizontal=0;startSize=0;swimlaneHead=0;swimlaneBody=0;fillColor=none;collapsible=0;dropTarget=0;points=[[0,0.5],[1,0.5]];portConstraint=eastwest;top=0;left=0;right=0;bottom=0;" parent="IEiortbo1h3j8OMEW61c-84" vertex="1">
          <mxGeometry y="150" width="180" height="30" as="geometry" />
        </mxCell>
        <mxCell id="IEiortbo1h3j8OMEW61c-98" value="" style="shape=partialRectangle;connectable=0;fillColor=none;top=0;left=0;bottom=0;right=0;editable=1;overflow=hidden;whiteSpace=wrap;html=1;" parent="IEiortbo1h3j8OMEW61c-97" vertex="1">
          <mxGeometry width="30" height="30" as="geometry">
            <mxRectangle width="30" height="30" as="alternateBounds" />
          </mxGeometry>
        </mxCell>
        <mxCell id="IEiortbo1h3j8OMEW61c-99" value="ST_Date" style="shape=partialRectangle;connectable=0;fillColor=none;top=0;left=0;bottom=0;right=0;align=left;spacingLeft=6;overflow=hidden;whiteSpace=wrap;html=1;" parent="IEiortbo1h3j8OMEW61c-97" vertex="1">
          <mxGeometry x="30" width="150" height="30" as="geometry">
            <mxRectangle width="150" height="30" as="alternateBounds" />
          </mxGeometry>
        </mxCell>
        <mxCell id="IEiortbo1h3j8OMEW61c-109" style="edgeStyle=orthogonalEdgeStyle;rounded=0;orthogonalLoop=1;jettySize=auto;html=1;exitX=0;exitY=0.5;exitDx=0;exitDy=0;entryX=0.997;entryY=0.821;entryDx=0;entryDy=0;entryPerimeter=0;" parent="1" source="IEiortbo1h3j8OMEW61c-94" target="IEiortbo1h3j8OMEW61c-17" edge="1">
          <mxGeometry relative="1" as="geometry" />
        </mxCell>
        <mxCell id="IEiortbo1h3j8OMEW61c-115" value="&lt;font style=&quot;font-size: 17px;&quot;&gt;Project&lt;/font&gt;" style="shape=table;startSize=30;container=1;collapsible=1;childLayout=tableLayout;fixedRows=1;rowLines=0;fontStyle=1;align=center;resizeLast=1;html=1;" parent="1" vertex="1">
          <mxGeometry x="-1130" y="2000" width="180" height="100" as="geometry" />
        </mxCell>
        <mxCell id="IEiortbo1h3j8OMEW61c-116" value="" style="shape=tableRow;horizontal=0;startSize=0;swimlaneHead=0;swimlaneBody=0;fillColor=none;collapsible=0;dropTarget=0;points=[[0,0.5],[1,0.5]];portConstraint=eastwest;top=0;left=0;right=0;bottom=1;" parent="IEiortbo1h3j8OMEW61c-115" vertex="1">
          <mxGeometry y="30" width="180" height="40" as="geometry" />
        </mxCell>
        <mxCell id="IEiortbo1h3j8OMEW61c-117" value="PK" style="shape=partialRectangle;connectable=0;fillColor=none;top=0;left=0;bottom=0;right=0;fontStyle=1;overflow=hidden;whiteSpace=wrap;html=1;" parent="IEiortbo1h3j8OMEW61c-116" vertex="1">
          <mxGeometry width="30" height="40" as="geometry">
            <mxRectangle width="30" height="40" as="alternateBounds" />
          </mxGeometry>
        </mxCell>
        <mxCell id="IEiortbo1h3j8OMEW61c-118" value="PNO" style="shape=partialRectangle;connectable=0;fillColor=none;top=0;left=0;bottom=0;right=0;align=left;spacingLeft=6;fontStyle=5;overflow=hidden;whiteSpace=wrap;html=1;" parent="IEiortbo1h3j8OMEW61c-116" vertex="1">
          <mxGeometry x="30" width="150" height="40" as="geometry">
            <mxRectangle width="150" height="40" as="alternateBounds" />
          </mxGeometry>
        </mxCell>
        <mxCell id="IEiortbo1h3j8OMEW61c-119" value="" style="shape=tableRow;horizontal=0;startSize=0;swimlaneHead=0;swimlaneBody=0;fillColor=none;collapsible=0;dropTarget=0;points=[[0,0.5],[1,0.5]];portConstraint=eastwest;top=0;left=0;right=0;bottom=0;" parent="IEiortbo1h3j8OMEW61c-115" vertex="1">
          <mxGeometry y="70" width="180" height="30" as="geometry" />
        </mxCell>
        <mxCell id="IEiortbo1h3j8OMEW61c-120" value="" style="shape=partialRectangle;connectable=0;fillColor=none;top=0;left=0;bottom=0;right=0;editable=1;overflow=hidden;whiteSpace=wrap;html=1;" parent="IEiortbo1h3j8OMEW61c-119" vertex="1">
          <mxGeometry width="30" height="30" as="geometry">
            <mxRectangle width="30" height="30" as="alternateBounds" />
          </mxGeometry>
        </mxCell>
        <mxCell id="IEiortbo1h3j8OMEW61c-121" value="PName" style="shape=partialRectangle;connectable=0;fillColor=none;top=0;left=0;bottom=0;right=0;align=left;spacingLeft=6;overflow=hidden;whiteSpace=wrap;html=1;" parent="IEiortbo1h3j8OMEW61c-119" vertex="1">
          <mxGeometry x="30" width="150" height="30" as="geometry">
            <mxRectangle width="150" height="30" as="alternateBounds" />
          </mxGeometry>
        </mxCell>
        <mxCell id="IEiortbo1h3j8OMEW61c-129" value="&lt;font style=&quot;font-size: 17px;&quot;&gt;Skill&lt;/font&gt;" style="shape=table;startSize=30;container=1;collapsible=1;childLayout=tableLayout;fixedRows=1;rowLines=0;fontStyle=1;align=center;resizeLast=1;html=1;" parent="1" vertex="1">
          <mxGeometry x="-1120" y="2200" width="180" height="90" as="geometry" />
        </mxCell>
        <mxCell id="IEiortbo1h3j8OMEW61c-130" value="" style="shape=tableRow;horizontal=0;startSize=0;swimlaneHead=0;swimlaneBody=0;fillColor=none;collapsible=0;dropTarget=0;points=[[0,0.5],[1,0.5]];portConstraint=eastwest;top=0;left=0;right=0;bottom=1;" parent="IEiortbo1h3j8OMEW61c-129" vertex="1">
          <mxGeometry y="30" width="180" height="30" as="geometry" />
        </mxCell>
        <mxCell id="IEiortbo1h3j8OMEW61c-131" value="PK" style="shape=partialRectangle;connectable=0;fillColor=none;top=0;left=0;bottom=0;right=0;fontStyle=1;overflow=hidden;whiteSpace=wrap;html=1;" parent="IEiortbo1h3j8OMEW61c-130" vertex="1">
          <mxGeometry width="30" height="30" as="geometry">
            <mxRectangle width="30" height="30" as="alternateBounds" />
          </mxGeometry>
        </mxCell>
        <mxCell id="IEiortbo1h3j8OMEW61c-132" value="SID" style="shape=partialRectangle;connectable=0;fillColor=none;top=0;left=0;bottom=0;right=0;align=left;spacingLeft=6;fontStyle=5;overflow=hidden;whiteSpace=wrap;html=1;" parent="IEiortbo1h3j8OMEW61c-130" vertex="1">
          <mxGeometry x="30" width="150" height="30" as="geometry">
            <mxRectangle width="150" height="30" as="alternateBounds" />
          </mxGeometry>
        </mxCell>
        <mxCell id="IEiortbo1h3j8OMEW61c-133" value="" style="shape=tableRow;horizontal=0;startSize=0;swimlaneHead=0;swimlaneBody=0;fillColor=none;collapsible=0;dropTarget=0;points=[[0,0.5],[1,0.5]];portConstraint=eastwest;top=0;left=0;right=0;bottom=0;" parent="IEiortbo1h3j8OMEW61c-129" vertex="1">
          <mxGeometry y="60" width="180" height="30" as="geometry" />
        </mxCell>
        <mxCell id="IEiortbo1h3j8OMEW61c-134" value="" style="shape=partialRectangle;connectable=0;fillColor=none;top=0;left=0;bottom=0;right=0;editable=1;overflow=hidden;whiteSpace=wrap;html=1;" parent="IEiortbo1h3j8OMEW61c-133" vertex="1">
          <mxGeometry width="30" height="30" as="geometry">
            <mxRectangle width="30" height="30" as="alternateBounds" />
          </mxGeometry>
        </mxCell>
        <mxCell id="IEiortbo1h3j8OMEW61c-135" value="SName" style="shape=partialRectangle;connectable=0;fillColor=none;top=0;left=0;bottom=0;right=0;align=left;spacingLeft=6;overflow=hidden;whiteSpace=wrap;html=1;" parent="IEiortbo1h3j8OMEW61c-133" vertex="1">
          <mxGeometry x="30" width="150" height="30" as="geometry">
            <mxRectangle width="150" height="30" as="alternateBounds" />
          </mxGeometry>
        </mxCell>
        <mxCell id="IEiortbo1h3j8OMEW61c-149" value="Dependent" style="shape=table;startSize=30;container=1;collapsible=1;childLayout=tableLayout;fixedRows=1;rowLines=0;fontStyle=1;align=center;resizeLast=1;html=1;whiteSpace=wrap;" parent="1" vertex="1">
          <mxGeometry x="50" y="1930" width="180" height="120" as="geometry" />
        </mxCell>
        <mxCell id="IEiortbo1h3j8OMEW61c-150" value="" style="shape=tableRow;horizontal=0;startSize=0;swimlaneHead=0;swimlaneBody=0;fillColor=none;collapsible=0;dropTarget=0;points=[[0,0.5],[1,0.5]];portConstraint=eastwest;top=0;left=0;right=0;bottom=0;html=1;" parent="IEiortbo1h3j8OMEW61c-149" vertex="1">
          <mxGeometry y="30" width="180" height="30" as="geometry" />
        </mxCell>
        <mxCell id="IEiortbo1h3j8OMEW61c-151" value="PK,FK1" style="shape=partialRectangle;connectable=0;fillColor=none;top=0;left=0;bottom=0;right=0;fontStyle=1;overflow=hidden;html=1;whiteSpace=wrap;" parent="IEiortbo1h3j8OMEW61c-150" vertex="1">
          <mxGeometry width="60" height="30" as="geometry">
            <mxRectangle width="60" height="30" as="alternateBounds" />
          </mxGeometry>
        </mxCell>
        <mxCell id="IEiortbo1h3j8OMEW61c-152" value="SSN" style="shape=partialRectangle;connectable=0;fillColor=none;top=0;left=0;bottom=0;right=0;align=left;spacingLeft=6;fontStyle=5;overflow=hidden;html=1;whiteSpace=wrap;" parent="IEiortbo1h3j8OMEW61c-150" vertex="1">
          <mxGeometry x="60" width="120" height="30" as="geometry">
            <mxRectangle width="120" height="30" as="alternateBounds" />
          </mxGeometry>
        </mxCell>
        <mxCell id="IEiortbo1h3j8OMEW61c-153" value="" style="shape=tableRow;horizontal=0;startSize=0;swimlaneHead=0;swimlaneBody=0;fillColor=none;collapsible=0;dropTarget=0;points=[[0,0.5],[1,0.5]];portConstraint=eastwest;top=0;left=0;right=0;bottom=1;html=1;" parent="IEiortbo1h3j8OMEW61c-149" vertex="1">
          <mxGeometry y="60" width="180" height="30" as="geometry" />
        </mxCell>
        <mxCell id="IEiortbo1h3j8OMEW61c-154" value="PK" style="shape=partialRectangle;connectable=0;fillColor=none;top=0;left=0;bottom=0;right=0;fontStyle=1;overflow=hidden;html=1;whiteSpace=wrap;" parent="IEiortbo1h3j8OMEW61c-153" vertex="1">
          <mxGeometry width="60" height="30" as="geometry">
            <mxRectangle width="60" height="30" as="alternateBounds" />
          </mxGeometry>
        </mxCell>
        <mxCell id="IEiortbo1h3j8OMEW61c-155" value="Name" style="shape=partialRectangle;connectable=0;fillColor=none;top=0;left=0;bottom=0;right=0;align=left;spacingLeft=6;fontStyle=5;overflow=hidden;html=1;whiteSpace=wrap;" parent="IEiortbo1h3j8OMEW61c-153" vertex="1">
          <mxGeometry x="60" width="120" height="30" as="geometry">
            <mxRectangle width="120" height="30" as="alternateBounds" />
          </mxGeometry>
        </mxCell>
        <mxCell id="IEiortbo1h3j8OMEW61c-156" value="" style="shape=tableRow;horizontal=0;startSize=0;swimlaneHead=0;swimlaneBody=0;fillColor=none;collapsible=0;dropTarget=0;points=[[0,0.5],[1,0.5]];portConstraint=eastwest;top=0;left=0;right=0;bottom=0;html=1;" parent="IEiortbo1h3j8OMEW61c-149" vertex="1">
          <mxGeometry y="90" width="180" height="30" as="geometry" />
        </mxCell>
        <mxCell id="IEiortbo1h3j8OMEW61c-157" value="" style="shape=partialRectangle;connectable=0;fillColor=none;top=0;left=0;bottom=0;right=0;editable=1;overflow=hidden;html=1;whiteSpace=wrap;" parent="IEiortbo1h3j8OMEW61c-156" vertex="1">
          <mxGeometry width="60" height="30" as="geometry">
            <mxRectangle width="60" height="30" as="alternateBounds" />
          </mxGeometry>
        </mxCell>
        <mxCell id="IEiortbo1h3j8OMEW61c-158" value="Relation" style="shape=partialRectangle;connectable=0;fillColor=none;top=0;left=0;bottom=0;right=0;align=left;spacingLeft=6;overflow=hidden;html=1;whiteSpace=wrap;" parent="IEiortbo1h3j8OMEW61c-156" vertex="1">
          <mxGeometry x="60" width="120" height="30" as="geometry">
            <mxRectangle width="120" height="30" as="alternateBounds" />
          </mxGeometry>
        </mxCell>
        <mxCell id="IEiortbo1h3j8OMEW61c-162" value="&lt;font style=&quot;font-size: 17px;&quot;&gt;Car&lt;/font&gt;" style="shape=table;startSize=30;container=1;collapsible=1;childLayout=tableLayout;fixedRows=1;rowLines=0;fontStyle=1;align=center;resizeLast=1;html=1;" parent="1" vertex="1">
          <mxGeometry x="-370" y="2510" width="180" height="120" as="geometry" />
        </mxCell>
        <mxCell id="IEiortbo1h3j8OMEW61c-163" value="" style="shape=tableRow;horizontal=0;startSize=0;swimlaneHead=0;swimlaneBody=0;fillColor=none;collapsible=0;dropTarget=0;points=[[0,0.5],[1,0.5]];portConstraint=eastwest;top=0;left=0;right=0;bottom=1;" parent="IEiortbo1h3j8OMEW61c-162" vertex="1">
          <mxGeometry y="30" width="180" height="30" as="geometry" />
        </mxCell>
        <mxCell id="IEiortbo1h3j8OMEW61c-164" value="PK" style="shape=partialRectangle;connectable=0;fillColor=none;top=0;left=0;bottom=0;right=0;fontStyle=1;overflow=hidden;whiteSpace=wrap;html=1;" parent="IEiortbo1h3j8OMEW61c-163" vertex="1">
          <mxGeometry width="30" height="30" as="geometry">
            <mxRectangle width="30" height="30" as="alternateBounds" />
          </mxGeometry>
        </mxCell>
        <mxCell id="IEiortbo1h3j8OMEW61c-165" value="PlateNO" style="shape=partialRectangle;connectable=0;fillColor=none;top=0;left=0;bottom=0;right=0;align=left;spacingLeft=6;fontStyle=5;overflow=hidden;whiteSpace=wrap;html=1;" parent="IEiortbo1h3j8OMEW61c-163" vertex="1">
          <mxGeometry x="30" width="150" height="30" as="geometry">
            <mxRectangle width="150" height="30" as="alternateBounds" />
          </mxGeometry>
        </mxCell>
        <mxCell id="IEiortbo1h3j8OMEW61c-166" value="" style="shape=tableRow;horizontal=0;startSize=0;swimlaneHead=0;swimlaneBody=0;fillColor=none;collapsible=0;dropTarget=0;points=[[0,0.5],[1,0.5]];portConstraint=eastwest;top=0;left=0;right=0;bottom=0;" parent="IEiortbo1h3j8OMEW61c-162" vertex="1">
          <mxGeometry y="60" width="180" height="30" as="geometry" />
        </mxCell>
        <mxCell id="IEiortbo1h3j8OMEW61c-167" value="" style="shape=partialRectangle;connectable=0;fillColor=none;top=0;left=0;bottom=0;right=0;editable=1;overflow=hidden;whiteSpace=wrap;html=1;" parent="IEiortbo1h3j8OMEW61c-166" vertex="1">
          <mxGeometry width="30" height="30" as="geometry">
            <mxRectangle width="30" height="30" as="alternateBounds" />
          </mxGeometry>
        </mxCell>
        <mxCell id="IEiortbo1h3j8OMEW61c-168" value="MOD" style="shape=partialRectangle;connectable=0;fillColor=none;top=0;left=0;bottom=0;right=0;align=left;spacingLeft=6;overflow=hidden;whiteSpace=wrap;html=1;" parent="IEiortbo1h3j8OMEW61c-166" vertex="1">
          <mxGeometry x="30" width="150" height="30" as="geometry">
            <mxRectangle width="150" height="30" as="alternateBounds" />
          </mxGeometry>
        </mxCell>
        <mxCell id="IEiortbo1h3j8OMEW61c-169" value="" style="shape=tableRow;horizontal=0;startSize=0;swimlaneHead=0;swimlaneBody=0;fillColor=none;collapsible=0;dropTarget=0;points=[[0,0.5],[1,0.5]];portConstraint=eastwest;top=0;left=0;right=0;bottom=0;" parent="IEiortbo1h3j8OMEW61c-162" vertex="1">
          <mxGeometry y="90" width="180" height="30" as="geometry" />
        </mxCell>
        <mxCell id="IEiortbo1h3j8OMEW61c-170" value="" style="shape=partialRectangle;connectable=0;fillColor=none;top=0;left=0;bottom=0;right=0;editable=1;overflow=hidden;whiteSpace=wrap;html=1;" parent="IEiortbo1h3j8OMEW61c-169" vertex="1">
          <mxGeometry width="30" height="30" as="geometry">
            <mxRectangle width="30" height="30" as="alternateBounds" />
          </mxGeometry>
        </mxCell>
        <mxCell id="IEiortbo1h3j8OMEW61c-171" value="Color" style="shape=partialRectangle;connectable=0;fillColor=none;top=0;left=0;bottom=0;right=0;align=left;spacingLeft=6;overflow=hidden;whiteSpace=wrap;html=1;" parent="IEiortbo1h3j8OMEW61c-169" vertex="1">
          <mxGeometry x="30" width="150" height="30" as="geometry">
            <mxRectangle width="150" height="30" as="alternateBounds" />
          </mxGeometry>
        </mxCell>
        <mxCell id="IEiortbo1h3j8OMEW61c-177" style="edgeStyle=orthogonalEdgeStyle;rounded=0;orthogonalLoop=1;jettySize=auto;html=1;exitX=1;exitY=0.5;exitDx=0;exitDy=0;entryX=0;entryY=0.5;entryDx=0;entryDy=0;" parent="1" source="IEiortbo1h3j8OMEW61c-35" target="IEiortbo1h3j8OMEW61c-85" edge="1">
          <mxGeometry relative="1" as="geometry">
            <Array as="points">
              <mxPoint x="-160" y="2215" />
              <mxPoint x="-160" y="2315" />
            </Array>
          </mxGeometry>
        </mxCell>
        <mxCell id="IEiortbo1h3j8OMEW61c-178" value="&lt;font style=&quot;font-size: 17px;&quot;&gt;Work_on&lt;/font&gt;" style="shape=table;startSize=30;container=1;collapsible=1;childLayout=tableLayout;fixedRows=1;rowLines=0;fontStyle=1;align=center;resizeLast=1;html=1;whiteSpace=wrap;" parent="1" vertex="1">
          <mxGeometry x="-780" y="1930" width="180" height="120" as="geometry" />
        </mxCell>
        <mxCell id="IEiortbo1h3j8OMEW61c-179" value="" style="shape=tableRow;horizontal=0;startSize=0;swimlaneHead=0;swimlaneBody=0;fillColor=none;collapsible=0;dropTarget=0;points=[[0,0.5],[1,0.5]];portConstraint=eastwest;top=0;left=0;right=0;bottom=0;html=1;" parent="IEiortbo1h3j8OMEW61c-178" vertex="1">
          <mxGeometry y="30" width="180" height="30" as="geometry" />
        </mxCell>
        <mxCell id="IEiortbo1h3j8OMEW61c-180" value="PK,FK1" style="shape=partialRectangle;connectable=0;fillColor=none;top=0;left=0;bottom=0;right=0;fontStyle=1;overflow=hidden;html=1;whiteSpace=wrap;" parent="IEiortbo1h3j8OMEW61c-179" vertex="1">
          <mxGeometry width="60" height="30" as="geometry">
            <mxRectangle width="60" height="30" as="alternateBounds" />
          </mxGeometry>
        </mxCell>
        <mxCell id="IEiortbo1h3j8OMEW61c-181" value="SSN" style="shape=partialRectangle;connectable=0;fillColor=none;top=0;left=0;bottom=0;right=0;align=left;spacingLeft=6;fontStyle=5;overflow=hidden;html=1;whiteSpace=wrap;" parent="IEiortbo1h3j8OMEW61c-179" vertex="1">
          <mxGeometry x="60" width="120" height="30" as="geometry">
            <mxRectangle width="120" height="30" as="alternateBounds" />
          </mxGeometry>
        </mxCell>
        <mxCell id="IEiortbo1h3j8OMEW61c-182" value="" style="shape=tableRow;horizontal=0;startSize=0;swimlaneHead=0;swimlaneBody=0;fillColor=none;collapsible=0;dropTarget=0;points=[[0,0.5],[1,0.5]];portConstraint=eastwest;top=0;left=0;right=0;bottom=1;html=1;" parent="IEiortbo1h3j8OMEW61c-178" vertex="1">
          <mxGeometry y="60" width="180" height="30" as="geometry" />
        </mxCell>
        <mxCell id="IEiortbo1h3j8OMEW61c-183" value="PK,FK2" style="shape=partialRectangle;connectable=0;fillColor=none;top=0;left=0;bottom=0;right=0;fontStyle=1;overflow=hidden;html=1;whiteSpace=wrap;" parent="IEiortbo1h3j8OMEW61c-182" vertex="1">
          <mxGeometry width="60" height="30" as="geometry">
            <mxRectangle width="60" height="30" as="alternateBounds" />
          </mxGeometry>
        </mxCell>
        <mxCell id="IEiortbo1h3j8OMEW61c-184" value="PNO" style="shape=partialRectangle;connectable=0;fillColor=none;top=0;left=0;bottom=0;right=0;align=left;spacingLeft=6;fontStyle=5;overflow=hidden;html=1;whiteSpace=wrap;" parent="IEiortbo1h3j8OMEW61c-182" vertex="1">
          <mxGeometry x="60" width="120" height="30" as="geometry">
            <mxRectangle width="120" height="30" as="alternateBounds" />
          </mxGeometry>
        </mxCell>
        <mxCell id="IEiortbo1h3j8OMEW61c-188" value="" style="shape=tableRow;horizontal=0;startSize=0;swimlaneHead=0;swimlaneBody=0;fillColor=none;collapsible=0;dropTarget=0;points=[[0,0.5],[1,0.5]];portConstraint=eastwest;top=0;left=0;right=0;bottom=0;html=1;" parent="IEiortbo1h3j8OMEW61c-178" vertex="1">
          <mxGeometry y="90" width="180" height="30" as="geometry" />
        </mxCell>
        <mxCell id="IEiortbo1h3j8OMEW61c-189" value="" style="shape=partialRectangle;connectable=0;fillColor=none;top=0;left=0;bottom=0;right=0;editable=1;overflow=hidden;html=1;whiteSpace=wrap;" parent="IEiortbo1h3j8OMEW61c-188" vertex="1">
          <mxGeometry width="60" height="30" as="geometry">
            <mxRectangle width="60" height="30" as="alternateBounds" />
          </mxGeometry>
        </mxCell>
        <mxCell id="IEiortbo1h3j8OMEW61c-190" value="Hours" style="shape=partialRectangle;connectable=0;fillColor=none;top=0;left=0;bottom=0;right=0;align=left;spacingLeft=6;overflow=hidden;html=1;whiteSpace=wrap;" parent="IEiortbo1h3j8OMEW61c-188" vertex="1">
          <mxGeometry x="60" width="120" height="30" as="geometry">
            <mxRectangle width="120" height="30" as="alternateBounds" />
          </mxGeometry>
        </mxCell>
        <mxCell id="IEiortbo1h3j8OMEW61c-196" style="edgeStyle=orthogonalEdgeStyle;rounded=0;orthogonalLoop=1;jettySize=auto;html=1;exitX=1;exitY=0.5;exitDx=0;exitDy=0;entryX=0.013;entryY=0.284;entryDx=0;entryDy=0;entryPerimeter=0;" parent="1" source="IEiortbo1h3j8OMEW61c-179" target="IEiortbo1h3j8OMEW61c-17" edge="1">
          <mxGeometry relative="1" as="geometry" />
        </mxCell>
        <mxCell id="IEiortbo1h3j8OMEW61c-207" style="edgeStyle=orthogonalEdgeStyle;rounded=0;orthogonalLoop=1;jettySize=auto;html=1;exitX=0;exitY=0.5;exitDx=0;exitDy=0;entryX=1.006;entryY=0.144;entryDx=0;entryDy=0;entryPerimeter=0;" parent="1" source="IEiortbo1h3j8OMEW61c-68" target="IEiortbo1h3j8OMEW61c-17" edge="1">
          <mxGeometry relative="1" as="geometry" />
        </mxCell>
        <mxCell id="IEiortbo1h3j8OMEW61c-214" style="edgeStyle=orthogonalEdgeStyle;rounded=0;orthogonalLoop=1;jettySize=auto;html=1;exitX=0;exitY=0.5;exitDx=0;exitDy=0;entryX=1;entryY=0.5;entryDx=0;entryDy=0;" parent="1" source="IEiortbo1h3j8OMEW61c-150" target="IEiortbo1h3j8OMEW61c-17" edge="1">
          <mxGeometry relative="1" as="geometry" />
        </mxCell>
        <mxCell id="IEiortbo1h3j8OMEW61c-215" style="edgeStyle=orthogonalEdgeStyle;rounded=0;orthogonalLoop=1;jettySize=auto;html=1;exitX=0;exitY=0.5;exitDx=0;exitDy=0;entryX=0.996;entryY=0.208;entryDx=0;entryDy=0;entryPerimeter=0;" parent="1" source="IEiortbo1h3j8OMEW61c-182" target="IEiortbo1h3j8OMEW61c-116" edge="1">
          <mxGeometry relative="1" as="geometry" />
        </mxCell>
        <mxCell id="IEiortbo1h3j8OMEW61c-216" value="&lt;font style=&quot;font-size: 17px;&quot;&gt;Skill_Use&lt;/font&gt;" style="shape=table;startSize=30;container=1;collapsible=1;childLayout=tableLayout;fixedRows=1;rowLines=0;fontStyle=1;align=center;resizeLast=1;html=1;" parent="1" vertex="1">
          <mxGeometry x="-810" y="2200" width="180" height="120" as="geometry" />
        </mxCell>
        <mxCell id="IEiortbo1h3j8OMEW61c-217" value="" style="shape=tableRow;horizontal=0;startSize=0;swimlaneHead=0;swimlaneBody=0;fillColor=none;collapsible=0;dropTarget=0;points=[[0,0.5],[1,0.5]];portConstraint=eastwest;top=0;left=0;right=0;bottom=1;" parent="IEiortbo1h3j8OMEW61c-216" vertex="1">
          <mxGeometry y="30" width="180" height="30" as="geometry" />
        </mxCell>
        <mxCell id="IEiortbo1h3j8OMEW61c-218" value="FK" style="shape=partialRectangle;connectable=0;fillColor=none;top=0;left=0;bottom=0;right=0;fontStyle=1;overflow=hidden;whiteSpace=wrap;html=1;" parent="IEiortbo1h3j8OMEW61c-217" vertex="1">
          <mxGeometry width="30" height="30" as="geometry">
            <mxRectangle width="30" height="30" as="alternateBounds" />
          </mxGeometry>
        </mxCell>
        <mxCell id="IEiortbo1h3j8OMEW61c-219" value="SID" style="shape=partialRectangle;connectable=0;fillColor=none;top=0;left=0;bottom=0;right=0;align=left;spacingLeft=6;fontStyle=5;overflow=hidden;whiteSpace=wrap;html=1;" parent="IEiortbo1h3j8OMEW61c-217" vertex="1">
          <mxGeometry x="30" width="150" height="30" as="geometry">
            <mxRectangle width="150" height="30" as="alternateBounds" />
          </mxGeometry>
        </mxCell>
        <mxCell id="IEiortbo1h3j8OMEW61c-223" value="" style="shape=tableRow;horizontal=0;startSize=0;swimlaneHead=0;swimlaneBody=0;fillColor=none;collapsible=0;dropTarget=0;points=[[0,0.5],[1,0.5]];portConstraint=eastwest;top=0;left=0;right=0;bottom=1;" parent="IEiortbo1h3j8OMEW61c-216" vertex="1">
          <mxGeometry y="60" width="180" height="30" as="geometry" />
        </mxCell>
        <mxCell id="IEiortbo1h3j8OMEW61c-224" value="FK" style="shape=partialRectangle;connectable=0;fillColor=none;top=0;left=0;bottom=0;right=0;fontStyle=1;overflow=hidden;whiteSpace=wrap;html=1;" parent="IEiortbo1h3j8OMEW61c-223" vertex="1">
          <mxGeometry width="30" height="30" as="geometry">
            <mxRectangle width="30" height="30" as="alternateBounds" />
          </mxGeometry>
        </mxCell>
        <mxCell id="IEiortbo1h3j8OMEW61c-225" value="SSN" style="shape=partialRectangle;connectable=0;fillColor=none;top=0;left=0;bottom=0;right=0;align=left;spacingLeft=6;fontStyle=5;overflow=hidden;whiteSpace=wrap;html=1;" parent="IEiortbo1h3j8OMEW61c-223" vertex="1">
          <mxGeometry x="30" width="150" height="30" as="geometry">
            <mxRectangle width="150" height="30" as="alternateBounds" />
          </mxGeometry>
        </mxCell>
        <mxCell id="IEiortbo1h3j8OMEW61c-226" value="" style="shape=tableRow;horizontal=0;startSize=0;swimlaneHead=0;swimlaneBody=0;fillColor=none;collapsible=0;dropTarget=0;points=[[0,0.5],[1,0.5]];portConstraint=eastwest;top=0;left=0;right=0;bottom=1;" parent="IEiortbo1h3j8OMEW61c-216" vertex="1">
          <mxGeometry y="90" width="180" height="30" as="geometry" />
        </mxCell>
        <mxCell id="IEiortbo1h3j8OMEW61c-227" value="FK" style="shape=partialRectangle;connectable=0;fillColor=none;top=0;left=0;bottom=0;right=0;fontStyle=1;overflow=hidden;whiteSpace=wrap;html=1;" parent="IEiortbo1h3j8OMEW61c-226" vertex="1">
          <mxGeometry width="30" height="30" as="geometry">
            <mxRectangle width="30" height="30" as="alternateBounds" />
          </mxGeometry>
        </mxCell>
        <mxCell id="IEiortbo1h3j8OMEW61c-228" value="PNO" style="shape=partialRectangle;connectable=0;fillColor=none;top=0;left=0;bottom=0;right=0;align=left;spacingLeft=6;fontStyle=5;overflow=hidden;whiteSpace=wrap;html=1;" parent="IEiortbo1h3j8OMEW61c-226" vertex="1">
          <mxGeometry x="30" width="150" height="30" as="geometry">
            <mxRectangle width="150" height="30" as="alternateBounds" />
          </mxGeometry>
        </mxCell>
        <mxCell id="IEiortbo1h3j8OMEW61c-235" style="edgeStyle=orthogonalEdgeStyle;rounded=0;orthogonalLoop=1;jettySize=auto;html=1;exitX=1;exitY=0.5;exitDx=0;exitDy=0;entryX=0;entryY=0.5;entryDx=0;entryDy=0;" parent="1" source="IEiortbo1h3j8OMEW61c-223" target="IEiortbo1h3j8OMEW61c-17" edge="1">
          <mxGeometry relative="1" as="geometry">
            <Array as="points">
              <mxPoint x="-520" y="2275" />
              <mxPoint x="-520" y="2020" />
            </Array>
          </mxGeometry>
        </mxCell>
        <mxCell id="IEiortbo1h3j8OMEW61c-236" style="edgeStyle=orthogonalEdgeStyle;rounded=0;orthogonalLoop=1;jettySize=auto;html=1;exitX=0;exitY=0.5;exitDx=0;exitDy=0;entryX=1;entryY=0.5;entryDx=0;entryDy=0;" parent="1" source="IEiortbo1h3j8OMEW61c-217" target="IEiortbo1h3j8OMEW61c-130" edge="1">
          <mxGeometry relative="1" as="geometry" />
        </mxCell>
        <mxCell id="IEiortbo1h3j8OMEW61c-237" style="edgeStyle=orthogonalEdgeStyle;rounded=0;orthogonalLoop=1;jettySize=auto;html=1;exitX=0;exitY=0.5;exitDx=0;exitDy=0;entryX=1;entryY=0.5;entryDx=0;entryDy=0;" parent="1" source="IEiortbo1h3j8OMEW61c-226" target="IEiortbo1h3j8OMEW61c-116" edge="1">
          <mxGeometry relative="1" as="geometry" />
        </mxCell>
        <mxCell id="IEiortbo1h3j8OMEW61c-238" style="edgeStyle=orthogonalEdgeStyle;rounded=0;orthogonalLoop=1;jettySize=auto;html=1;exitX=0;exitY=0.5;exitDx=0;exitDy=0;entryX=0;entryY=0.5;entryDx=0;entryDy=0;" parent="1" source="IEiortbo1h3j8OMEW61c-41" target="IEiortbo1h3j8OMEW61c-163" edge="1">
          <mxGeometry relative="1" as="geometry">
            <Array as="points">
              <mxPoint x="-430" y="2275" />
              <mxPoint x="-430" y="2555" />
            </Array>
          </mxGeometry>
        </mxCell>
      </root>
    </mxGraphModel>
  </diagram>
</mxfile>
